<?xml version="1.0" encoding="utf-8"?><svg xmlns="http://www.w3.org/2000/svg" xmlns:xlink="http://www.w3.org/1999/xlink"><symbol fill="none" viewBox="0 0 30 32" id="Logo_horiz7" xmlns="http://www.w3.org/2000/svg"><path d="M15.816 0H9.778C8.39 0 7.008 1.14 6.694 2.52L5.29 8.645a.304.304 0 0 0 .297.373l8.317.002a.3.3 0 0 0 .298-.237L16.128.387c.04-.175-.111-.387-.312-.387ZM12.62 13.997H4.304a.3.3 0 0 0-.297.235l-4 17.395c-.02.093 0 .181.06.258.059.075.143.115.241.115h5.594c1.615 0 3.281-1.316 3.644-2.92l3.376-14.71a.308.308 0 0 0-.06-.26.294.294 0 0 0-.241-.113Zm14.239-.003-8.313-.012a.305.305 0 0 0-.3.239l-1.957 8.405a.29.29 0 0 0 .06.26.3.3 0 0 0 .241.117l5.959-.009c1.387 0 2.857-1.106 3.178-2.48l1.43-6.143a.294.294 0 0 0-.059-.26.299.299 0 0 0-.24-.117ZM27.998 0h-6.217a.3.3 0 0 0-.297.237L19.5 8.644c-.02.092 0 .183.06.258a.3.3 0 0 0 .241.117h8.358c.143 0 .27-.097.3-.237l1.472-6.273C30.259 1.128 29.389 0 27.998 0Z" fill="#E10000"/></symbol><symbol fill="none" viewBox="0 0 167 26" id="Sberbank_Logo" xmlns="http://www.w3.org/2000/svg"><path d="M22.989 5.007c.61.791 1.126 1.651 1.538 2.562l-11.69 8.653-4.886-3.076V9.447l4.886 3.075 10.152-7.515Z" fill="#21A038"/><path d="M2.965 12.885c0-.166.004-.33.012-.495l-2.96-.145a12.896 12.896 0 0 0 .96 5.573 12.853 12.853 0 0 0 2.782 4.177l2.1-2.107a9.909 9.909 0 0 1-2.894-7.002Z" fill="url(#ara)"/><path d="M12.834 2.976c.165 0 .33.006.493.014l.148-2.974A12.753 12.753 0 0 0 7.922.98a12.795 12.795 0 0 0-4.163 2.796l2.1 2.108a9.8 9.8 0 0 1 6.975-2.907Z" fill="url(#arb)"/><path d="M12.834 22.795c-.165 0-.33 0-.494-.013l-.148 2.973a12.744 12.744 0 0 0 5.552-.962 12.79 12.79 0 0 0 4.16-2.797l-2.096-2.107a9.804 9.804 0 0 1-6.974 2.906Z" fill="url(#arc)"/><path d="m18.397 4.705 2.495-1.846A12.743 12.743 0 0 0 12.83 0v2.976a9.791 9.791 0 0 1 5.567 1.73Z" fill="url(#ard)"/><path d="M25.667 12.885a13.011 13.011 0 0 0-.202-2.309l-2.762 2.044v.265a9.917 9.917 0 0 1-.848 4.02 9.882 9.882 0 0 1-2.403 3.325l1.992 2.21a12.852 12.852 0 0 0 3.123-4.326 12.895 12.895 0 0 0 1.1-5.229Z" fill="#21A038"/><path d="M12.834 22.795a9.816 9.816 0 0 1-7.315-3.265l-2.201 2a12.802 12.802 0 0 0 4.309 3.136c1.64.73 3.413 1.107 5.207 1.105v-2.976Z" fill="url(#are)"/><path d="m6.216 5.541-1.991-2.21A12.85 12.85 0 0 0 1.1 7.656 12.896 12.896 0 0 0 0 12.885h2.965c0-1.384.288-2.753.848-4.019a9.883 9.883 0 0 1 2.403-3.325Z" fill="url(#arf)"/><mask id="arg" style="mask-type:luminance" maskUnits="userSpaceOnUse" x="32" y="4" width="135" height="18"><path d="M166.507 4.483H32.577v17.034h133.93V4.483Z" fill="#fff"/></mask><g fill="#21A038" mask="url(#arg)"><path d="m74.06 7.369 3.672-2.686h-12.29v16.138h12.29v-2.685H68.95v-4.134h7.492v-2.686H68.95V7.37h5.11ZM57.174 10.97h-4.267V7.368h6.81l3.67-2.694H49.402v16.138h7.32c4.103 0 6.459-1.846 6.459-5.067 0-3.08-2.134-4.775-6.008-4.775Zm-.61 7.156h-3.657v-4.472h3.658c2.22 0 3.26.75 3.26 2.236 0 1.486-1.107 2.236-3.26 2.236ZM86.766 4.681h-6.69v16.138h3.507v-4.572h3.183c4.268 0 6.908-2.23 6.908-5.791 0-3.563-2.64-5.775-6.908-5.775Zm-.074 8.879h-3.11V7.369h3.11c2.245 0 3.484 1.1 3.484 3.096 0 1.997-1.239 3.095-3.484 3.095ZM44.14 17.01a6.157 6.157 0 0 1-2.95.733c-3.082 0-5.319-2.184-5.319-5.193 0-3.008 2.237-5.197 5.32-5.197a5.239 5.239 0 0 1 3.106.955l2.453-1.793-.166-.117c-1.43-1.25-3.343-1.91-5.53-1.91-2.374 0-4.526.792-6.063 2.234a7.79 7.79 0 0 0-1.805 2.625 7.743 7.743 0 0 0-.6 3.122 8 8 0 0 0 .598 3.157 8.047 8.047 0 0 0 1.793 2.674c1.544 1.5 3.69 2.325 6.047 2.325 2.463 0 4.615-.852 6.072-2.404l-2.195-1.623-.76.413ZM107.577 10.97h-4.264V7.368h9.165V4.674H99.806v16.138h7.31c4.104 0 6.459-1.846 6.459-5.067.01-3.08-2.123-4.775-5.998-4.775Zm-.609 7.156h-3.655v-4.472h3.655c2.22 0 3.26.75 3.26 2.236 0 1.486-1.097 2.236-3.26 2.236ZM153.439 20.789h-3.555V4.651h3.555v6.778h1.935l5.224-6.778h4.029l-6.197 7.677 7.196 8.461h-4.717l-5.289-6.347h-2.181v6.347ZM126.49 17.722h-7.52l-1.275 3.134h-3.783l7.053-16.138h3.782l6.939 16.138h-3.921l-1.275-3.134Zm-1.178-2.924-2.56-6.268-2.574 6.268h5.134ZM136.472 4.718v6.739h7.356v-6.74h3.665v16.139h-3.665v-6.359h-7.356v6.359h-3.666V4.718h3.666Z"/></g><defs><linearGradient id="ara" x1="4.359" y1="21.624" x2="1.096" y2="12.231" gradientUnits="userSpaceOnUse"><stop offset=".14" stop-color="#F1E813"/><stop offset=".3" stop-color="#E6E418"/><stop offset=".58" stop-color="#C9DA26"/><stop offset=".89" stop-color="#A2CC39"/></linearGradient><linearGradient id="arb" x1="4.605" y1="4.301" x2="12.957" y2="1.131" gradientUnits="userSpaceOnUse"><stop offset=".06" stop-color="#0FA7DF"/><stop offset=".54" stop-color="#0098F8"/><stop offset=".92" stop-color="#0290EA"/></linearGradient><linearGradient id="arc" x1="11.997" y1="23.975" x2="21.435" y2="21.851" gradientUnits="userSpaceOnUse"><stop offset=".12" stop-color="#A2CC39"/><stop offset=".28" stop-color="#86C239"/><stop offset=".87" stop-color="#219F38"/></linearGradient><linearGradient id="ard" x1="12.213" y1=".997" x2="20.285" y2="3.478" gradientUnits="userSpaceOnUse"><stop offset=".06" stop-color="#0290EA"/><stop offset=".79" stop-color="#0C89CA"/></linearGradient><linearGradient id="are" x1="4.061" y1="21.168" x2="12.85" y2="24.439" gradientUnits="userSpaceOnUse"><stop offset=".13" stop-color="#F1E813"/><stop offset=".3" stop-color="#EAE616"/><stop offset=".53" stop-color="#D8DF1F"/><stop offset=".8" stop-color="#BAD52D"/><stop offset=".98" stop-color="#A2CC39"/></linearGradient><linearGradient id="arf" x1="1.105" y1="13.245" x2="4.654" y2="4.05" gradientUnits="userSpaceOnUse"><stop offset=".07" stop-color="#A2CC39"/><stop offset=".26" stop-color="#81C45E"/><stop offset=".92" stop-color="#0FA7DF"/></linearGradient></defs></symbol><symbol fill="none" viewBox="0 0 19 17" id="Star" xmlns="http://www.w3.org/2000/svg"><path d="m9.5 0 2.666 5.33 5.893.889-4.245 4.183.976 5.88-5.29-2.746-5.29 2.745.976-5.88L.94 6.22l5.894-.889L9.5 0Z" fill="#F7BE2B"/></symbol><symbol fill="none" viewBox="0 0 12 10" id="Vector" xmlns="http://www.w3.org/2000/svg"><g fill="#169940"><path d="M0 0h12v2H0V0ZM0 4h12v2H0V4ZM0 8h12v2H0V8Z"/></g></symbol><symbol fill="none" viewBox="0 0 42 42" id="agreement" xmlns="http://www.w3.org/2000/svg"><g fill="#169940" clip-path="url(#aaa)"><path d="M19.74 6.717a.638.638 0 1 0 0 1.277h2.875a1.12 1.12 0 0 0 1.12-1.12V4.662a1.12 1.12 0 0 0-1.12-1.12H9.412a1.12 1.12 0 0 0-1.12 1.12v2.213c0 .617.502 1.119 1.12 1.119h7.327a.638.638 0 1 0 0-1.277H9.57V4.82h12.889v1.897H19.74ZM5.439 11.271c0 .353.286.639.638.639h20.008a.638.638 0 1 0 0-1.277H6.077a.638.638 0 0 0-.638.638ZM6.077 15.926h20.008a.638.638 0 1 0 0-1.276H6.077a.638.638 0 1 0 0 1.276ZM22.138 19.305a.638.638 0 0 0-.638-.639H6.077a.638.638 0 1 0 0 1.277H21.5a.638.638 0 0 0 .638-.638ZM14.051 23.96a.638.638 0 1 0 0-1.277H6.077a.638.638 0 1 0 0 1.277h7.974ZM5.307 36.373c.34.098.693-.1.79-.439a2.1 2.1 0 0 1 2.053-1.418c.804 0 1.186.316 1.715.754.607.502 1.363 1.128 2.824 1.128 1.822 0 2.8-1.926 2.842-2.008a.637.637 0 0 0-1.142-.57c-.007.013-.672 1.301-1.7 1.301-1 0-1.446-.368-2.01-.835-.593-.49-1.265-1.047-2.53-1.047a3.371 3.371 0 0 0-3.28 2.345c-.097.34.1.693.438.79Z"/><path d="M41.664 6.555a.638.638 0 0 0-.343-.35l-1.483-.631a.65.65 0 0 0-.34-.821l-.295-.128.48-1.111c.541-1.258-.058-2.766-1.315-3.308-1.255-.543-2.764.057-3.307 1.312l-.494 1.145a1.263 1.263 0 0 0-1.365.738l-1.33 3.08V3.211A3.216 3.216 0 0 0 28.66 0H3.5A3.215 3.215 0 0 0 .29 3.211V38.79C.29 40.559 1.73 42 3.501 42h25.16c1.77 0 3.21-1.44 3.21-3.211V29.85a.638.638 0 1 0-1.276 0v8.938a1.936 1.936 0 0 1-1.934 1.934H3.5a1.937 1.937 0 0 1-1.934-1.934V3.21c0-1.066.868-1.934 1.934-1.934H28.66c1.067 0 1.935.868 1.935 1.935v6.225L20.81 32.1a.646.646 0 0 0-.053.253l.008 5.378c0 1.2 1.484 1.846 2.363 1.02l3.918-3.682a.634.634 0 0 0 .143-.2l.006-.012 12.138-28.11.899.382-4.748 11.042a.638.638 0 1 0 1.172.504l5.002-11.63a.638.638 0 0 0 .006-.49Zm-4.22-5.276c.847.044 1.399.958 1.066 1.729l-.48 1.11-2.277-.982.48-1.111a1.246 1.246 0 0 1 1.211-.746Zm-3.079 2.648 4.041 1.745-5.134 11.89-4.042-1.744 5.135-11.89Zm-8.089 29.838-4.04-1.745 6.488-15.03 4.042 1.745-6.49 15.03Zm-4.023 4.056c-.079.074-.212.017-.212-.091l-.006-4.406 3.428 1.48-3.21 3.017Z"/></g><defs><clipPath id="aaa"><path fill="#fff" d="M0 0h42v42H0z"/></clipPath></defs></symbol><symbol fill="none" viewBox="0 0 14 10" id="arrow" xmlns="http://www.w3.org/2000/svg"><path fill-rule="evenodd" clip-rule="evenodd" d="M0 2.17 1.595.5 7 6.16 12.405.5 14 2.17 7 9.5 0 2.17Z" fill="#fff"/></symbol><symbol fill="none" viewBox="0 0 20 12" id="arrow_green" xmlns="http://www.w3.org/2000/svg"><path fill-rule="evenodd" clip-rule="evenodd" d="M0 9.773 2.278 12 10 4.453 17.722 12 20 9.773 10 0 0 9.773Z" fill="#169940"/></symbol><symbol fill="none" viewBox="0 0 28 28" id="checked" xmlns="http://www.w3.org/2000/svg"><g clip-path="url(#ada)"><mask id="adb" style="mask-type:luminance" maskUnits="userSpaceOnUse" x="-8" y="-8" width="44" height="44"><path d="M-7.202-7.202h42.383v42.383H-7.202V-7.202Z" fill="#fff"/></mask><g mask="url(#adb)"><path fill-rule="evenodd" clip-rule="evenodd" d="M.41 13.99c0 7.5 6.08 13.58 13.58 13.58s13.58-6.08 13.58-13.58c0-6.981-5.267-12.73-12.045-13.494a.62.62 0 1 0-.138 1.234c6.156.693 10.94 5.918 10.94 12.26 0 6.814-5.523 12.338-12.337 12.338-6.815 0-12.339-5.524-12.339-12.338 0-6.336 4.777-11.558 10.926-12.258a.62.62 0 0 0-.14-1.234C5.666 1.269.41 7.015.41 13.99Z" fill="#169940"/><path fill-rule="evenodd" clip-rule="evenodd" d="M13.097 19.565a1.73 1.73 0 0 1-2.446 0l-4.428-4.43a.682.682 0 0 1 0-.963l1.728-1.729a.682.682 0 0 1 .964 0l2.648 2.648a.62.62 0 0 0 .877 0l6.752-6.751a.682.682 0 0 1 .964 0l1.6 1.6a.681.681 0 0 1 0 .965l-5.093 5.094a.62.62 0 0 0 .878.878l5.094-5.094a1.923 1.923 0 0 0 0-2.72l-1.601-1.601a1.923 1.923 0 0 0-2.72 0L12 13.774l-2.208-2.209a1.923 1.923 0 0 0-2.72 0l-1.729 1.729a1.923 1.923 0 0 0 0 2.72l4.43 4.429a2.971 2.971 0 0 0 4.2 0l1.527-1.527a.62.62 0 1 0-.877-.878l-1.527 1.527Z" fill="#169940"/></g></g><defs><clipPath id="ada"><path fill="#fff" d="M0 0h28v28H0z"/></clipPath></defs></symbol><symbol fill="none" viewBox="0 0 42 42" id="chronometer" xmlns="http://www.w3.org/2000/svg"><g fill="#169940"><path d="m31.698 9.485 1.783-3.102a.616.616 0 0 0-.227-.842l-2.521-1.448a.617.617 0 0 0-.843.228l-1.78 3.098a17.857 17.857 0 0 0-5.04-1.344V4.189h1.252a.617.617 0 0 0 .616-.616V.666a.615.615 0 0 0-.616-.617h-6.643a.616.616 0 0 0-.617.617v2.907a.617.617 0 0 0 .616.616h1.252v1.884a17.857 17.857 0 0 0-5.04 1.344L12.11 4.32a.617.617 0 0 0-.843-.228L8.747 5.54a.617.617 0 0 0-.228.842l1.783 3.104a18 18 0 1 0 21.396 0Zm-1.045-4.018 1.45.835-1.426 2.484c-.47-.3-.953-.58-1.45-.836l1.426-2.483ZM18.295 1.282h5.41v1.674h-5.41V1.282Zm1.868 2.907h1.674v1.783A17.756 17.756 0 0 0 21 5.95c-.282 0-.56.008-.837.021V4.19ZM9.896 6.302l1.451-.833 1.425 2.48c-.497.257-.98.536-1.45.837L9.897 6.302ZM21 40.717A16.767 16.767 0 1 1 37.766 23.95 16.786 16.786 0 0 1 21 40.717Z"/><path d="M33.127 30.89a13.929 13.929 0 0 0-.038-13.946.582.582 0 0 0-.028-.061.602.602 0 0 0-.035-.048 14.078 14.078 0 0 0-4.972-4.946.524.524 0 0 0-.053-.038.557.557 0 0 0-.062-.027 13.927 13.927 0 0 0-13.944.037.634.634 0 0 0-.063.03.575.575 0 0 0-.047.034 14.08 14.08 0 0 0-4.947 4.972.335.335 0 0 0-.065.114 13.928 13.928 0 0 0 .038 13.945.605.605 0 0 0 .028.062c.008.014.02.024.028.036a14.077 14.077 0 0 0 4.978 4.957.612.612 0 0 0 .053.039c.016.009.033.012.049.02a13.93 13.93 0 0 0 13.974-.04c.016-.008.032-.01.047-.02.014-.008.03-.022.046-.035a14.08 14.08 0 0 0 4.955-4.985c.01-.013.022-.024.03-.038.01-.02.02-.041.028-.062Zm-5.162 3.726-.792-1.351a.617.617 0 0 0-1.065.624l.794 1.354a12.652 12.652 0 0 1-5.287 1.439v-1.574a.617.617 0 0 0-1.233 0v1.574a12.65 12.65 0 0 1-5.222-1.408l.787-1.358a.617.617 0 0 0-1.068-.618l-.785 1.357a12.843 12.843 0 0 1-3.76-3.74l1.353-.791a.617.617 0 0 0-.624-1.065l-1.354.794a12.653 12.653 0 0 1-1.439-5.287h1.574a.617.617 0 1 0 0-1.233H8.27a12.653 12.653 0 0 1 1.407-5.223l1.358.785a.616.616 0 0 0 .618-1.067l-1.357-.785c.972-1.499 2.245-2.779 3.739-3.758l.792 1.352a.617.617 0 0 0 1.065-.623l-.794-1.354a12.647 12.647 0 0 1 5.287-1.44v1.574a.617.617 0 1 0 1.233 0v-1.573c1.822.087 3.604.566 5.223 1.406l-.788 1.359a.615.615 0 0 0 .221.85.617.617 0 0 0 .847-.232l.785-1.358c1.5.971 2.78 2.245 3.76 3.74l-1.353.792a.616.616 0 1 0 .624 1.064l1.354-.794a12.66 12.66 0 0 1 1.439 5.287h-1.574a.617.617 0 0 0 0 1.234h1.574a12.653 12.653 0 0 1-1.407 5.22l-1.358-.785a.617.617 0 0 0-.618 1.068l1.356.785a12.84 12.84 0 0 1-3.738 3.759Z"/><path d="M30.302 23.95a.617.617 0 0 0-.616-.616h-5.94a2.823 2.823 0 0 0-2.13-2.13v-5.94a.617.617 0 0 0-1.233 0v5.94a2.817 2.817 0 1 0 3.364 3.363h5.939a.617.617 0 0 0 .616-.616ZM21 25.535a1.584 1.584 0 1 1 0-3.167 1.584 1.584 0 0 1 0 3.167Z"/></g></symbol><symbol fill="none" viewBox="0 0 42 42" id="contract" xmlns="http://www.w3.org/2000/svg"><path d="M32.535 37.964a4.076 4.076 0 0 1-4.07-4.072 4.076 4.076 0 0 1 4.07-4.07 4.076 4.076 0 0 1 4.072 4.07 4.076 4.076 0 0 1-4.072 4.072Zm0-6.786a2.717 2.717 0 0 0-2.714 2.714 2.717 2.717 0 0 0 2.714 2.715 2.717 2.717 0 0 0 2.715-2.715 2.717 2.717 0 0 0-2.715-2.714ZM25.75 35.928H20.32a.679.679 0 0 1 0-1.357h5.429a.679.679 0 0 1 0 1.357ZM32.535 21H21.68a.679.679 0 0 1 0-1.357h10.856a.679.679 0 0 1 0 1.357ZM32.535 18.286h-13.57a.679.679 0 0 1 0-1.357h13.57a.679.679 0 0 1 0 1.357ZM32.535 15.572h-13.57a.679.679 0 0 1 0-1.357h13.57a.679.679 0 0 1 0 1.357ZM27.107 8.786H14.214a.679.679 0 0 1 0-1.357h12.893a.679.679 0 0 1 0 1.357ZM11.5 35.928c-5.237 0-9.5-4.262-9.5-9.5s4.263-9.5 9.5-9.5c2.196 0 4.338.767 6.031 2.161a.677.677 0 1 1-.861 1.048 8.151 8.151 0 0 0-5.17-1.851c-4.49 0-8.142 3.652-8.142 8.142 0 4.491 3.652 8.143 8.142 8.143 4.491 0 8.143-3.652 8.143-8.143 0-.617-.07-1.233-.205-1.83a.677.677 0 0 1 .51-.813c.368-.09.73.144.813.51.158.695.239 1.414.239 2.133 0 5.238-4.263 9.5-9.5 9.5Z" fill="#169940"/><path d="M11.5 30.5h-.016a.682.682 0 0 1-.506-.245l-3.393-4.07a.682.682 0 0 1 .087-.958c.289-.239.715-.2.957.087l2.894 3.476 6.94-7.57a.68.68 0 0 1 .959-.042.68.68 0 0 1 .04.96L12 30.28a.677.677 0 0 1-.5.22ZM8.108 15.572a.679.679 0 0 1-.679-.679V1.322c0-.375.304-.679.679-.679H29.82a.679.679 0 0 1 0 1.358H8.786v12.892a.679.679 0 0 1-.678.679ZM39.32 41.356H8.109a.679.679 0 0 1-.679-.678v-2.714a.679.679 0 0 1 1.357 0v2.035h29.856V10.822a.679.679 0 0 1 1.357 0v29.856a.679.679 0 0 1-.678.678Z" fill="#169940"/><path d="M39.32 11.5h-9.499a.679.679 0 0 1-.678-.678V4.715a.679.679 0 0 1 1.357 0v5.428h7.183l-8.34-8.34a.68.68 0 0 1 .959-.96l9.5 9.5a.677.677 0 0 1-.481 1.157Z" fill="#169940"/></symbol><symbol fill="none" viewBox="0 0 16 16" id="iconamoon_search-bold" xmlns="http://www.w3.org/2000/svg"><g clip-path="url(#aga)"><path d="m14.545 14.545-3.158-3.158m0 0a5.82 5.82 0 0 0-4.114-9.933 5.818 5.818 0 1 0 4.114 9.933Z" stroke="#169940" stroke-width="2" stroke-linecap="round" stroke-linejoin="round"/></g><defs><clipPath id="aga"><path fill="#fff" d="M0 0h16v16H0z"/></clipPath></defs></symbol><symbol fill="none" viewBox="0 0 20 23" id="ion_stats-chart-arrow" xmlns="http://www.w3.org/2000/svg"><path fill-rule="evenodd" clip-rule="evenodd" d="M0 17.773 2.278 20 10 12.453 17.722 20 20 17.773 10 8 0 17.773Z" fill="#169940"/></symbol><symbol fill="none" viewBox="0 0 20 23" id="ion_stats-chart-sharp" xmlns="http://www.w3.org/2000/svg"><g clip-path="url(#aia)"><path d="M3.846 23H0v-9.2h3.846V23Zm10.77 0h-3.847V9.2h3.846V23ZM20 23h-3.846V3.833H20V23ZM9.23 23H5.386V0H9.23v23Z" fill="#169940"/></g><defs><clipPath id="aia"><path fill="#fff" d="M0 0h20v23H0z"/></clipPath></defs></symbol><symbol fill="none" viewBox="0 0 42 42" id="log-in" xmlns="http://www.w3.org/2000/svg"><g clip-path="url(#aja)"><mask id="ajb" style="mask-type:luminance" maskUnits="userSpaceOnUse" x="0" y="0" width="42" height="42"><path d="M0 0h42v42H0V0Z" fill="#fff"/></mask><g mask="url(#ajb)"><path d="M13.371 6.297H2.256a1.64 1.64 0 0 0-1.64 1.64v31.807c0 .906.734 1.64 1.64 1.64h37.488a1.64 1.64 0 0 0 1.64-1.64V7.937a1.64 1.64 0 0 0-1.64-1.64h-11.08" stroke="#169940" stroke-width="1.3" stroke-miterlimit="10" stroke-linecap="round" stroke-linejoin="round"/><path d="M27.716 13.125h13.669V7.937a1.64 1.64 0 0 0-1.64-1.64M.738 13.125H14.7M34.056 36.175H7.944a2.92 2.92 0 1 1 0-5.84h26.113a2.92 2.92 0 1 1 0 5.84Z" stroke="#169940" stroke-width="1.3" stroke-miterlimit="10" stroke-linecap="round" stroke-linejoin="round"/><path d="M9.938 33.87c.792 0 .793-1.23 0-1.23-.792 0-.793 1.23 0 1.23ZM13.099 33.87c.791 0 .793-1.23 0-1.23-.792 0-.793 1.23 0 1.23ZM16.26 33.87c.791 0 .792-1.23 0-1.23-.793 0-.794 1.23 0 1.23ZM19.42 33.87c.791 0 .793-1.23 0-1.23-.792 0-.793 1.23 0 1.23ZM22.58 33.87c.792 0 .793-1.23 0-1.23-.791 0-.793 1.23 0 1.23ZM25.74 33.87c.793 0 .794-1.23 0-1.23-.791 0-.792 1.23 0 1.23ZM28.901 33.87c.792 0 .793-1.23 0-1.23-.791 0-.793 1.23 0 1.23ZM32.062 33.87c.791 0 .793-1.23 0-1.23-.792 0-.793 1.23 0 1.23Z" fill="#169940"/><path d="M31.935 26.891h2.122a2.92 2.92 0 1 0 0-5.84H7.943a2.92 2.92 0 1 0 0 5.84h20.71M15.043 3.358a7.84 7.84 0 1 0 2.413-1.897" stroke="#169940" stroke-width="1.3" stroke-miterlimit="10" stroke-linecap="round" stroke-linejoin="round"/><path d="M23.037 12.515h-4.074a.82.82 0 0 1-.82-.82V8.52a.82.82 0 0 1 .82-.82h4.074a.82.82 0 0 1 .82.82v3.175a.82.82 0 0 1-.82.82Z" stroke="#169940" stroke-width="1.3" stroke-miterlimit="10" stroke-linecap="round" stroke-linejoin="round"/><path d="M22.573 7.7h-3.146V5.642a1.573 1.573 0 0 1 3.146 0V7.7ZM9.938 23.97h22.124" stroke="#169940" stroke-width="1.3" stroke-miterlimit="10" stroke-linecap="round" stroke-linejoin="round"/><path d="M21 10.723c.792 0 .793-1.23 0-1.23-.792 0-.793 1.23 0 1.23Z" fill="#169940"/></g></g><defs><clipPath id="aja"><path fill="#fff" d="M0 0h42v42H0z"/></clipPath></defs></symbol><symbol fill="none" viewBox="0 0 170 38" id="logo" xmlns="http://www.w3.org/2000/svg"><g clip-path="url(#aka)"><mask id="akb" style="mask-type:luminance" maskUnits="userSpaceOnUse" x="0" y="0" width="170" height="26"><path d="M170 0H0v25.742h170V0Z" fill="#fff"/></mask><g fill-rule="evenodd" clip-rule="evenodd" mask="url(#akb)"><path d="M31.608 20.523V7.62a2.155 2.155 0 0 1 .52-1.69 2.33 2.33 0 0 1 1.695-.585h7.158c.795 0 2.058 0 2.988.909 1.034.996 1.14 2.707 1.14 3.99 0 1.283-.13 3.189-1.312 4.152a3.748 3.748 0 0 1-2.301.735h-7.052v5.397l-2.836-.004Zm8.233-7.656c.621 0 1.354 0 1.848-.565.494-.564.494-1.494.494-2.076 0-.672-.066-1.586-.535-2.076-.47-.49-1.289-.523-1.762-.523h-4.573a.816.816 0 0 0-.667.2.925.925 0 0 0-.193.714v4.334l5.388-.008ZM49.716 20.523l1.828-3.359-6.43-11.816h3.14l4.75 9.192 4.578-9.192h3.095l-7.886 15.175h-3.075ZM67.008 20.523c-1.44 0-3.396-.195-4.791-1.781-1.396-1.586-1.527-3.924-1.527-5.593 0-2.167.193-4.4 1.46-5.896 1.508-1.777 3.85-1.905 4.94-1.905h6.039v2.275h-4.705c-1.675 0-3.096.112-3.956 1.412-.448.672-.823 1.822-.823 4.077 0 2.254.411 3.21.708 3.687.774 1.191 2.148 1.453 3.93 1.453h5.097v2.275l-6.372-.004ZM75.273 5.348h2.849v15.175h-2.836l-.013-15.175Zm10.814 15.175-6.175-5.813c-.885-.83-1.033-1.56-1.033-1.951a2.45 2.45 0 0 1 .823-1.715l5.697-5.68h3.503l-6.491 6.228c-.494.474-.794.83-.794 1.171 0 .478.535.997.967 1.387l7.113 6.398-3.61-.025Z" fill="#0066B1"/><path d="M94.426 6.602c.3-.694.712-1.429 2.301-1.429 1.59 0 1.997.735 2.301 1.429l5.804 13.921h-3.009L97.056 8.412c-.066-.195-.127-.415-.341-.415-.214 0-.3.261-.367.415l-4.75 12.12H88.59l5.837-13.93ZM116.954 20.523l.087-11.534c0-.24-.021-.494-.214-.494-.194 0-.346.345-.56.693l-6.174 10.081c-.412.673-.861 1.428-2.388 1.428-2.169 0-2.215-1.73-2.215-2.599V5.352h2.837l-.066 11.318c0 .345 0 .693.259.693.173 0 .28-.261.412-.477l6.063-10.019c.823-1.34 1.482-1.69 2.515-1.69 2.256 0 2.301 1.973 2.301 2.733v12.617l-2.857-.004ZM133.889 18.875c-.515 1.366-.902 1.818-2.149 1.818-1.161 0-1.614-.386-2.149-1.818l-3.849-10.127c-.066-.17-.234-.498-.366-.498-.235 0-.235.39-.235.457l.066 11.816h-2.836V7.166c0-1.972 1.997-1.993 2.429-1.993 1.094 0 1.996.258 2.642 1.952l3.89 10.122c.128.328.28.565.412.565.132 0 .28-.237.411-.565l3.89-10.122c.642-1.694 1.548-1.952 2.643-1.952 1.399 0 2.429.607 2.429 1.993v13.357h-2.837l.087-11.816c0-.416-.169-.457-.256-.457-.148 0-.3.324-.366.498l-3.856 10.127ZM147.431 6.884c.535-1.279 1.12-1.71 2.469-1.71 1.289 0 1.935.415 2.47 1.71l5.672 13.639h-2.988l-1.548-3.836h-7.244l-1.523 3.836h-2.988l5.68-13.639Zm-.412 7.764h5.763l-2.47-6.178c-.087-.22-.239-.631-.412-.631-.172 0-.341.415-.411.631l-2.47 6.178ZM161.335 20.523v-12.9h-5.869V5.348h14.596v2.275h-5.89v12.9h-2.837ZM10.575 13.913c-.091-.075-.194-.174-.317-.286-.713-.665-2.425-2.147-4.446-2.147a7.128 7.128 0 0 0-1.622.258c-.596.186-1.177.42-1.737.701.473-.567.987-1.097 1.54-1.586a6.07 6.07 0 0 1 3.585-1.395 8.103 8.103 0 0 1 .339-5.347A8.012 8.012 0 0 1 11.513.166.711.711 0 0 0 11.18.08H2.885a2.894 2.894 0 0 0-2.03.858 2.944 2.944 0 0 0-.851 2.048v20.316a.738.738 0 0 0 .213.515c.136.137.32.214.512.215h10.467a.721.721 0 0 0 .512-.213.734.734 0 0 0 .213-.517v-8.4c-.464-.299-.906-.629-1.326-.988" fill="#0066B1"/><path d="M12.744 11.455c1.564 1.138 2.836 1.723 3.91 1.819.522.036 1.046.02 1.564-.05.231-.03.458-.081.68-.154.2-.062.396-.135.588-.22.19-.094.376-.198.556-.311.13-.083.256-.175.374-.274.066-.054.326-.29.412-.382.136-.153.263-.312.383-.478a6.984 6.984 0 0 0 1.28-4.127c0-1.93-.76-3.782-2.114-5.148a7.186 7.186 0 0 0-5.104-2.132c-1.914 0-3.75.767-5.104 2.132a7.313 7.313 0 0 0-1.776 7.34c1.28.13 2.787.831 4.35 1.985Z" fill="#E31F13"/><path d="M7.936 10.152A8.263 8.263 0 0 0 3.82 11.43h-.025c-.033 0-.02.038.02.021a6.63 6.63 0 0 1 2.372-.46c2.638 0 4.202 1.83 4.828 2.362a6.663 6.663 0 0 0 4.672 1.66 6.063 6.063 0 0 0 3.1-.967 7.305 7.305 0 0 0 1.46-1.27c.021-.054.083-.12 0 0a4.95 4.95 0 0 1-2.47 1.038 6.255 6.255 0 0 1-1.526.041c-1.322-.104-2.24-.502-3.91-1.84-1.8-1.353-3.322-1.868-4.356-1.868l-.049.005Z" fill="#0066B1"/><path d="M24.352.349v22.499a3.036 3.036 0 0 1-.88 2.13c-.56.566-1.32.883-2.113.884H.12a.254.254 0 0 1-.18-.075.259.259 0 0 1-.075-.182v-.025c0-.068.027-.134.075-.182a.254.254 0 0 1 .18-.075h21.24a2.46 2.46 0 0 0 1.746-.73c.464-.467.724-1.1.724-1.762V.35c0-.068.027-.134.075-.182a.254.254 0 0 1 .18-.076h.025a.258.258 0 0 1 .255.258" fill="#0066B1"/></g><path d="M4.086 30.58h.096c.485 0 .926.112 1.323.334.399.22.708.53.928.93.222.401.334.852.334 1.352 0 .498-.112.946-.334 1.344-.22.395-.526.702-.92.921-.39.22-.828.331-1.314.334h-.113v.834H3.032v-.834h-.104c-.489 0-.933-.11-1.332-.33a2.35 2.35 0 0 1-.928-.925 2.726 2.726 0 0 1-.325-1.335c0-.5.11-.95.33-1.352.22-.4.527-.712.923-.934.396-.226.84-.338 1.332-.338h.104v-.87h1.054v.87Zm-1.158.892c-.486 0-.866.153-1.14.46-.273.308-.409.732-.409 1.273 0 .527.136.943.408 1.247.272.301.657.452 1.154.452h.091v-3.432h-.104Zm1.158 0v3.432h.104c.486 0 .863-.154 1.132-.46.272-.308.408-.724.408-1.248 0-.535-.136-.956-.408-1.264-.269-.307-.65-.46-1.145-.46h-.09ZM11.857 33.513H9.263v1.966h3.032v.887h-4.13v-6.391h4.1v.895H9.262v1.765h2.594v.878ZM19.44 37.937H18.4v-1.571h-4.16v1.571H13.18l-.034-2.458h.507c.252-.246.453-.603.603-1.071.15-.471.247-1.004.29-1.598l.166-2.835h3.982v5.504h.802l-.056 2.458Zm-4.545-2.458h2.707V30.87h-1.844l-.104 1.8c-.078 1.203-.331 2.139-.76 2.809ZM24.457 33.513h-2.594v1.966h3.032v.887h-4.13v-6.391h4.1v.895h-3.002v1.765h2.594v.878ZM27.33 33.991v2.375h-1.097v-6.391h2.416c.705 0 1.265.186 1.678.557.417.372.625.863.625 1.475 0 .626-.204 1.113-.612 1.462-.404.348-.973.522-1.704.522H27.33Zm0-.891h1.319c.39 0 .688-.092.893-.276.206-.188.308-.457.308-.808 0-.345-.104-.62-.312-.825-.208-.208-.494-.315-.859-.32H27.33V33.1ZM35.122 34.878h-2.446l-.512 1.488h-1.14l2.385-6.391h.985l2.39 6.39h-1.145l-.517-1.487Zm-2.138-.896h1.83l-.915-2.65-.915 2.65ZM42.993 29.975v6.39H41.9V30.87h-1.935l-.113 2.471c-.043.773-.137 1.373-.282 1.8-.142.424-.348.735-.62.93-.272.197-.636.295-1.093.295h-.278v-.887l.174-.013c.251-.024.445-.113.581-.268.139-.155.243-.39.312-.702.073-.316.123-.78.152-1.392l.122-3.13h4.073ZM45.84 32.42h1.292c.463 0 .867.08 1.211.241.344.161.606.39.785.685.18.295.269.638.269 1.027 0 .597-.201 1.077-.603 1.44-.4.362-.944.547-1.635.553h-2.416v-6.391h1.097v2.445Zm0 .89v2.169h1.288c.37 0 .658-.101.863-.303.209-.205.313-.475.313-.812 0-.322-.102-.576-.304-.764-.202-.187-.483-.284-.841-.29h-1.32ZM55.805 36.366h-1.093v-2.84h-2.824v2.84h-1.097v-6.391h1.097v2.66h2.824v-2.66h1.093v6.39ZM58.679 32.42h1.292c.463 0 .866.08 1.21.241.345.161.607.39.786.685.18.295.269.638.269 1.027 0 .597-.201 1.077-.603 1.44-.4.362-.945.547-1.636.553h-2.416v-6.391h1.098v2.445Zm5.274 3.946H62.86v-6.391h1.093v6.39ZM58.68 33.31v2.168h1.288c.37 0 .658-.101.863-.303.209-.205.313-.475.313-.812 0-.322-.102-.576-.304-.764-.203-.187-.483-.284-.841-.29h-1.32ZM69.612 29.975h1.097v6.39h-1.097v-4.551l-2.772 4.552h-1.098v-6.391h1.097v4.556l2.773-4.556Zm.034-1.629c0 .37-.127.668-.382.896-.254.228-.594.342-1.019.342-.425 0-.765-.114-1.02-.342-.254-.229-.381-.527-.381-.896h.79c0 .194.053.344.16.453.11.105.26.157.451.157.19 0 .34-.052.447-.157.107-.109.16-.26.16-.453h.794ZM78.993 29.975h1.098v6.39h-1.098v-4.551l-2.772 4.552h-1.097v-6.391h1.097v4.556l2.772-4.556ZM86.863 36.366H85.77v-2.84h-2.824v2.84H81.85v-6.391h1.097v2.66h2.824v-2.66h1.093v6.39ZM93.042 30.87h-1.97v5.496h-1.088V30.87h-1.952v-.895h5.01v.895ZM98.01 33.513h-2.594v1.966h3.033v.887h-4.13v-6.391h4.099v.895h-3.002v1.765h2.594v.878ZM100.883 33.991v2.375h-1.097v-6.391h2.416c.706 0 1.265.186 1.679.557.416.372.625.863.625 1.475 0 .626-.204 1.113-.612 1.462-.405.348-.973.522-1.705.522h-1.306Zm0-.891h1.319c.391 0 .688-.092.894-.276.205-.188.308-.457.308-.808 0-.345-.104-.62-.313-.825-.207-.208-.494-.315-.858-.32h-1.35V33.1ZM110.927 36.366h-1.093v-2.84h-2.824v2.84h-1.097v-6.391h1.097v2.66h2.824v-2.66h1.093v6.39ZM116.364 33.513h-2.594v1.966h3.032v.887h-4.13v-6.391h4.1v.895h-3.002v1.765h2.594v.878ZM122.79 30.87h-1.969v5.496h-1.089V30.87h-1.952v-.895h5.01v.895ZM124.83 34.079h-2.277v-.86h2.277v.86ZM127.669 29.975l1.822 4.898 1.817-4.898h1.419v6.39h-1.093V34.26l.108-2.818-1.865 4.925h-.785l-1.861-4.92.108 2.813v2.107h-1.093v-6.391h1.423ZM138.086 34.878h-2.447l-.512 1.488h-1.141l2.386-6.391h.985l2.39 6.39h-1.145l-.516-1.487Zm-2.139-.896h1.831l-.916-2.65-.915 2.65ZM144.949 30.87h-2.915v5.496h-1.093v-6.391h4.008v.895ZM148.951 34.878h-2.447l-.512 1.488h-1.141l2.386-6.391h.985l2.39 6.39h-1.145l-.516-1.487Zm-2.139-.896h1.831l-.916-2.65-.915 2.65ZM154.934 31.717a.829.829 0 0 0-.321-.684c-.214-.17-.505-.255-.872-.255-.315 0-.578.085-.789.255a.788.788 0 0 0-.317.65h-1.093c0-.349.095-.66.286-.931.191-.272.456-.483.794-.632a2.698 2.698 0 0 1 1.119-.229c.723 0 1.284.16 1.683.479.402.319.603.765.603 1.339 0 .29-.087.555-.26.798a1.754 1.754 0 0 1-.729.575c.353.123.622.31.807.562.188.249.282.56.282.93 0 .574-.217 1.03-.651 1.37-.434.337-1.012.505-1.735.505-.445 0-.849-.08-1.21-.241-.359-.161-.629-.38-.811-.659a1.72 1.72 0 0 1-.269-.957h1.093c0 .275.113.508.338.698.226.188.512.281.859.281.388 0 .699-.092.933-.276a.87.87 0 0 0 .355-.72c0-.36-.104-.62-.312-.782-.205-.163-.507-.245-.907-.245h-.741v-.878h.703c.775 0 1.162-.318 1.162-.953ZM161.46 29.975h1.097v6.39h-1.097v-4.551l-2.772 4.552h-1.098v-6.391h1.098v4.556l2.772-4.556ZM169.33 36.366h-1.093v-2.84h-2.824v2.84h-1.097v-6.391h1.097v2.66h2.824v-2.66h1.093v6.39Z" fill="#222"/></g><defs><clipPath id="aka"><path fill="#fff" d="M0 0h170v38H0z"/></clipPath></defs></symbol><symbol fill="none" viewBox="0 0 176 39" id="logo_2" xmlns="http://www.w3.org/2000/svg"><g clip-path="url(#ala)"><mask id="alb" style="mask-type:luminance" maskUnits="userSpaceOnUse" x="0" y="0" width="176" height="27"><path d="M176 0H0v26.42h176V0Z" fill="#fff"/></mask><g fill-rule="evenodd" clip-rule="evenodd" mask="url(#alb)"><path d="M32.724 21.063V7.82a2.195 2.195 0 0 1 .537-1.734 2.425 2.425 0 0 1 1.756-.6h7.41c.823 0 2.131 0 3.094.932 1.07 1.023 1.18 2.779 1.18 4.095 0 1.317-.135 3.273-1.359 4.262-.69.505-1.527.77-2.382.754h-7.3v5.54l-2.936-.005Zm8.523-7.857c.644 0 1.402 0 1.914-.58.51-.58.51-1.534.51-2.13 0-.69-.067-1.628-.553-2.131-.486-.503-1.334-.537-1.824-.537h-4.735a.852.852 0 0 0-.69.204.945.945 0 0 0-.2.733v4.45l5.578-.01ZM51.47 21.063l1.893-3.447-6.657-12.127h3.252l4.917 9.434 4.74-9.434h3.204l-8.165 15.574H51.47ZM69.373 21.063c-1.491 0-3.516-.2-4.96-1.828-1.445-1.628-1.581-4.027-1.581-5.74 0-2.224.2-4.517 1.512-6.05 1.56-1.824 3.985-1.956 5.114-1.956h6.252v2.335h-4.871c-1.734 0-3.205.115-4.095 1.448-.465.69-.853 1.871-.853 4.185 0 2.314.426 3.294.733 3.784.802 1.223 2.225 1.491 4.07 1.491h5.276v2.335l-6.597-.004ZM77.93 5.489h2.949v15.574h-2.936L77.93 5.49Zm11.195 15.574-6.392-5.965c-.916-.853-1.07-1.603-1.07-2.003a2.498 2.498 0 0 1 .853-1.76l5.897-5.83h3.627l-6.72 6.392c-.512.486-.823.853-.823 1.202 0 .49.554 1.023 1.001 1.423l7.364 6.567-3.737-.026Z" fill="#fff"/><path d="M97.759 6.775c.311-.711.737-1.465 2.382-1.465s2.067.754 2.382 1.465l6.009 14.288h-3.115l-4.935-12.43c-.068-.2-.132-.426-.354-.426-.222 0-.31.269-.38.426l-4.917 12.439h-3.115L97.76 6.775ZM121.082 21.063l.09-11.837c0-.247-.022-.507-.222-.507s-.358.353-.58.711l-6.392 10.346c-.426.69-.891 1.466-2.472 1.466-2.246 0-2.292-1.777-2.292-2.667V5.493h2.936l-.069 11.616c0 .354 0 .712.269.712.179 0 .29-.269.426-.49l6.277-10.283c.853-1.376 1.535-1.734 2.604-1.734 2.336 0 2.382 2.024 2.382 2.804v12.95l-2.957-.005ZM138.614 19.372c-.533 1.401-.934 1.866-2.225 1.866-1.201 0-1.67-.396-2.224-1.866L130.18 8.978c-.068-.174-.243-.51-.379-.51-.243 0-.243.4-.243.468l.068 12.127h-2.936V7.355c0-2.024 2.067-2.045 2.514-2.045 1.134 0 2.067.264 2.736 2.002l4.027 10.39c.132.336.29.579.427.579.136 0 .289-.243.426-.58l4.027-10.389c.665-1.738 1.602-2.002 2.736-2.002 1.449 0 2.514.622 2.514 2.045v13.708h-2.936l.089-12.127c0-.426-.175-.469-.264-.469-.153 0-.311.332-.379.511l-3.993 10.394ZM152.634 7.065c.554-1.312 1.159-1.755 2.557-1.755 1.334 0 2.003.426 2.557 1.755l5.872 13.998h-3.093l-1.603-3.937h-7.5l-1.577 3.937h-3.094l5.881-13.998Zm-.426 7.969h5.966l-2.557-6.341c-.089-.226-.247-.648-.426-.648s-.354.426-.426.648l-2.557 6.34ZM167.029 21.063V7.823h-6.076V5.49h15.111v2.335h-6.098v13.24h-2.937ZM10.948 14.28c-.094-.077-.2-.18-.328-.294-.738-.682-2.51-2.204-4.603-2.204a7.438 7.438 0 0 0-1.679.265c-.618.191-1.22.432-1.798.72a14.91 14.91 0 0 1 1.594-1.628 6.316 6.316 0 0 1 3.711-1.432A8.249 8.249 0 0 1 11.92.171a.741.741 0 0 0-.345-.09H2.987A3.009 3.009 0 0 0 .004 3.064v20.85a.754.754 0 0 0 .75.75h10.837a.75.75 0 0 0 .75-.75v-8.62c-.48-.307-.938-.646-1.372-1.014" fill="#fff"/><path d="M13.194 11.757c1.619 1.167 2.936 1.768 4.048 1.866.54.038 1.083.02 1.62-.05.238-.032.474-.084.703-.159.207-.063.41-.139.609-.225.197-.097.389-.204.575-.32.135-.085.265-.18.388-.281.068-.056.337-.298.426-.392.14-.157.273-.32.396-.49a7.124 7.124 0 0 0 1.326-4.236A7.472 7.472 0 1 0 8.689 9.72c1.325.132 2.885.852 4.505 2.037Z" fill="#E31F13"/><path d="M8.216 10.419a8.609 8.609 0 0 0-4.261 1.312h-.026c-.034 0-.021.039.021.021a6.918 6.918 0 0 1 2.455-.472c2.732 0 4.351 1.879 4.999 2.424a6.934 6.934 0 0 0 4.837 1.705 6.316 6.316 0 0 0 3.208-.993 7.547 7.547 0 0 0 1.513-1.304c.022-.056.085-.124 0 0a5.15 5.15 0 0 1-2.557 1.065 6.531 6.531 0 0 1-1.58.043c-1.369-.107-2.319-.516-4.05-1.888-1.861-1.39-3.438-1.917-4.508-1.917l-.05.004Z" fill="#fff"/><path d="M25.211.358V23.45a3.102 3.102 0 0 1-3.098 3.094H.123a.264.264 0 0 1-.264-.264v-.026a.264.264 0 0 1 .265-.264h21.989a2.557 2.557 0 0 0 2.557-2.556V.358a.264.264 0 0 1 .264-.264h.026a.268.268 0 0 1 .264.264" fill="#fff"/></g><path d="M4.23 31.385h.1c.502 0 .959.114 1.369.343.413.225.733.543.96.955.231.411.347.874.347 1.387 0 .51-.116.97-.346 1.379-.228.405-.545.72-.952.946-.404.225-.858.34-1.36.342H4.23v.856H3.14v-.856H3.03c-.506 0-.965-.113-1.378-.338a2.422 2.422 0 0 1-.961-.95 2.778 2.778 0 0 1-.337-1.37c0-.513.114-.976.341-1.387.228-.412.546-.732.957-.96.41-.231.87-.347 1.378-.347h.108v-.892H4.23v.892Zm-1.199.915c-.503 0-.896.158-1.18.473-.282.315-.423.75-.423 1.306 0 .54.14.967.422 1.28.282.309.68.464 1.195.464h.094V32.3h-.108Zm1.2 0v3.523h.107c.503 0 .894-.158 1.172-.473.282-.316.422-.742.422-1.28 0-.55-.14-.982-.422-1.297-.278-.316-.673-.473-1.185-.473H4.23ZM12.275 34.395H9.59v2.018h3.139v.91H8.453v-6.56h4.244v.92H9.59v1.81h2.685v.901ZM20.127 38.935h-1.078v-1.612h-4.307v1.612h-1.095l-.036-2.522h.525c.26-.253.469-.619.624-1.1.156-.483.256-1.03.301-1.64l.17-2.91h4.123v5.65h.831l-.058 2.522Zm-4.706-2.522h2.802v-4.73h-1.909l-.108 1.847c-.08 1.234-.342 2.195-.785 2.883ZM25.32 34.395h-2.686v2.018h3.14v.91h-4.276v-6.56h4.244v.92h-3.108v1.81h2.686v.901ZM28.295 34.886v2.437h-1.136v-6.56h2.5c.731 0 1.31.191 1.739.573.431.381.646.886.646 1.513 0 .643-.21 1.143-.633 1.5-.419.358-1.007.537-1.765.537h-1.351Zm0-.915h1.365c.404 0 .712-.094.925-.284.213-.192.319-.468.319-.829 0-.354-.108-.636-.323-.846-.216-.214-.512-.323-.89-.33h-1.396v2.29ZM36.362 35.795h-2.533l-.53 1.528h-1.18l2.47-6.56h1.019l2.474 6.56h-1.186l-.534-1.528Zm-2.214-.919h1.895l-.947-2.72-.948 2.72ZM44.51 30.764v6.559h-1.132v-5.64h-2.002l-.117 2.536c-.045.793-.142 1.408-.292 1.847-.147.435-.36.754-.642.955-.282.201-.659.302-1.132.302h-.287v-.91l.18-.014c.26-.024.46-.116.601-.275.144-.159.252-.4.323-.72.075-.325.128-.8.157-1.428l.126-3.212h4.217ZM47.458 33.273h1.338c.479 0 .897.082 1.253.248.356.165.627.399.813.702.185.304.278.655.278 1.054 0 .613-.208 1.106-.624 1.478-.413.372-.978.562-1.693.568h-2.501v-6.56h1.136v2.51Zm0 .914v2.226h1.334c.383 0 .68-.104.893-.311.216-.21.324-.488.324-.833 0-.33-.105-.592-.315-.784-.21-.193-.5-.292-.87-.298h-1.366ZM57.775 37.323h-1.132v-2.915H53.72v2.915h-1.136v-6.56h1.136v2.73h2.923v-2.73h1.132v6.56ZM60.75 33.273h1.338c.479 0 .897.082 1.253.248.356.165.627.399.813.702.186.304.278.655.278 1.054 0 .613-.208 1.106-.624 1.478-.413.372-.978.562-1.693.568h-2.502v-6.56h1.137v2.51Zm5.46 4.05H65.08v-6.56h1.132v6.56Zm-5.46-3.136v2.226h1.333c.384 0 .682-.104.894-.311.216-.21.324-.488.324-.833 0-.33-.105-.592-.315-.784-.21-.193-.5-.292-.871-.298H60.75ZM72.069 30.764h1.135v6.558H72.07v-4.67l-2.87 4.67h-1.136v-6.558h1.135v4.676l2.87-4.676Zm.035-1.672c0 .379-.132.685-.395.92-.263.233-.615.35-1.055.35-.44 0-.792-.116-1.056-.35-.263-.235-.395-.541-.395-.92h.817c0 .199.056.353.167.464.114.108.269.162.467.162.197 0 .351-.054.462-.162.11-.11.166-.265.166-.464h.822ZM81.781 30.764h1.136v6.559h-1.136V32.65l-2.87 4.672h-1.136v-6.56h1.136v4.677l2.87-4.676ZM89.929 37.323h-1.132v-2.915h-2.923v2.915h-1.136v-6.56h1.136v2.73h2.923v-2.73h1.132v6.56ZM96.326 31.683h-2.039v5.64H93.16v-5.64h-2.021v-.92h5.187v.92ZM101.47 34.395h-2.686v2.018h3.139v.91h-4.275v-6.56h4.243v.92h-3.107v1.81h2.686v.901ZM104.444 34.886v2.437h-1.136v-6.56h2.501c.731 0 1.31.191 1.738.573.431.381.647.886.647 1.513 0 .643-.211 1.143-.633 1.5-.419.358-1.007.537-1.765.537h-1.352Zm0-.915h1.365c.405 0 .713-.094.926-.284.212-.192.319-.468.319-.829 0-.354-.108-.636-.324-.846-.215-.214-.512-.323-.889-.33h-1.397v2.29ZM114.842 37.323h-1.131v-2.915h-2.924v2.915h-1.136v-6.56h1.136v2.73h2.924v-2.73h1.131v6.56ZM120.471 34.395h-2.686v2.018h3.14v.91h-4.276v-6.56h4.244v.92h-3.108v1.81h2.686v.901ZM127.124 31.683h-2.039v5.64h-1.127v-5.64h-2.021v-.92h5.187v.92ZM129.236 34.976h-2.358v-.883h2.358v.883ZM132.175 30.764l1.886 5.027 1.882-5.027h1.468v6.559h-1.131V35.16l.112-2.892-1.931 5.055h-.813l-1.927-5.05.113 2.887v2.163h-1.132v-6.56h1.473ZM142.959 35.795h-2.533l-.53 1.528h-1.181l2.47-6.56h1.02l2.474 6.56h-1.185l-.535-1.528Zm-2.214-.919h1.895l-.947-2.72-.948 2.72ZM150.065 31.683h-3.018v5.64h-1.131v-6.56h4.149v.92ZM154.208 35.795h-2.533l-.53 1.528h-1.181l2.47-6.56h1.019l2.475 6.56h-1.186l-.534-1.528Zm-2.214-.919h1.895l-.948-2.72-.947 2.72ZM160.402 32.552a.849.849 0 0 0-.332-.703c-.221-.174-.522-.261-.903-.261-.326 0-.599.087-.817.261a.807.807 0 0 0-.328.667h-1.132c0-.357.099-.676.297-.955a1.92 1.92 0 0 1 .822-.649c.35-.156.736-.234 1.158-.234.749 0 1.33.164 1.743.491.416.327.624.785.624 1.374 0 .297-.09.57-.269.82a1.82 1.82 0 0 1-.755.59c.365.126.644.318.835.576.195.256.292.574.292.956 0 .588-.225 1.057-.673 1.405-.449.345-1.048.518-1.797.518-.461 0-.879-.083-1.253-.248-.371-.165-.651-.39-.84-.675a1.766 1.766 0 0 1-.278-.982h1.132c0 .282.117.52.35.716.234.192.53.288.889.288.401 0 .723-.094.966-.284a.891.891 0 0 0 .368-.738c0-.37-.108-.637-.323-.802-.213-.169-.526-.252-.939-.252h-.768v-.901h.728c.802 0 1.203-.326 1.203-.978ZM167.158 30.764h1.136v6.559h-1.136V32.65l-2.869 4.672h-1.137v-6.56h1.137v4.677l2.869-4.676ZM175.306 37.323h-1.131v-2.915h-2.924v2.915h-1.136v-6.56h1.136v2.73h2.924v-2.73h1.131v6.56Z" fill="#fff"/></g><defs><clipPath id="ala"><path fill="#fff" d="M0 0h176v39H0z"/></clipPath></defs></symbol><symbol fill="none" viewBox="0 0 42 42" id="package" xmlns="http://www.w3.org/2000/svg"><g fill="#169940"><path d="M35.11 24.052v-12.24a.657.657 0 0 0-.329-.57L18.867 2.054a.656.656 0 0 0-.656 0L2.297 11.242a.656.656 0 0 0-.328.57v18.376a.656.656 0 0 0 .328.57l15.914 9.188a.657.657 0 0 0 .656 0l5.979-3.452a8.36 8.36 0 1 0 10.263-12.469v.027ZM18.54 3.38l14.6 8.433-7.323 4.226-13.558-9.03 6.28-3.63Zm0 16.865L3.937 11.812l7.054-4.075 13.552 9.037-6.005 3.471ZM3.28 12.948l14.602 8.433V38.24L3.28 29.807v-16.86ZM19.195 38.24V21.38l5.907-3.431v5.112a.656.656 0 1 0 1.312 0v-5.867l7.35-4.246v10.638a8.162 8.162 0 0 0-2.133-.29 8.353 8.353 0 0 0-7.461 12.07l-4.975 2.874Zm12.47.479a7.055 7.055 0 1 1 7.054-7.055 7.062 7.062 0 0 1-7.055 7.055Z"/><path d="m34.781 28.258-4.069 5.368-2.132-2.507a.662.662 0 1 0-1.017.847l2.625 3.137a.655.655 0 0 0 .498.23.656.656 0 0 0 .506-.263l4.56-6.018a.656.656 0 1 0-.97-.794Z"/></g></symbol><symbol fill="none" viewBox="0 0 42 42" id="pay" xmlns="http://www.w3.org/2000/svg"><g clip-path="url(#aoa)"><g stroke="#169940" stroke-width="1.3" stroke-miterlimit="10" stroke-linecap="round" stroke-linejoin="round"><path d="M.615 10.567v-6.67A3.281 3.281 0 0 1 3.896.614H20.55a3.281 3.281 0 0 1 3.281 3.281v15.15M23.83 37.72v.383a3.281 3.281 0 0 1-3.281 3.282H3.896a3.281 3.281 0 0 1-3.28-3.282V12.887"/><path d="M14.217 3.527h-3.989a1.64 1.64 0 0 1-1.43-.835L7.629.615h9.188l-1.17 2.077a1.64 1.64 0 0 1-1.429.835Z"/></g><g stroke="#169940" stroke-width="1.3" stroke-miterlimit="10" stroke-linecap="round" stroke-linejoin="round"><path d="M37.93 29.646a1.785 1.785 0 0 0 0-2.526M40.127 31.418a4.29 4.29 0 0 0 0-6.07"/></g><path d="M30.678 37.72h2.483a1.46 1.46 0 0 0 1.46-1.459V20.504a1.46 1.46 0 0 0-1.46-1.459H5.715a1.46 1.46 0 0 0-1.459 1.46V36.26c0 .806.653 1.46 1.46 1.46h22.503" stroke="#169940" stroke-width="1.3" stroke-miterlimit="10" stroke-linecap="round" stroke-linejoin="round"/><g stroke="#169940" stroke-width="1.3" stroke-miterlimit="10" stroke-linecap="round" stroke-linejoin="round"><path d="M12.903 26.45v3.866a.73.73 0 0 1-.73.73H8.306a.73.73 0 0 1-.73-.73V26.45a.73.73 0 0 1 .73-.73h3.867a.73.73 0 0 1 .73.73ZM7.576 28.383h1.168M11.735 28.383h1.168"/></g><g stroke="#169940" stroke-width="1.3" stroke-miterlimit="10" stroke-linecap="round" stroke-linejoin="round"><path d="M31.581 23.936v-.001c0-1.024-.83-1.854-1.854-1.854h-1.88c-1.025 0-1.855.83-1.855 1.854v0c0 1.025.83 1.855 1.854 1.855h1.88c1.025 0 1.855-.83 1.855-1.854ZM7.576 34.279h14.812M25.338 34.279h3.76"/></g><g stroke="#169940" stroke-width="1.3" stroke-miterlimit="10" stroke-linecap="round" stroke-linejoin="round"><path d="M12.223 16.266c2.658 0 4.813-2.126 4.813-4.75 0-2.623-2.155-4.75-4.813-4.75-2.659 0-4.814 2.127-4.814 4.75 0 2.624 2.155 4.75 4.814 4.75Z"/><path d="m10.121 11.686 1.365 1.365 2.838-2.84"/></g></g><defs><clipPath id="aoa"><path fill="#fff" d="M0 0h42v42H0z"/></clipPath></defs></symbol><symbol fill="none" viewBox="0 0 12 12" id="right-arrow" xmlns="http://www.w3.org/2000/svg"><g clip-path="url(#apa)"><path d="m7.2 1.2-.84.84L9.72 5.4H0v1.2h9.72L6.36 9.96l.84.84L12 6 7.2 1.2Z" fill="#169940"/></g><defs><clipPath id="apa"><path fill="#fff" d="M0 0h12v12H0z"/></clipPath></defs></symbol><symbol fill="none" viewBox="0 0 42 42" id="ruble" xmlns="http://www.w3.org/2000/svg"><g fill="#169940"><path d="M42 21c0-10.399-8.415-18.815-18.815-18.815h-4.37C8.416 2.185 0 10.6 0 21c0 2.139.358 4.24 1.063 6.245a.615.615 0 0 0 1.16-.409A17.543 17.543 0 0 1 1.23 21c0-9.719 7.865-17.585 17.585-17.585a17.47 17.47 0 0 1 12.435 5.15A17.47 17.47 0 0 1 36.4 21c0 9.719-7.865 17.585-17.585 17.585A17.583 17.583 0 0 1 3.163 29.02a.615.615 0 0 0-1.095.563 18.813 18.813 0 0 0 16.745 10.231h4.372C33.607 39.815 42 31.36 42 21Zm-7.013 13.035h-2.604a18.912 18.912 0 0 0 2.553-3.32h2.908a17.692 17.692 0 0 1-2.857 3.32Zm-3.902 1.23h2.387a17.39 17.39 0 0 1-7.323 3.072 18.71 18.71 0 0 0 4.936-3.072Zm4.534-5.78a18.573 18.573 0 0 0 1.296-3.32h3.087a17.358 17.358 0 0 1-1.407 3.32h-2.976Zm4.709-4.55h-3.109c.23-1.083.364-2.193.4-3.32h3.139a17.587 17.587 0 0 1-.43 3.32Zm.43-4.55h-3.139a18.944 18.944 0 0 0-.4-3.32h3.11c.246 1.08.39 2.19.429 3.32Zm-.76-4.55h-3.083a18.57 18.57 0 0 0-1.296-3.32h2.971A17.482 17.482 0 0 1 40 15.835Zm-2.15-4.55h-2.912a18.918 18.918 0 0 0-2.553-3.32h2.606a17.816 17.816 0 0 1 2.86 3.32Zm-6.762-4.55a18.715 18.715 0 0 0-4.921-3.065 17.555 17.555 0 0 1 7.302 3.065h-2.381Z"/><path d="M28.956 11.286a.615.615 0 0 0 .888-.85 15.143 15.143 0 0 0-11.029-4.709C10.394 5.727 3.542 12.578 3.542 21s6.852 15.273 15.273 15.273c8.422 0 15.273-6.852 15.273-15.273 0-3.07-.907-6.03-2.623-8.561a.615.615 0 1 0-1.019.69A13.97 13.97 0 0 1 32.858 21c0 7.743-6.3 14.042-14.043 14.042-7.743 0-14.042-6.299-14.042-14.042 0-7.743 6.3-14.042 14.042-14.042 3.865 0 7.466 1.537 10.14 4.328Z"/><path d="M16.393 21.253c.115.114.27.178.433.178h.003c1.062-.006 2.48-.012 3.211-.012 2.17 0 4.003-1.793 4.003-3.915S22.21 13.59 20.04 13.59h-3.235a.615.615 0 0 0-.615.617c.012 4.18.002 3.274.02 6.612.001.164.067.32.183.434Zm3.647-6.433c1.503 0 2.773 1.23 2.773 2.684 0 1.455-1.27 2.684-2.773 2.684-.599 0-1.656.005-2.602.01-.014-2.682-.006-2.015-.016-5.378h2.618Z"/><path d="M20.04 23.88a6.47 6.47 0 0 0 4.535-1.85c1.244-1.212 1.93-2.819 1.93-4.526 0-1.707-.686-3.314-1.93-4.525a6.47 6.47 0 0 0-4.535-1.85h-4.469a1.848 1.848 0 0 0-1.845 1.846V24.36h-.754a1.848 1.848 0 0 0-1.845 1.845c0 1.018.827 1.846 1.845 1.846h.754v.973c0 1.018.827 1.846 1.845 1.846a1.848 1.848 0 0 0 1.846-1.846v-.973h1.398a.615.615 0 1 0 0-1.23h-2.013a.615.615 0 0 0-.616.615v1.588a.616.616 0 0 1-1.23 0v-1.588a.615.615 0 0 0-.615-.616h-1.369a.616.616 0 0 1 0-1.23h1.369c.34 0 .615-.275.615-.615V12.975c0-.34.276-.615.615-.615h4.47c1.376 0 2.681.533 3.676 1.5a5.056 5.056 0 0 1 1.557 3.644 5.056 5.056 0 0 1-1.557 3.644 5.246 5.246 0 0 1-3.677 1.5c-.73 0-2.166.008-3.242.014a.615.615 0 0 0-.612.615v1.699c0 .34.276.615.616.615h5.504a.616.616 0 0 1 0 1.23h-1.03a.615.615 0 1 0 0 1.231h1.03a1.848 1.848 0 0 0 1.846-1.846 1.848 1.848 0 0 0-1.846-1.845h-4.89v-.472c.959-.005 2.028-.01 2.624-.01Z"/></g></symbol><symbol fill="none" viewBox="0 0 42 42" id="search" xmlns="http://www.w3.org/2000/svg"><g fill="#169940" clip-path="url(#asa)"><path d="M25.102 26.467c.52 0 1.006-.205 1.37-.577l3.224-3.306a1.914 1.914 0 0 0-.034-2.703 1.914 1.914 0 0 0-2.704.034l-1.891 1.939-.332-.322a1.915 1.915 0 0 0-2.704.038 1.914 1.914 0 0 0 .038 2.703l1.7 1.653c.36.349.833.541 1.333.541Zm-2.186-4.038a.68.68 0 0 1 .96-.013l.772.751a.617.617 0 0 0 .872-.012l2.321-2.38a.68.68 0 0 1 .972.948L25.59 25.03a.682.682 0 0 1-.96.013l-1.7-1.653a.68.68 0 0 1-.013-.96Z"/><path d="M20.337 26.887a.617.617 0 0 0-.985.742c.225.298.473.583.738.848a7.974 7.974 0 0 0 5.675 2.35c2.144 0 4.16-.834 5.675-2.35a7.971 7.971 0 0 0 2.351-5.674 7.971 7.971 0 0 0-2.35-5.674C28.31 14 23.22 14 20.09 17.129a8 8 0 0 0-1.97 8.12.617.617 0 0 0 1.174-.374A6.772 6.772 0 0 1 20.962 18a6.8 6.8 0 0 1 9.606 0 6.747 6.747 0 0 1 1.99 4.802c0 1.814-.707 3.52-1.99 4.803a6.748 6.748 0 0 1-4.803 1.989 6.749 6.749 0 0 1-4.803-1.99 6.9 6.9 0 0 1-.625-.718Z"/><path d="m41.152 34.065-3.89-3.889a.617.617 0 0 0-.872 0l-.023.024-1.497-1.497a10.83 10.83 0 0 0 1.723-5.214.617.617 0 0 0-1.23-.077 9.604 9.604 0 0 1-2.798 6.19 9.587 9.587 0 0 1-6.79 2.812H25.716a9.586 9.586 0 0 1-6.75-2.812 9.551 9.551 0 0 1-2.817-6.799c0-2.568 1-4.983 2.817-6.799 3.749-3.749 9.85-3.749 13.6 0a9.557 9.557 0 0 1 2.664 5.094.617.617 0 0 0 1.214-.218 10.785 10.785 0 0 0-3.007-5.748 10.813 10.813 0 0 0-2.58-1.909V8.255a.624.624 0 0 0-.18-.436L23.037.181A.624.624 0 0 0 22.601 0H1.85C.83 0 0 .83 0 1.85v5.18a.616.616 0 0 0 1.233 0V1.85c0-.34.277-.617.617-.617h20.135v5.79c0 1.019.83 1.849 1.85 1.849h5.79v3.793a10.893 10.893 0 0 0-3.742-.704l-.018-.002H12.1a.617.617 0 0 0 0 1.233h8.632a10.81 10.81 0 0 0-2.46 1.766H12.1a.616.616 0 1 0 0 1.233h5.063a10.73 10.73 0 0 0-2.023 4.408H12.1a.617.617 0 0 0 0 1.232h2.86a11.032 11.032 0 0 0-.015 1.77H12.1a.617.617 0 0 0 0 1.234h3.006a10.73 10.73 0 0 0 2.059 4.583H12.1a.617.617 0 1 0 0 1.233h6.175c.75.715 1.578 1.303 2.455 1.762H12.1a.617.617 0 0 0 0 1.233h13.665c1.31 0 2.62-.235 3.86-.705v7.21c0 .34-.277.616-.617.616H1.85a.617.617 0 0 1-.617-.616V9.497a.617.617 0 0 0-1.233 0V40.15C0 41.171.83 42 1.85 42h27.158c1.02 0 1.85-.83 1.85-1.85v-7.767c.275-.146.545-.305.809-.477l1.496 1.497a.622.622 0 0 0-.023.895l3.89 3.89c1.084 1.13 3.037 1.13 4.122 0 1.13-1.086 1.13-3.038 0-4.123ZM23.834 7.64a.617.617 0 0 1-.616-.617V2.105l5.535 5.534h-4.919Zm8.838 23.53a10.918 10.918 0 0 0 1.46-1.46l1.363 1.363-1.46 1.459-1.362-1.363Zm7.608 6.147c-.626.652-1.753.652-2.379 0l-3.454-3.454 2.38-2.378 3.453 3.453c.652.626.652 1.753 0 2.379Z"/><path d="M5.595 16.8h2.697c.76 0 1.38-.618 1.38-1.379v-2.696a1.38 1.38 0 0 0-1.38-1.38H5.595a1.38 1.38 0 0 0-1.38 1.38v2.696c0 .76.62 1.38 1.38 1.38Zm-.146-4.075c0-.08.065-.146.146-.146h2.697c.08 0 .146.065.146.146v2.696c0 .08-.065.146-.146.146H5.595a.146.146 0 0 1-.146-.146v-2.696ZM4.216 24.065c0 .76.618 1.379 1.379 1.379h2.697c.76 0 1.38-.619 1.38-1.38v-2.696a1.38 1.38 0 0 0-1.38-1.379H5.595a1.38 1.38 0 0 0-1.38 1.379v2.697Zm1.233-2.697c0-.08.065-.146.146-.146h2.697c.08 0 .146.066.146.146v2.697c0 .08-.065.146-.146.146H5.595a.146.146 0 0 1-.146-.146v-2.697ZM4.216 32.884c0 .76.618 1.379 1.379 1.379h2.697c.76 0 1.38-.619 1.38-1.38v-2.696a1.38 1.38 0 0 0-1.38-1.379H5.595a1.38 1.38 0 0 0-1.38 1.379v2.697Zm1.233-2.697c0-.08.065-.146.146-.146h2.697c.08 0 .146.066.146.146v2.697c0 .08-.065.146-.146.146H5.595a.146.146 0 0 1-.146-.146v-2.697Z"/></g><defs><clipPath id="asa"><path fill="#fff" d="M0 0h42v42H0z"/></clipPath></defs></symbol><symbol fill="none" viewBox="0 0 16 16" id="shopping-cart_1" xmlns="http://www.w3.org/2000/svg"><g clip-path="url(#ata)"><path d="M12.668 11.332c-1.1 0-1.994.895-1.994 1.995s.894 1.995 1.995 1.995c1.1 0 1.995-.895 1.995-1.995s-.896-1.995-1.995-1.995Zm0 2.793a.799.799 0 1 1 .002-1.598.799.799 0 0 1-.002 1.598ZM15.873 3.621a.598.598 0 0 0-.471-.23H3.694l-.538-2.253a.599.599 0 0 0-.582-.46H.599a.598.598 0 1 0 0 1.197H2.1l1.945 8.14c.065.269.306.459.582.459h9.317a.598.598 0 0 0 .581-.455l1.457-5.885a.6.6 0 0 0-.11-.513Zm-2.396 5.656H5.101L3.98 4.588h10.656l-1.16 4.689ZM5.426 11.332c-1.1 0-1.995.895-1.995 1.995s.895 1.995 1.995 1.995 1.995-.895 1.995-1.995-.895-1.995-1.995-1.995Zm0 2.793a.799.799 0 1 1 .002-1.598.799.799 0 0 1-.002 1.598Z" fill="#169940"/></g><defs><clipPath id="ata"><path fill="#fff" d="M0 0h16v16H0z"/></clipPath></defs></symbol><symbol fill="none" viewBox="0 0 42 42" id="shopping-cart_2" xmlns="http://www.w3.org/2000/svg"><path d="M11.787 26.53c1.074-.002 23.614 0 25.411 0 .168 0 .33-.056.462-.157a.74.74 0 0 0 .266-.405L41.978 9.96a.732.732 0 0 0-.14-.639.728.728 0 0 0-.596-.282l-33.59.325-2.16-5.876A.756.756 0 0 0 4.787 3H.736a.755.755 0 0 0-.521.222.737.737 0 0 0 0 1.038.755.755 0 0 0 .52.222h3.526l7.558 20.565c-4.904.111-4.944 7.15-.032 7.307h2.3a3.515 3.515 0 0 0-.3 3.709 3.568 3.568 0 0 0 1.331 1.418c.568.342 1.22.521 1.885.519a3.655 3.655 0 0 0 1.869-.537 3.593 3.593 0 0 0 1.317-1.415 3.54 3.54 0 0 0-.27-3.694h9.119a3.52 3.52 0 0 0-.292 3.705c.3.584.76 1.075 1.326 1.417a3.635 3.635 0 0 0 3.762 0 3.575 3.575 0 0 0 1.327-1.417 3.52 3.52 0 0 0-.293-3.705h2.33a.755.755 0 0 0 .521-.222.737.737 0 0 0 0-1.038.755.755 0 0 0-.52-.222H11.786a2.211 2.211 0 0 1-1.539-.645 2.158 2.158 0 0 1-.635-1.526c0-.572.229-1.12.635-1.527.407-.406.96-.638 1.539-.644Zm13.294-1.483v-6.521h5.752l-1.627 6.521h-4.125Zm0-8.004v-6.365l7.729-.075-1.607 6.44h-6.122Zm-1.5 0h-6.123l-1.566-6.276 7.688-.074v6.35Zm0 1.483v6.521h-4.126l-1.627-6.521h5.752Zm13.032 6.521h-5.86l1.626-6.521h5.884l-1.65 6.521Zm2.025-8.004h-5.89l1.611-6.455 5.927-.057-1.648 6.512ZM14.35 10.782l1.562 6.261h-5.438l-2.28-6.201 6.156-.06Zm-3.331 7.744h5.263l1.627 6.521c-.97-.008-3.561.007-4.493 0l-2.397-6.521Zm8.091 15.91a2.07 2.07 0 0 1-.625 1.458 2.12 2.12 0 0 1-1.482.601 2.12 2.12 0 0 1-1.482-.601 2.07 2.07 0 0 1-.625-1.458 2.07 2.07 0 0 1 .625-1.457 2.121 2.121 0 0 1 1.482-.602 2.12 2.12 0 0 1 1.482.602c.395.385.62.909.625 1.457Zm14.95 0a2.07 2.07 0 0 1-.625 1.457 2.121 2.121 0 0 1-1.482.602 2.121 2.121 0 0 1-1.482-.602 2.07 2.07 0 0 1-.625-1.457 2.07 2.07 0 0 1 .625-1.458 2.121 2.121 0 0 1 1.482-.601c.555 0 1.088.216 1.482.601.395.386.62.91.626 1.458Z" fill="#169940"/></symbol><symbol fill="none" viewBox="0 0 20 20" id="swap" xmlns="http://www.w3.org/2000/svg"><g fill="#94A0AE" clip-path="url(#awa)"><path d="M13.12 14.595c.197-.155.365-.289.51-.407H5.556a.77.77 0 0 1 0-1.538h8.074a55.878 55.878 0 0 0-.51-.408l-1.205-.955a.77.77 0 1 1 .956-1.206l1.24.983c.451.358.84.667 1.121.946.292.29.567.645.642 1.117a1.86 1.86 0 0 1 0 .584c-.075.472-.35.826-.642 1.117-.28.28-.67.588-1.121.946l-1.24.983a.77.77 0 0 1-.956-1.206l1.206-.956ZM14.445 7.35a.77.77 0 1 0 0-1.538H6.37c.145-.118.313-.252.51-.407l1.205-.956a.77.77 0 1 0-.956-1.206l-1.24.983c-.45.358-.84.667-1.121.947-.291.29-.567.644-.642 1.116a1.85 1.85 0 0 0 0 .585c.075.471.35.826.642 1.116.28.28.67.588 1.121.946l1.24.983a.77.77 0 1 0 .956-1.206L6.88 7.758c-.197-.156-.365-.29-.51-.408h8.075Z"/><path fill-rule="evenodd" clip-rule="evenodd" d="M19.873 14.578C20 13.407 20 11.93 20 10.046v-.092c0-1.884 0-3.36-.127-4.532-.13-1.195-.399-2.164-1-2.991a5.897 5.897 0 0 0-1.304-1.305c-.827-.6-1.796-.87-2.991-1C13.407 0 11.93 0 10.046 0h-.092C8.07 0 6.594 0 5.422.127c-1.195.13-2.164.398-2.991 1-.5.363-.941.803-1.305 1.304-.6.827-.87 1.796-1 2.991C0 6.593 0 8.07 0 9.953v.094c0 1.883 0 3.36.127 4.53.13 1.196.398 2.165 1 2.992.363.5.803.94 1.304 1.305.827.6 1.796.87 2.991 1C6.593 20 8.07 20 9.954 20h.092c1.884 0 3.36 0 4.532-.127 1.195-.13 2.164-.398 2.991-1 .5-.363.94-.803 1.305-1.304.6-.827.87-1.796 1-2.991ZM17.63 3.335c.379.521.6 1.188.715 2.253.116 1.079.117 2.472.117 4.412s0 3.333-.117 4.412c-.116 1.065-.336 1.732-.715 2.253-.269.37-.594.695-.964.964-.521.379-1.188.6-2.253.715-1.079.116-2.472.117-4.412.117s-3.333 0-4.412-.117c-1.065-.116-1.732-.336-2.253-.715a4.356 4.356 0 0 1-.964-.964c-.379-.521-.6-1.188-.715-2.253-.117-1.079-.118-2.472-.118-4.412s.001-3.333.118-4.412c.116-1.065.336-1.732.715-2.253.269-.37.594-.695.964-.964.521-.379 1.188-.6 2.253-.715C6.667 1.54 8.06 1.538 10 1.538s3.333.002 4.412.118c1.065.116 1.732.336 2.253.715.37.269.695.594.964.964Z"/></g><defs><clipPath id="awa"><path fill="#fff" d="M0 0h20v20H0z"/></clipPath></defs></symbol><symbol fill="none" viewBox="0 0 30 30" id="teleg" xmlns="http://www.w3.org/2000/svg"><path fill-rule="evenodd" clip-rule="evenodd" d="M15 30c8.284 0 15-6.716 15-15 0-8.284-6.716-15-15-15C6.716 0 0 6.716 0 15c0 8.284 6.716 15 15 15Z" fill="url(#axa)"/><path fill-rule="evenodd" clip-rule="evenodd" d="M12.25 21.875c-.486 0-.403-.183-.571-.646l-1.429-4.703 11-6.526" fill="#C8DAEA"/><path fill-rule="evenodd" clip-rule="evenodd" d="M12.25 21.875c.375 0 .54-.172.75-.375l2-1.945-2.495-1.504" fill="#A9C9DD"/><path fill-rule="evenodd" clip-rule="evenodd" d="m12.503 18.051 6.045 4.466c.69.381 1.188.184 1.36-.64l2.46-11.595c.253-1.01-.384-1.469-1.044-1.169l-14.45 5.571c-.985.396-.98.946-.179 1.191l3.708 1.158 8.584-5.416c.405-.246.777-.114.472.157" fill="url(#axb)"/><defs><linearGradient id="axa" x1="11.252" y1="1.251" x2="3.752" y2="18.75" gradientUnits="userSpaceOnUse"><stop stop-color="#37AEE2"/><stop offset="1" stop-color="#1E96C8"/></linearGradient><linearGradient id="axb" x1="13.121" y1="15.921" x2="14.723" y2="21.106" gradientUnits="userSpaceOnUse"><stop stop-color="#EFF7FC"/><stop offset="1" stop-color="#fff"/></linearGradient></defs></symbol><symbol fill="none" viewBox="0 0 30 30" id="vk" xmlns="http://www.w3.org/2000/svg"><path fill-rule="evenodd" clip-rule="evenodd" d="M0 15C0 6.716 6.716 0 15 0c8.284 0 15 6.716 15 15 0 8.284-6.716 15-15 15-8.284 0-15-6.716-15-15Z" fill="#4C6C91"/><path fill-rule="evenodd" clip-rule="evenodd" d="M15.785 19.923s.288-.032.436-.188c.136-.143.131-.412.131-.412s-.018-1.26.578-1.445c.587-.183 1.34 1.217 2.14 1.756.604.407 1.063.318 1.063.318l2.137-.03s1.117-.067.587-.93c-.043-.07-.309-.638-1.588-1.804-1.34-1.22-1.16-1.023.453-3.135.983-1.286 1.376-2.07 1.253-2.407-.117-.32-.84-.235-.84-.235l-2.405.014s-.179-.024-.311.054c-.13.076-.213.253-.213.253s-.38.995-.888 1.842c-1.072 1.785-1.5 1.88-1.675 1.769-.408-.26-.306-1.039-.306-1.593 0-1.73.268-2.452-.52-2.638-.262-.063-.454-.103-1.123-.11-.859-.009-1.585.003-1.997.2-.273.132-.485.425-.356.442.16.02.52.095.71.35.247.33.238 1.069.238 1.069s.142 2.037-.33 2.29c-.325.173-.77-.18-1.725-1.8-.489-.83-.858-1.748-.858-1.748s-.072-.17-.2-.263c-.153-.111-.369-.146-.369-.146l-2.285.015s-.344.009-.47.155c-.112.13-.009.4-.009.4s1.79 4.11 3.817 6.182c1.859 1.899 3.968 1.775 3.968 1.775h.957Z" fill="#fff"/></symbol><symbol fill="none" viewBox="0 0 42 42" id="wallet" xmlns="http://www.w3.org/2000/svg"><g fill="#169940" clip-path="url(#baa)"><path d="M39.244 18.9h-1.4V7.7a.7.7 0 0 0-.7-.699h-4.24l-1.392-4.41a.703.703 0 0 0-.917-.444l-5.7 2.173L22.333.324a.698.698 0 0 0-.973-.21l-10.51 6.887H4.946a4.906 4.906 0 0 0-4.9 4.9v25.2A4.906 4.906 0 0 0 4.945 42h32.199a.7.7 0 0 0 .7-.7v-8.4h1.4a2.8 2.8 0 0 0 2.8-2.8v-8.4a2.8 2.8 0 0 0-2.8-2.8Zm0 1.4a1.4 1.4 0 1 1 0 2.8h-1.4v-2.8h1.4Zm-2.8-11.899v7h-.887l-2.21-7h3.097Zm-2.354 7h-2.04l-1.942-5.822a.7.7 0 0 0-.664-.478 2.66 2.66 0 0 1-1.895-.785l-.41-.41a.7.7 0 0 0-.738-.162l-20.71 7.657h-.746a3.489 3.489 0 0 1-2.484-1.039l27.94-10.64 3.689 11.679Zm-3.516 0H9.727l16.74-6.188.092.093a4.045 4.045 0 0 0 2.37 1.162l1.645 4.933Zm-9.04-13.726 2.021 3.156L7.23 11.048l14.306-9.373ZM4.945 8.4h3.77l-7.065 4.63c-.13-.363-.2-.745-.204-1.13a3.504 3.504 0 0 1 3.5-3.5Zm31.5 32.199h-31.5a3.504 3.504 0 0 1-3.499-3.5V15.33l.02.02c.055.054.113.104.17.156.056.052.117.111.18.163.062.052.122.094.184.14.061.047.127.1.194.146.067.046.132.082.198.123.066.04.137.086.21.126.074.038.144.07.216.105.072.036.14.07.214.104.074.033.16.06.239.088.08.029.14.056.214.078.087.028.178.048.269.07.07.017.134.038.202.052.103.022.21.034.314.05.06.007.116.02.176.026.166.016.333.024.5.024h.91l.01.027.075-.027h30.504v6.3h-7.7a4.9 4.9 0 0 0 0 9.8h7.7V40.6Zm4.2-10.5a1.4 1.4 0 0 1-1.4 1.4h-10.5a3.5 3.5 0 0 1 0-7h10.5a2.793 2.793 0 0 0 .62-.075c.16-.034.314-.082.464-.144l.024-.011c.1-.042.197-.092.292-.145V30.1Z"/><path d="M15.145 18.9h2.8v1.4h-2.8v-1.4ZM9.545 18.9h2.8v1.4h-2.8v-1.4ZM31.945 18.9h2.399v1.4h-2.4v-1.4ZM26.345 18.9h2.8v1.4h-2.8v-1.4ZM4.119 18.803 3.79 20.16c.378.091.765.138 1.154.14h1.8v-1.4h-1.8c-.278-.001-.556-.034-.826-.098ZM20.745 18.9h2.8v1.4h-2.8v-1.4ZM4.119 37.002 3.79 38.36c.378.091.765.139 1.154.14h1.8v-1.4h-1.8c-.278 0-.556-.033-.826-.098ZM31.945 37.1h2.399v1.4h-2.4v-1.4ZM15.145 37.1h2.8v1.4h-2.8v-1.4ZM26.345 37.1h2.8v1.4h-2.8v-1.4ZM9.545 37.1h2.8v1.4h-2.8v-1.4ZM20.745 37.1h2.8v1.4h-2.8v-1.4ZM28.744 25.9a2.1 2.1 0 1 0 0 4.2 2.1 2.1 0 0 0 0-4.2Zm0 2.8a.7.7 0 1 1 0-1.4.7.7 0 0 1 0 1.4Z"/></g><defs><clipPath id="baa"><path fill="#fff" d="M0 0h42v42H0z"/></clipPath></defs></symbol><symbol fill="none" viewBox="0 0 30 30" id="youtybe" xmlns="http://www.w3.org/2000/svg"><path fill-rule="evenodd" clip-rule="evenodd" d="M0 15C0 6.716 6.716 0 15 0c8.284 0 15 6.716 15 15 0 8.284-6.716 15-15 15-8.284 0-15-6.716-15-15Z" fill="red"/><path fill-rule="evenodd" clip-rule="evenodd" d="M22.666 11.296a2.031 2.031 0 0 0-1.415-1.453C20.003 9.5 15 9.5 15 9.5s-5.003 0-6.251.343a2.031 2.031 0 0 0-1.415 1.453C7 12.576 7 15.25 7 15.25s0 2.673.334 3.954a2.032 2.032 0 0 0 1.415 1.453C9.997 21 15 21 15 21s5.003 0 6.251-.343a2.031 2.031 0 0 0 1.415-1.453C23 17.923 23 15.25 23 15.25s0-2.673-.334-3.954Z" fill="#fff"/><path fill-rule="evenodd" clip-rule="evenodd" d="M13.5 18v-5l4 2.5-4 2.5Z" fill="red"/></symbol></svg>