<svg width="46" height="46" viewBox="0 0 46 46" fill="none" xmlns="http://www.w3.org/2000/svg">
<g id="ph:map-pin-fill">
<path id="Vector" d="M23.0004 0.600098C18.3342 0.605391 13.8607 2.46137 10.5612 5.76087C7.26166 9.06036 5.40568 13.5339 5.40039 18.2001C5.40039 33.2601 21.4004 44.6341 22.0824 45.1101C22.3514 45.2986 22.6719 45.3997 23.0004 45.3997C23.3289 45.3997 23.6494 45.2986 23.9184 45.1101C24.6004 44.6341 40.6004 33.2601 40.6004 18.2001C40.5951 13.5339 38.7391 9.06036 35.4396 5.76087C32.1401 2.46137 27.6666 0.605391 23.0004 0.600098ZM22.9 11.8001C24.1658 11.8001 25.4032 12.1755 26.4557 12.8787C27.5081 13.5819 28.3284 14.5815 28.8128 15.7509C29.2972 16.9204 29.424 18.2072 29.177 19.4487C28.9301 20.6902 28.3205 21.8305 27.4255 22.7256C26.5304 23.6206 25.3901 24.2302 24.1486 24.4771C22.9071 24.7241 21.6203 24.5973 20.4508 24.1129C19.2814 23.6285 18.2818 22.8082 17.5786 21.7557C16.8754 20.7033 16.5 19.4659 16.5 18.2001C16.5 16.5027 17.1743 14.8748 18.3745 13.6746C19.5747 12.4744 21.2026 11.8001 22.9 11.8001Z" fill="#169940"/>
</g>
</svg>
