<svg width="42" height="42" viewBox="0 0 42 42" fill="none" xmlns="http://www.w3.org/2000/svg">
<g id="agreement 1" clip-path="url(#clip0_25_259)">
<g id="Group">
<path id="Vector" d="M19.7401 6.71709C19.3875 6.71709 19.1017 7.00288 19.1017 7.35546C19.1017 7.70811 19.3875 7.99382 19.7401 7.99382H22.6152C23.2325 7.99382 23.7347 7.49163 23.7347 6.87442V4.6622C23.7347 4.04492 23.2325 3.54272 22.6152 3.54272H9.41159C8.79431 3.54272 8.29211 4.04492 8.29211 4.6622V6.87451C8.29211 7.49171 8.79431 7.9939 9.41159 7.9939H16.7395C17.0921 7.9939 17.3779 7.70811 17.3779 7.35554C17.3779 7.00288 17.0921 6.71717 16.7395 6.71717H9.56893V4.81954H22.4578V6.71701L19.7401 6.71709Z" fill="#169940"/>
<path id="Vector_2" d="M5.43884 11.2713C5.43884 11.624 5.72464 11.9097 6.07721 11.9097H26.0848C26.4374 11.9097 26.7232 11.6239 26.7232 11.2713C26.7232 10.9186 26.4374 10.6329 26.0848 10.6329H6.07721C5.72464 10.6329 5.43884 10.9186 5.43884 11.2713Z" fill="#169940"/>
<path id="Vector_3" d="M6.07721 15.9264H26.0848C26.4374 15.9264 26.7232 15.6406 26.7232 15.288C26.7232 14.9354 26.4374 14.6497 26.0848 14.6497H6.07721C5.72464 14.6497 5.43884 14.9355 5.43884 15.288C5.43884 15.6407 5.72464 15.9264 6.07721 15.9264Z" fill="#169940"/>
<path id="Vector_4" d="M22.1384 19.3049C22.1384 18.9522 21.8526 18.6665 21.5 18.6665H6.07721C5.72464 18.6665 5.43884 18.9523 5.43884 19.3049C5.43884 19.6574 5.72464 19.9432 6.07721 19.9432H21.4999C21.8525 19.9432 22.1384 19.6574 22.1384 19.3049Z" fill="#169940"/>
<path id="Vector_5" d="M14.0512 23.96C14.4038 23.96 14.6896 23.6742 14.6896 23.3216C14.6896 22.9689 14.4038 22.6832 14.0512 22.6832H6.07721C5.72464 22.6832 5.43884 22.969 5.43884 23.3216C5.43884 23.6742 5.72464 23.96 6.07721 23.96H14.0512Z" fill="#169940"/>
<path id="Vector_6" d="M5.30749 36.3733C5.64677 36.4706 5.99975 36.2734 6.09639 35.9343C6.10049 35.9201 6.51926 34.5158 8.14955 34.5158C8.95427 34.5158 9.33621 34.832 9.8649 35.2696C10.4723 35.7725 11.2284 36.3982 12.6892 36.3982C14.5107 36.3982 15.4899 34.4724 15.5307 34.3904C15.6874 34.0756 15.5593 33.6945 15.2452 33.5367C14.931 33.3789 14.5477 33.5059 14.3887 33.8195C14.382 33.8325 13.7166 35.1214 12.6892 35.1214C11.6883 35.1214 11.2429 34.7527 10.679 34.286C10.0861 33.7952 9.41414 33.239 8.14946 33.239C6.0826 33.239 5.09946 34.7732 4.86838 35.5844C4.77183 35.9236 4.96846 36.2768 5.30749 36.3733Z" fill="#169940"/>
<path id="Vector_7" d="M41.6641 6.55495C41.601 6.39737 41.4777 6.27153 41.3215 6.20501L39.8381 5.57386C39.9626 5.25935 39.8061 4.88603 39.4982 4.75297L39.2025 4.62525L39.6823 3.51389C40.2244 2.25611 39.6248 0.748371 38.3684 0.20557C37.1128 -0.33682 35.6037 0.26291 35.0611 1.51807L34.5666 2.66282C34.0009 2.56421 33.4288 2.87503 33.2017 3.40085L31.8719 6.48022V3.2121C31.8719 1.44088 30.4309 0 28.6598 0H3.50123C1.73059 0 0.290039 1.44055 0.290039 3.2112V38.7888C0.290039 40.5594 1.73059 42 3.50123 42H28.6607C30.4314 42 31.8718 40.5594 31.8718 38.7888V29.8508C31.8718 29.4982 31.586 29.2125 31.2335 29.2125C30.8809 29.2125 30.5951 29.4983 30.5951 29.8508V38.7888C30.5951 39.8555 29.7274 40.7232 28.6608 40.7232H3.50123C2.43458 40.7232 1.56686 39.8555 1.56686 38.7888V3.2112C1.56686 2.14454 2.43466 1.27682 3.50123 1.27682H28.6598C29.7269 1.27682 30.5951 2.14495 30.5951 3.2121V9.43679L20.8099 32.0997C20.7759 32.1786 20.7569 32.2672 20.7571 32.3532L20.7645 37.7308C20.7655 38.9308 22.2494 39.577 23.1277 38.7512L27.0462 35.069C27.1003 35.0187 27.1457 34.9561 27.1787 34.8902C27.1822 34.8834 27.1856 34.8767 27.1888 34.8697C27.1909 34.8653 27.1933 34.8611 27.1951 34.8567L39.3328 6.74641L40.2319 7.12893L35.4836 18.1705C35.3443 18.4944 35.4939 18.8699 35.8179 19.0092C35.9001 19.0446 35.9856 19.0613 36.0697 19.0613C36.3171 19.0613 36.5525 18.9166 36.6565 18.6749L41.6579 7.04468C41.725 6.88866 41.7272 6.71245 41.6641 6.55495ZM37.444 1.27903C38.2907 1.32251 38.8426 2.23683 38.51 3.008L38.0303 4.11887L35.7531 3.13581L36.2332 2.02453C36.4388 1.54891 36.9244 1.25032 37.444 1.27903ZM34.3652 3.92733L38.406 5.67205L33.2717 17.5629L29.2302 15.8178L34.3652 3.92733ZM26.2761 33.7646L22.2353 32.0197L28.7241 16.9901L32.7656 18.7352L26.2761 33.7646ZM22.2532 37.8208C22.1745 37.8946 22.0413 37.838 22.0413 37.7296L22.0353 33.3241L25.4632 34.8043L22.2532 37.8208Z" fill="#169940"/>
</g>
</g>
<defs>
<clipPath id="clip0_25_259">
<rect width="42" height="42" fill="white"/>
</clipPath>
</defs>
</svg>
