<svg width="28" height="28" viewBox="0 0 28 28" fill="none" xmlns="http://www.w3.org/2000/svg">
<g id="checked 4" clip-path="url(#clip0_25_558)">
<g id="g1593">
<g id="g1595">
<g id="Clip path group">
<mask id="mask0_25_558" style="mask-type:luminance" maskUnits="userSpaceOnUse" x="-8" y="-8" width="44" height="44">
<g id="clipPath1601">
<path id="path1599" d="M-7.20178 -7.2017H35.1811V35.1812H-7.20178V-7.2017Z" fill="white"/>
</g>
</mask>
<g mask="url(#mask0_25_558)">
<g id="g1597">
<g id="g1603">
<path id="path1605 (Stroke)" fill-rule="evenodd" clip-rule="evenodd" d="M0.40979 13.9898C0.40979 21.4897 6.48974 27.5696 13.9897 27.5696C21.4896 27.5696 27.5695 21.4897 27.5695 13.9898C27.5695 7.0089 22.3027 1.25914 15.5255 0.49589C15.1848 0.457514 14.8775 0.702621 14.8391 1.04335C14.8007 1.38408 15.0458 1.6914 15.3866 1.72977C21.5428 2.4231 26.3278 7.64801 26.3278 13.9898C26.3278 20.804 20.8039 26.3279 13.9897 26.3279C7.17549 26.3279 1.65148 20.804 1.65148 13.9898C1.65148 7.65354 6.42831 2.43208 12.5768 1.73159C12.9175 1.69278 13.1622 1.38514 13.1234 1.04446C13.0846 0.703781 12.7769 0.45907 12.4363 0.497885C5.6676 1.26903 0.40979 7.01497 0.40979 13.9898Z" fill="#169940"/>
</g>
<g id="g1659">
<path id="path1661 (Stroke)" fill-rule="evenodd" clip-rule="evenodd" d="M13.0969 19.5646C12.4215 20.2399 11.3265 20.2399 10.6511 19.5646L6.22251 15.1359C5.95635 14.8698 5.95626 14.4382 6.22251 14.1719L7.95101 12.4433C7.95101 12.4433 7.95102 12.4433 7.95101 12.4433C8.21724 12.1771 8.64887 12.1771 8.91509 12.4433L11.5625 15.0908C11.805 15.3332 12.1981 15.3332 12.4405 15.0908L19.1917 8.33955C19.458 8.07333 19.8896 8.07333 20.1558 8.33955L21.7568 9.94058C22.0231 10.2068 22.0231 10.6384 21.7568 10.9046L16.6625 15.9989C16.4201 16.2413 16.4201 16.6344 16.6625 16.8769C16.905 17.1193 17.2981 17.1193 17.5405 16.8769L22.6349 11.7826C23.386 11.0314 23.386 9.81371 22.6349 9.06258L21.0338 7.46155C20.2827 6.71042 19.0649 6.71042 18.3137 7.46155L12.0015 13.7738L9.7931 11.5653C9.04196 10.8142 7.82414 10.8142 7.07301 11.5653L5.3445 13.2939C5.3445 13.2939 5.34451 13.2939 5.3445 13.2939C4.59341 14.045 4.59334 15.2628 5.3445 16.0139C5.34448 16.0139 5.34451 16.0139 5.3445 16.0139L9.77309 20.4426C10.9334 21.6028 12.8145 21.6028 13.9748 20.4426L15.5015 18.9159C15.744 18.6734 15.744 18.2803 15.5015 18.0379C15.2591 17.7954 14.866 17.7954 14.6235 18.0379L13.0969 19.5646Z" fill="#169940"/>
</g>
</g>
</g>
</g>
</g>
</g>
</g>
<defs>
<clipPath id="clip0_25_558">
<rect width="28" height="28" fill="white"/>
</clipPath>
</defs>
</svg>
