<svg width="42" height="42" viewBox="0 0 42 42" fill="none" xmlns="http://www.w3.org/2000/svg">
<g id="chronometer 1">
<g id="Group">
<path id="Vector" d="M31.6979 9.4847L33.4809 6.38314C33.5624 6.24133 33.5843 6.07296 33.5416 5.91506C33.499 5.75716 33.3954 5.62266 33.2536 5.54113L30.7325 4.09291C30.5907 4.01145 30.4223 3.98968 30.2644 4.03237C30.1065 4.07507 29.972 4.17875 29.8905 4.32059L28.1103 7.41899C26.5051 6.72661 24.807 6.2737 23.0703 6.07474V4.18948H24.3215C24.485 4.18948 24.6419 4.1245 24.7576 4.00883C24.8733 3.89316 24.9382 3.73628 24.9382 3.57269V0.665678C24.9383 0.584667 24.9224 0.504442 24.8914 0.429588C24.8604 0.354735 24.815 0.286723 24.7577 0.229439C24.7004 0.172156 24.6324 0.126725 24.5575 0.0957452C24.4827 0.0647651 24.4025 0.0488429 24.3215 0.0488893H17.6785C17.5974 0.0488429 17.5172 0.0647651 17.4424 0.0957452C17.3675 0.126725 17.2995 0.172156 17.2422 0.229439C17.1849 0.286723 17.1395 0.354735 17.1085 0.429588C17.0775 0.504442 17.0616 0.584667 17.0617 0.665678V3.57269C17.0617 3.73628 17.1267 3.89316 17.2423 4.00883C17.358 4.1245 17.5149 4.18948 17.6785 4.18948H18.9297V6.07298C17.1929 6.27194 15.4948 6.72485 13.8896 7.41723L12.1094 4.31883C12.0691 4.24856 12.0153 4.18693 11.9512 4.13745C11.887 4.08797 11.8138 4.05162 11.7356 4.03047C11.6574 4.00933 11.5758 4.0038 11.4954 4.01421C11.4151 4.02462 11.3376 4.05077 11.2674 4.09115L8.7463 5.53937C8.60451 5.6209 8.50091 5.7554 8.45828 5.9133C8.41565 6.0712 8.43748 6.23957 8.51897 6.38137L10.302 9.4847C7.25502 11.7365 4.99624 14.8923 3.84739 18.5027C2.69855 22.113 2.71823 25.9939 3.90363 29.5924C5.08902 33.191 7.37969 36.3237 10.4494 38.5445C13.519 40.7652 17.2112 41.9607 21 41.9607C24.7887 41.9607 28.4809 40.7652 31.5505 38.5445C34.6202 36.3237 36.9109 33.191 38.0963 29.5924C39.2817 25.9939 39.3014 22.113 38.1525 18.5027C37.0037 14.8923 34.7449 11.7365 31.6979 9.4847ZM30.6529 5.46676L32.1039 6.30243L30.6772 8.7858C30.2073 8.48551 29.7241 8.20684 29.2276 7.94978L30.6529 5.46676ZM18.2952 1.28247H23.7047V2.9559H18.2952V1.28247ZM20.1632 4.18948H21.8367V5.97183C21.5593 5.95879 21.2819 5.94997 21 5.94997C20.718 5.94997 20.4406 5.95843 20.1632 5.97147V4.18948ZM9.89599 6.30243L11.347 5.46888L12.7723 7.94978C12.2754 8.20637 11.7922 8.48504 11.3227 8.7858L9.89599 6.30243ZM21 40.7168C17.6839 40.7168 14.4422 39.7334 11.685 37.8911C8.92775 36.0488 6.77875 33.4302 5.50975 30.3665C4.24075 27.3028 3.90874 23.9316 4.55571 20.6792C5.20267 17.4269 6.79956 14.4394 9.14442 12.0946C11.4893 9.74974 14.4768 8.15292 17.7292 7.50602C20.9816 6.85913 24.3528 7.19121 27.4164 8.46028C30.4801 9.72934 33.0986 11.8784 34.9409 14.6357C36.7832 17.3929 37.7665 20.6346 37.7664 23.9507C37.7613 28.3958 35.9931 32.6574 32.8499 35.8006C29.7067 38.9437 25.4451 40.7118 21 40.7168Z" fill="#169940"/>
<path id="Vector_2" d="M33.1271 30.8898C34.3469 28.767 34.9856 26.3602 34.9789 23.912C34.9723 21.4637 34.3204 19.0604 33.089 16.9444C33.0808 16.9233 33.0714 16.9027 33.0608 16.8827C33.0499 16.8663 33.0381 16.8504 33.0256 16.8351C31.812 14.7936 30.1018 13.0923 28.0539 11.8895C28.0371 11.8756 28.0194 11.8628 28.001 11.8511C27.981 11.8407 27.9604 11.8315 27.9393 11.8236C25.8167 10.6037 23.4101 9.96493 20.9619 9.97155C18.5138 9.97817 16.1106 10.63 13.9946 11.8613C13.9732 11.8698 13.9523 11.8794 13.9319 11.8902C13.9157 11.9012 13.9 11.9129 13.885 11.9255C11.8432 13.139 10.1415 14.8492 8.93836 16.8971C8.90914 16.9305 8.88685 16.9693 8.87281 17.0113C7.65299 19.134 7.01424 21.5408 7.02093 23.989C7.02761 26.4372 7.67949 28.8404 8.91087 30.9564C8.91911 30.9776 8.92852 30.9983 8.93907 31.0184C8.94682 31.0318 8.95845 31.0417 8.96691 31.0537C10.1806 33.1001 11.8931 34.8055 13.9446 36.0106C13.9618 36.0246 13.9798 36.0376 13.9985 36.0497C14.014 36.0585 14.0309 36.062 14.0468 36.0698C16.1733 37.2946 18.5855 37.9359 21.0395 37.9289C23.4934 37.9219 25.902 37.2668 28.0215 36.0299C28.0366 36.0225 28.0528 36.0194 28.0676 36.0106C28.0824 36.0017 28.0987 35.9876 28.1145 35.9753C30.1609 34.7592 31.8656 33.0441 33.0693 30.9902C33.0788 30.9765 33.0908 30.9663 33.0992 30.9515C33.1099 30.9316 33.1192 30.911 33.1271 30.8898ZM27.9654 34.6159L27.1728 33.265C27.09 33.1238 26.9546 33.0213 26.7963 32.98C26.638 32.9387 26.4698 32.962 26.3286 33.0447C26.1875 33.1274 26.085 33.2628 26.0437 33.4211C26.0024 33.5794 26.0256 33.7477 26.1084 33.8888L26.9021 35.2429C25.2661 36.1029 23.4615 36.5939 21.6153 36.6816V35.1079C21.6153 34.9443 21.5503 34.7875 21.4347 34.6718C21.319 34.5561 21.1621 34.4911 20.9985 34.4911C20.8349 34.4911 20.6781 34.5561 20.5624 34.6718C20.4467 34.7875 20.3817 34.9443 20.3817 35.1079V36.6816C18.5602 36.5942 16.7791 36.114 15.1605 35.2739L15.9465 33.9159C16.0259 33.7745 16.0463 33.6075 16.0035 33.4511C15.9606 33.2947 15.8579 33.1615 15.7176 33.0803C15.5772 32.999 15.4105 32.9763 15.2536 33.0171C15.0966 33.0579 14.962 33.1588 14.8789 33.2981L14.094 34.6547C12.5944 33.6835 11.3139 32.4101 10.3344 30.9159L11.6868 30.1236C11.8272 30.0405 11.9289 29.9052 11.9698 29.7473C12.0107 29.5894 11.9873 29.4217 11.9049 29.281C11.8224 29.1403 11.6876 29.0379 11.5299 28.9963C11.3722 28.9548 11.2044 28.9773 11.0633 29.0592L9.70917 29.8529C8.84911 28.2169 8.35791 26.4123 8.27012 24.5661H9.84381C10.0074 24.5661 10.1643 24.5011 10.2799 24.3855C10.3956 24.2698 10.4606 24.1129 10.4606 23.9493C10.4606 23.7858 10.3956 23.6289 10.2799 23.5132C10.1643 23.3975 10.0074 23.3325 9.84381 23.3325H8.27012C8.35708 21.5106 8.83692 19.7291 9.67675 18.1099L11.0351 18.8955C11.1764 18.9733 11.3426 18.9926 11.4979 18.9493C11.6533 18.906 11.7855 18.8036 11.8663 18.6639C11.947 18.5243 11.9699 18.3586 11.9299 18.2024C11.89 18.0461 11.7904 17.9117 11.6526 17.828L10.2964 17.0431C11.2675 15.544 12.5407 14.264 14.0345 13.2849L14.8271 14.6372C14.9102 14.7776 15.0455 14.8794 15.2034 14.9202C15.3613 14.9611 15.5289 14.9378 15.6697 14.8553C15.8104 14.7729 15.9128 14.6381 15.9544 14.4803C15.9959 14.3226 15.9733 14.1548 15.8915 14.0137L15.0978 12.6596C16.7337 11.7995 18.5383 11.3084 20.3846 11.2209V12.7943C20.3846 12.9578 20.4495 13.1147 20.5652 13.2304C20.6809 13.3461 20.8378 13.4111 21.0013 13.4111C21.1649 13.4111 21.3218 13.3461 21.4375 13.2304C21.5532 13.1147 21.6181 12.9578 21.6181 12.7943V11.2209C23.44 11.3078 25.2216 11.7875 26.8408 12.6272L26.0534 13.9859C26.0115 14.056 25.984 14.1338 25.9725 14.2147C25.9609 14.2955 25.9656 14.3779 25.9861 14.457C26.0066 14.536 26.0427 14.6102 26.0921 14.6752C26.1416 14.7403 26.2034 14.7948 26.2741 14.8357C26.3448 14.8766 26.4229 14.9031 26.504 14.9136C26.585 14.9241 26.6673 14.9183 26.746 14.8968C26.8248 14.8752 26.8985 14.8382 26.9629 14.7879C27.0272 14.7376 27.081 14.675 27.121 14.6037L27.9059 13.2458C29.4055 14.2172 30.686 15.4908 31.6655 16.9853L30.3131 17.7776C30.2428 17.8183 30.1813 17.8725 30.132 17.9371C30.0828 18.0017 30.0468 18.0754 30.0261 18.1539C30.0054 18.2325 30.0004 18.3143 30.0114 18.3948C30.0224 18.4753 30.0492 18.5528 30.0903 18.6229C30.1313 18.693 30.1858 18.7543 30.2506 18.8032C30.3154 18.8522 30.3893 18.8879 30.4679 18.9083C30.5466 18.9286 30.6284 18.9332 30.7089 18.9219C30.7893 18.9105 30.8667 18.8833 30.9366 18.842L32.2911 18.0482C33.1508 19.6843 33.6419 21.4889 33.7298 23.335H32.1561C31.9925 23.335 31.8356 23.4 31.7199 23.5157C31.6043 23.6313 31.5393 23.7882 31.5393 23.9518C31.5393 24.1154 31.6043 24.2723 31.7199 24.3879C31.8356 24.5036 31.9925 24.5686 32.1561 24.5686H33.7298C33.6426 26.39 33.1628 28.1711 32.3231 29.7898L30.9651 29.0038C30.8235 28.9219 30.6552 28.8996 30.4971 28.9418C30.339 28.984 30.2042 29.0873 30.1222 29.2289C30.0403 29.3705 30.018 29.5389 30.0602 29.6969C30.1024 29.855 30.2057 29.9898 30.3473 30.0718L31.7035 30.8567C30.7325 32.3561 29.4594 33.6365 27.9654 34.6159Z" fill="#169940"/>
<path id="Vector_3" d="M30.3025 23.9507C30.3025 23.7871 30.2375 23.6303 30.1219 23.5146C30.0062 23.3989 29.8493 23.3339 29.6857 23.3339H23.7469C23.6292 22.8139 23.3666 22.3379 22.9896 21.9609C22.6127 21.5838 22.1367 21.3212 21.6167 21.2034V15.2649C21.6167 15.1013 21.5517 14.9445 21.4361 14.8288C21.3204 14.7131 21.1635 14.6481 20.9999 14.6481C20.8363 14.6481 20.6795 14.7131 20.5638 14.8288C20.4481 14.9445 20.3831 15.1013 20.3831 15.2649V21.2034C19.891 21.3136 19.4376 21.5539 19.07 21.8992C18.7025 22.2445 18.4345 22.6822 18.2939 23.1664C18.1533 23.6507 18.1453 24.1639 18.2707 24.6523C18.3962 25.1407 18.6504 25.5865 19.007 25.9431C19.3636 26.2997 19.8093 26.5541 20.2978 26.6796C20.7862 26.805 21.2993 26.7971 21.7836 26.6565C22.2679 26.516 22.7056 26.248 23.051 25.8805C23.3963 25.513 23.6367 25.0596 23.7469 24.5675H29.6857C29.8493 24.5674 30.0061 24.5024 30.1217 24.3868C30.2374 24.2711 30.3024 24.1143 30.3025 23.9507ZM20.9999 25.5343C20.6866 25.5344 20.3803 25.4415 20.1198 25.2675C19.8593 25.0935 19.6562 24.8461 19.5363 24.5567C19.4164 24.2672 19.385 23.9487 19.4461 23.6414C19.5072 23.3342 19.658 23.0519 19.8796 22.8304C20.1011 22.6088 20.3834 22.458 20.6906 22.3969C20.9979 22.3358 21.3164 22.3672 21.6059 22.4871C21.8953 22.607 22.1427 22.8101 22.3167 23.0706C22.4907 23.3311 22.5835 23.6374 22.5835 23.9507C22.5828 24.3705 22.4158 24.7729 22.1189 25.0697C21.8221 25.3666 21.4197 25.5336 20.9999 25.5343Z" fill="#169940"/>
</g>
</g>
</svg>
