<svg width="42" height="42" viewBox="0 0 42 42" fill="none" xmlns="http://www.w3.org/2000/svg">
<g id="contract 1">
<g id="smart_contract_1_">
<g id="Group">
<g id="Group_2">
<path id="Vector" d="M32.5354 37.9638C30.2907 37.9638 28.4641 36.1371 28.4641 33.8925C28.4641 31.6478 30.2907 29.8212 32.5354 29.8212C34.78 29.8212 36.6067 31.6478 36.6067 33.8925C36.6067 36.1371 34.78 37.9638 32.5354 37.9638ZM32.5354 31.1783C31.0385 31.1783 29.8212 32.3956 29.8212 33.8925C29.8212 35.3893 31.0385 36.6067 32.5354 36.6067C34.0322 36.6067 35.2496 35.3893 35.2496 33.8925C35.2496 32.3956 34.0322 31.1783 32.5354 31.1783Z" fill="#169940"/>
</g>
</g>
<g id="Group_3">
<g id="Group_4">
<path id="Vector_2" d="M25.7498 35.9281H20.3214C19.9469 35.9281 19.6429 35.6241 19.6429 35.2495C19.6429 34.875 19.9469 34.571 20.3214 34.571H25.7498C26.1244 34.571 26.4284 34.875 26.4284 35.2495C26.4284 35.6241 26.1244 35.9281 25.7498 35.9281Z" fill="#169940"/>
</g>
</g>
<g id="Group_5">
<g id="Group_6">
<path id="Vector_3" d="M32.5354 21H21.6786C21.304 21 21 20.696 21 20.3214C21 19.9469 21.304 19.6429 21.6786 19.6429H32.5354C32.9099 19.6429 33.2139 19.9469 33.2139 20.3214C33.2139 20.696 32.9099 21 32.5354 21Z" fill="#169940"/>
</g>
</g>
<g id="Group_7">
<g id="Group_8">
<path id="Vector_4" d="M32.5354 18.2858H18.9644C18.5898 18.2858 18.2858 17.9818 18.2858 17.6073C18.2858 17.2327 18.5898 16.9287 18.9644 16.9287H32.5354C32.9099 16.9287 33.2139 17.2327 33.2139 17.6073C33.2139 17.9818 32.9099 18.2858 32.5354 18.2858Z" fill="#169940"/>
</g>
</g>
<g id="Group_9">
<g id="Group_10">
<path id="Vector_5" d="M32.5354 15.5716H18.9644C18.5898 15.5716 18.2858 15.2676 18.2858 14.893C18.2858 14.5185 18.5898 14.2145 18.9644 14.2145H32.5354C32.9099 14.2145 33.2139 14.5185 33.2139 14.893C33.2139 15.2676 32.9099 15.5716 32.5354 15.5716Z" fill="#169940"/>
</g>
</g>
<g id="Group_11">
<g id="Group_12">
<path id="Vector_6" d="M27.107 8.78612H14.2145C13.8399 8.78612 13.5359 8.48213 13.5359 8.10757C13.5359 7.73301 13.8399 7.42902 14.2145 7.42902H27.107C27.4815 7.42902 27.7855 7.73301 27.7855 8.10757C27.7855 8.48213 27.4815 8.78612 27.107 8.78612Z" fill="#169940"/>
</g>
</g>
<g id="Group_13">
<g id="Group_14">
<g id="Group_15">
<g id="Group_16">
<path id="Vector_7" d="M11.5003 35.9281C6.26326 35.9281 2.00061 31.6655 2.00061 26.4284C2.00061 21.19 6.26326 16.9287 11.5003 16.9287C13.6961 16.9287 15.8376 17.6955 17.5313 19.0892C17.8217 19.3281 17.8624 19.7556 17.6235 20.0446C17.3861 20.335 16.9572 20.3744 16.6695 20.1369C15.2188 18.9426 13.3826 18.2858 11.5003 18.2858C7.00967 18.2858 3.35771 21.9378 3.35771 26.4284C3.35771 30.9191 7.00967 34.571 11.5003 34.571C15.991 34.571 19.6429 30.9191 19.6429 26.4284C19.6429 25.8109 19.5737 25.1948 19.438 24.5977C19.3539 24.2313 19.5818 23.8689 19.9483 23.7848C20.316 23.6952 20.6784 23.9286 20.7612 24.2951C20.9186 24.9899 21 25.7091 21 26.4284C21 31.6655 16.7374 35.9281 11.5003 35.9281Z" fill="#169940"/>
</g>
</g>
</g>
<g id="Group_17">
<g id="Group_18">
<g id="Group_19">
<path id="Vector_8" d="M11.5002 30.4997C11.4948 30.4997 11.4894 30.4997 11.484 30.4997C11.2872 30.4943 11.104 30.4061 10.9778 30.2554L7.58501 26.1841C7.34616 25.8951 7.38551 25.4676 7.67186 25.2274C7.96093 24.9885 8.38705 25.0279 8.62862 25.3142L11.5233 28.7898L18.4635 21.2199C18.7187 20.943 19.1475 20.9267 19.4216 21.1778C19.6971 21.4316 19.7161 21.8604 19.4623 22.1372L11.9997 30.2798C11.8707 30.4196 11.6916 30.4997 11.5002 30.4997Z" fill="#169940"/>
</g>
</g>
</g>
</g>
<g id="Group_20">
<path id="Vector_9" d="M8.10757 15.5716C7.73301 15.5716 7.42902 15.2676 7.42902 14.893V1.32204C7.42902 0.947484 7.73301 0.643494 8.10757 0.643494H29.8212C30.1957 0.643494 30.4997 0.947484 30.4997 1.32204C30.4997 1.6966 30.1957 2.00059 29.8212 2.00059H8.78612V14.893C8.78612 15.2676 8.48213 15.5716 8.10757 15.5716Z" fill="#169940"/>
</g>
<g id="Group_21">
<path id="Vector_10" d="M39.3209 41.3565H8.10757C7.73301 41.3565 7.42902 41.0525 7.42902 40.6779V37.9637C7.42902 37.5892 7.73301 37.2852 8.10757 37.2852C8.48213 37.2852 8.78612 37.5892 8.78612 37.9637V39.9994H38.6423V10.8217C38.6423 10.4472 38.9463 10.1432 39.3209 10.1432C39.6954 10.1432 39.9994 10.4472 39.9994 10.8217V40.6779C39.9994 41.0525 39.6954 41.3565 39.3209 41.3565Z" fill="#169940"/>
</g>
<g id="Group_22">
<g id="Group_23">
<g id="Group_24">
<g id="Group_25">
<g id="Group_26">
<path id="Vector_11" d="M39.3209 11.5003H29.8212C29.4466 11.5003 29.1426 11.1963 29.1426 10.8218V4.71481C29.1426 4.34025 29.4466 4.03626 29.8212 4.03626C30.1957 4.03626 30.4997 4.34025 30.4997 4.71481V10.1432H37.6829L29.3421 1.80248C29.0775 1.53784 29.0775 1.10764 29.3421 0.843007C29.6068 0.578373 30.037 0.578373 30.3016 0.843007L39.8013 10.3427C39.9954 10.5368 40.0537 10.8286 39.9479 11.0823C39.842 11.3361 39.595 11.5003 39.3209 11.5003Z" fill="#169940"/>
</g>
</g>
</g>
</g>
</g>
</g>
</g>
</svg>
