<svg width="16" height="16" viewBox="0 0 16 16" fill="none" xmlns="http://www.w3.org/2000/svg">
<g id="iconamoon:search-bold" clip-path="url(#clip0_25_74)">
<path id="Vector" d="M14.5454 14.5454L11.3869 11.3869M11.3869 11.3869C11.9271 10.8466 12.3557 10.2052 12.6481 9.4993C12.9405 8.79339 13.091 8.0368 13.091 7.27272C13.091 6.50865 12.9405 5.75206 12.6481 5.04614C12.3557 4.34023 11.9271 3.69882 11.3869 3.15854C10.8466 2.61826 10.2052 2.18968 9.49926 1.89729C8.79334 1.60489 8.03675 1.45439 7.27268 1.45439C6.5086 1.45439 5.75201 1.60489 5.0461 1.89729C4.34019 2.18968 3.69878 2.61826 3.1585 3.15854C2.06735 4.24969 1.45435 5.72961 1.45435 7.27272C1.45435 8.81584 2.06735 10.2958 3.1585 11.3869C4.24964 12.4781 5.72956 13.0911 7.27268 13.0911C8.81579 13.0911 10.2957 12.4781 11.3869 11.3869Z" stroke="#169940" stroke-width="2" stroke-linecap="round" stroke-linejoin="round"/>
</g>
<defs>
<clipPath id="clip0_25_74">
<rect width="16" height="16" fill="white"/>
</clipPath>
</defs>
</svg>
