<svg width="42" height="42" viewBox="0 0 42 42" fill="none" xmlns="http://www.w3.org/2000/svg">
<g id="log-in 1" clip-path="url(#clip0_25_754)">
<g id="g147">
<g id="g149">
<g id="Clip path group">
<mask id="mask0_25_754" style="mask-type:luminance" maskUnits="userSpaceOnUse" x="0" y="0" width="42" height="42">
<g id="clipPath155">
<path id="path153" d="M0 3.8147e-06H42V42H0V3.8147e-06Z" fill="white"/>
</g>
</mask>
<g mask="url(#mask0_25_754)">
<g id="g151">
<g id="g157">
<path id="path159" d="M13.3711 6.29664H2.25586C1.34974 6.29664 0.615234 7.03115 0.615234 7.93727V39.7441C0.615234 40.6503 1.34974 41.3848 2.25586 41.3848H39.7441C40.6503 41.3848 41.3848 40.6503 41.3848 39.7441V7.93727C41.3848 7.03115 40.6503 6.29664 39.7441 6.29664H28.6632" stroke="#169940" stroke-width="1.3" stroke-miterlimit="10" stroke-linecap="round" stroke-linejoin="round"/>
</g>
<g id="g161">
<path id="path163" d="M27.716 13.125H41.3847V7.93726C41.3847 7.03115 40.6502 6.29664 39.7441 6.29664" stroke="#169940" stroke-width="1.3" stroke-miterlimit="10" stroke-linecap="round" stroke-linejoin="round"/>
</g>
<g id="g165">
<path id="path167" d="M0.738281 13.125H14.7003" stroke="#169940" stroke-width="1.3" stroke-miterlimit="10" stroke-linecap="round" stroke-linejoin="round"/>
</g>
<g id="g169">
<path id="path171" d="M34.0565 36.1749H7.94346C6.33065 36.1749 5.02332 34.8675 5.02332 33.2548C5.02332 31.642 6.33065 30.3346 7.94346 30.3346H34.0565C35.6694 30.3346 36.9767 31.642 36.9767 33.2548C36.9767 34.8675 35.6694 36.1749 34.0565 36.1749Z" stroke="#169940" stroke-width="1.3" stroke-miterlimit="10" stroke-linecap="round" stroke-linejoin="round"/>
</g>
<g id="g173">
<path id="path175" d="M9.93813 33.87C10.7299 33.87 10.7312 32.6395 9.93813 32.6395C9.14644 32.6395 9.14513 33.87 9.93813 33.87Z" fill="#169940"/>
</g>
<g id="g177">
<path id="path179" d="M13.0987 33.87C13.8904 33.87 13.8917 32.6395 13.0987 32.6395C12.3069 32.6395 12.3056 33.87 13.0987 33.87Z" fill="#169940"/>
</g>
<g id="g181">
<path id="path183" d="M16.2592 33.87C17.051 33.87 17.0522 32.6395 16.2592 32.6395C15.4675 32.6395 15.4662 33.87 16.2592 33.87Z" fill="#169940"/>
</g>
<g id="g185">
<path id="path187" d="M19.4198 33.87C20.2115 33.87 20.2128 32.6395 19.4198 32.6395C18.628 32.6395 18.6267 33.87 19.4198 33.87Z" fill="#169940"/>
</g>
<g id="g189">
<path id="path191" d="M22.5803 33.87C23.372 33.87 23.3734 32.6395 22.5803 32.6395C21.7885 32.6395 21.7872 33.87 22.5803 33.87Z" fill="#169940"/>
</g>
<g id="g193">
<path id="path195" d="M25.7408 33.87C26.5325 33.87 26.5338 32.6395 25.7408 32.6395C24.949 32.6395 24.9478 33.87 25.7408 33.87Z" fill="#169940"/>
</g>
<g id="g197">
<path id="path199" d="M28.9013 33.87C29.6931 33.87 29.6944 32.6395 28.9013 32.6395C28.1096 32.6395 28.1083 33.87 28.9013 33.87Z" fill="#169940"/>
</g>
<g id="g201">
<path id="path203" d="M32.0618 33.87C32.8535 33.87 32.8548 32.6395 32.0618 32.6395C31.2701 32.6395 31.2688 33.87 32.0618 33.87Z" fill="#169940"/>
</g>
<g id="g205">
<path id="path207" d="M31.9346 26.891H34.0566C35.6694 26.891 36.9767 25.5836 36.9767 23.9708C36.9767 22.3581 35.6694 21.0507 34.0566 21.0507H7.94346C6.33065 21.0507 5.02332 22.3581 5.02332 23.9708C5.02332 25.5836 6.33065 26.891 7.94346 26.891H28.6533" stroke="#169940" stroke-width="1.3" stroke-miterlimit="10" stroke-linecap="round" stroke-linejoin="round"/>
</g>
<g id="g209">
<path id="path211" d="M15.0432 3.35763C13.8687 4.72846 13.1591 6.50944 13.1591 8.45628C13.1591 12.7867 16.6696 16.2972 21 16.2972C25.3304 16.2972 28.841 12.7867 28.841 8.45628C28.841 4.12585 25.3304 0.615327 21 0.615327C19.7248 0.615327 18.5208 0.919992 17.4564 1.46017" stroke="#169940" stroke-width="1.3" stroke-miterlimit="10" stroke-linecap="round" stroke-linejoin="round"/>
</g>
<g id="g213">
<path id="path215" d="M23.0369 12.5154H18.9631C18.51 12.5154 18.1428 12.148 18.1428 11.6951V8.52005C18.1428 8.06699 18.51 7.69974 18.9631 7.69974H23.0369C23.49 7.69974 23.8572 8.06699 23.8572 8.52005V11.6951C23.8572 12.148 23.49 12.5154 23.0369 12.5154Z" stroke="#169940" stroke-width="1.3" stroke-miterlimit="10" stroke-linecap="round" stroke-linejoin="round"/>
</g>
<g id="g217">
<path id="path219" d="M22.5726 7.69983H19.4273V5.64158C19.4273 4.77304 20.1315 4.06896 21 4.06896C21.8686 4.06896 22.5726 4.77304 22.5726 5.64158V7.69983Z" stroke="#169940" stroke-width="1.3" stroke-miterlimit="10" stroke-linecap="round" stroke-linejoin="round"/>
</g>
<g id="g221">
<path id="path223" d="M9.93811 23.9708H32.0619" stroke="#169940" stroke-width="1.3" stroke-miterlimit="10" stroke-linecap="round" stroke-linejoin="round"/>
</g>
<g id="g225">
<path id="path227" d="M21 10.7229C21.7918 10.7229 21.7931 9.49243 21 9.49243C20.2083 9.49243 20.2069 10.7229 21 10.7229Z" fill="#169940"/>
</g>
</g>
</g>
</g>
</g>
</g>
</g>
<defs>
<clipPath id="clip0_25_754">
<rect width="42" height="42" fill="white"/>
</clipPath>
</defs>
</svg>
