<svg width="170" height="38" viewBox="0 0 170 38" fill="none" xmlns="http://www.w3.org/2000/svg">
<g id="logo 1" clip-path="url(#clip0_25_7)">
<g id="Clip path group">
<mask id="mask0_25_7" style="mask-type:luminance" maskUnits="userSpaceOnUse" x="0" y="0" width="170" height="26">
<g id="clip0">
<path id="Vector" d="M170 0H0V25.7419H170V0Z" fill="white"/>
</g>
</mask>
<g mask="url(#mask0_25_7)">
<g id="Group">
<path id="Vector_2" fill-rule="evenodd" clip-rule="evenodd" d="M31.6085 20.5231V7.61888C31.5704 7.31623 31.5969 7.0088 31.6864 6.71734C31.7758 6.42588 31.9261 6.15711 32.1271 5.92907C32.5931 5.51482 33.2031 5.30423 33.823 5.34366H40.9809C41.7756 5.34366 43.0391 5.34366 43.9694 6.25292C45.0028 7.24938 45.1098 8.95995 45.1098 10.2429C45.1098 11.5259 44.9781 13.4316 43.7966 14.3949C43.1303 14.8875 42.3215 15.1457 41.4958 15.1297H34.4445V20.5272L31.6085 20.5231ZM39.8409 12.8669C40.4624 12.8669 41.1953 12.8669 41.6892 12.3023C42.183 11.7376 42.183 10.8076 42.183 10.2263C42.183 9.55369 42.1172 8.64026 41.648 8.15035C41.1788 7.66043 40.3595 7.62722 39.8862 7.62722H35.313C35.1942 7.60932 35.0729 7.6179 34.9577 7.65234C34.8426 7.68675 34.7362 7.7462 34.6462 7.82649C34.5668 7.92558 34.5086 8.04019 34.4753 8.1631C34.442 8.28605 34.4343 8.41455 34.4528 8.54065V12.8752L39.8409 12.8669Z" fill="#0066B1"/>
<path id="Vector_3" fill-rule="evenodd" clip-rule="evenodd" d="M49.7159 20.523L51.5435 17.1641L45.1138 5.34775H48.2546L53.0045 14.5401L57.582 5.34775H60.6771L52.7905 20.523H49.7159Z" fill="#0066B1"/>
<path id="Vector_4" fill-rule="evenodd" clip-rule="evenodd" d="M67.0079 20.523C65.5675 20.523 63.6123 20.3279 62.2168 18.7418C60.8212 17.1558 60.6896 14.8183 60.6896 13.1492C60.6896 10.9819 60.883 8.74818 62.1509 7.25347C63.6575 5.47646 65.9996 5.34775 67.0902 5.34775H73.1287V7.62301H68.424C66.7486 7.62301 65.3285 7.73509 64.4684 9.03465C64.0197 9.70725 63.645 10.8573 63.645 13.1118C63.645 15.3663 64.0565 16.3213 64.3529 16.7987C65.127 17.9903 66.5015 18.2519 68.2839 18.2519H73.3798V20.5272L67.0079 20.523Z" fill="#0066B1"/>
<path id="Vector_5" fill-rule="evenodd" clip-rule="evenodd" d="M75.2733 5.34775H78.1217V20.523H75.2858L75.2733 5.34775ZM86.0866 20.523L79.9125 14.7103C79.0274 13.8799 78.8792 13.1492 78.8792 12.7589C78.8949 12.4319 78.9761 12.1115 79.1174 11.8169C79.2588 11.5223 79.4578 11.2594 79.7025 11.0442L85.3994 5.36434H88.9023L82.4108 11.5923C81.917 12.0656 81.6166 12.4226 81.6166 12.7631C81.6166 13.2406 82.1516 13.7596 82.5837 14.1498L89.6966 20.548L86.0866 20.523Z" fill="#0066B1"/>
<path id="Vector_6" fill-rule="evenodd" clip-rule="evenodd" d="M94.4263 6.60162C94.7267 5.90827 95.1382 5.17336 96.7272 5.17336C98.3161 5.17336 98.7236 5.90827 99.028 6.60162L104.832 20.523H101.823L97.0563 8.41185C96.9904 8.21675 96.9287 7.99667 96.7147 7.99667C96.5006 7.99667 96.4142 8.25826 96.3484 8.41185L91.5981 20.5313H88.5894L94.4263 6.60162Z" fill="#0066B1"/>
<path id="Vector_7" fill-rule="evenodd" clip-rule="evenodd" d="M116.954 20.5231L117.041 8.98899C117.041 8.7482 117.02 8.49491 116.827 8.49491C116.633 8.49491 116.481 8.83953 116.267 9.18831L110.093 19.2692C109.681 19.9418 109.232 20.6974 107.705 20.6974C105.536 20.6974 105.49 18.9661 105.49 18.0983V5.35194H108.327L108.261 16.6701C108.261 17.0147 108.261 17.3635 108.52 17.3635C108.693 17.3635 108.8 17.1019 108.932 16.886L114.995 6.86737C115.818 5.52629 116.477 5.17755 117.51 5.17755C119.766 5.17755 119.811 7.14971 119.811 7.90951V20.5272L116.954 20.5231Z" fill="#0066B1"/>
<path id="Vector_8" fill-rule="evenodd" clip-rule="evenodd" d="M133.889 18.8747C133.374 20.2407 132.987 20.6933 131.74 20.6933C130.579 20.6933 130.126 20.3071 129.591 18.8747L125.742 8.74817C125.676 8.57795 125.508 8.24997 125.376 8.24997C125.141 8.24997 125.141 8.64022 125.141 8.70666L125.207 20.523H122.371V7.16631C122.371 5.19411 124.368 5.17336 124.8 5.17336C125.894 5.17336 126.796 5.43077 127.442 7.12476L131.332 17.2472C131.46 17.5752 131.612 17.8118 131.744 17.8118C131.876 17.8118 132.024 17.5752 132.155 17.2472L136.045 7.12476C136.687 5.43077 137.593 5.17336 138.688 5.17336C140.087 5.17336 141.117 5.77956 141.117 7.16631V20.523H138.28L138.367 8.70666C138.367 8.29148 138.198 8.24997 138.111 8.24997C137.963 8.24997 137.811 8.57378 137.745 8.74817L133.889 18.8747Z" fill="#0066B1"/>
<path id="Vector_9" fill-rule="evenodd" clip-rule="evenodd" d="M147.431 6.88397C147.966 5.60517 148.551 5.17336 149.9 5.17336C151.189 5.17336 151.835 5.58858 152.37 6.88397L158.042 20.523H155.054L153.506 16.6867H146.262L144.739 20.523H141.751L147.431 6.88397ZM147.019 14.6481H152.782L150.312 8.47C150.225 8.24997 150.073 7.83891 149.9 7.83891C149.728 7.83891 149.559 8.25409 149.489 8.47L147.019 14.6481Z" fill="#0066B1"/>
<path id="Vector_10" fill-rule="evenodd" clip-rule="evenodd" d="M161.335 20.523V7.62301H155.466V5.34775H170.062V7.62301H164.172V20.523H161.335Z" fill="#0066B1"/>
<path id="Vector_11" fill-rule="evenodd" clip-rule="evenodd" d="M10.5745 13.9132C10.484 13.8385 10.3811 13.7388 10.2576 13.6268C9.54548 12.9624 7.83312 11.4802 5.81206 11.4802C5.26346 11.5032 4.71934 11.5896 4.19028 11.7376C3.59352 11.9241 3.01262 12.1588 2.4532 12.4393C2.92552 11.8718 3.44017 11.3416 3.99266 10.8533C5.00753 10.0108 6.26505 9.52149 7.57792 9.4582C7.08121 7.689 7.20093 5.8015 7.91703 4.11058C8.63313 2.41961 9.90236 1.02742 11.513 0.166203C11.4106 0.110216 11.2961 0.0802844 11.1796 0.07901H2.8854C2.12321 0.0855166 1.39409 0.393813 0.855124 0.937455C0.316156 1.4811 0.0104921 2.21656 0.00404167 2.98536V23.3007C0.00512228 23.4942 0.0818121 23.6794 0.21744 23.8162C0.353068 23.953 0.536695 24.0304 0.7285 24.0314H11.1961C11.3882 24.0314 11.5724 23.9545 11.7083 23.8175C11.8442 23.6804 11.9205 23.4945 11.9205 23.3007V14.9014C11.4574 14.6021 11.0146 14.272 10.5951 13.9132" fill="#0066B1"/>
<path id="Vector_12" fill-rule="evenodd" clip-rule="evenodd" d="M12.7438 11.4552C14.3079 12.5929 15.5798 13.1783 16.6542 13.2738C17.1759 13.3102 17.6999 13.2935 18.2183 13.224C18.449 13.1942 18.6764 13.1428 18.8975 13.0703C19.0977 13.0084 19.2943 12.9349 19.4862 12.8503C19.6764 12.7559 19.8619 12.652 20.0418 12.5389C20.1725 12.4559 20.2976 12.3643 20.4164 12.2649C20.4823 12.2109 20.7416 11.9742 20.828 11.8829C20.9636 11.7304 21.0913 11.571 21.2108 11.4054C22.0623 10.2023 22.5107 8.75646 22.491 7.27839C22.491 5.34754 21.7305 3.49572 20.3769 2.13038C19.0233 0.765038 17.1875 -0.0019989 15.2732 -0.0019989C13.3589 -0.0019989 11.5231 0.765038 10.1694 2.13038C8.81585 3.49572 8.05542 5.34754 8.05542 7.27839C8.05513 8.02233 8.16896 8.76182 8.39291 9.47062C9.67304 9.59933 11.1796 10.301 12.7438 11.4552Z" fill="#E31F13"/>
<path id="Vector_13" fill-rule="evenodd" clip-rule="evenodd" d="M7.93601 10.1516C6.47643 10.2058 5.05671 10.6468 3.81981 11.4304H3.79511C3.76218 11.4304 3.77452 11.4677 3.81568 11.4511C4.57171 11.1535 5.37511 10.9974 6.18663 10.9903C8.82514 10.9903 10.3893 12.8212 11.0149 13.3527C12.3046 14.4882 13.9764 15.0825 15.6869 15.0135C16.7877 14.9792 17.8587 14.6449 18.7864 14.0461C19.3271 13.6898 19.8186 13.2625 20.2476 12.7756C20.2682 12.7216 20.33 12.6552 20.2476 12.7756C19.5339 13.3427 18.6797 13.7017 17.7779 13.8136C17.2724 13.8898 16.7596 13.9037 16.2508 13.8551C14.9295 13.7513 14.0116 13.3527 12.3404 12.0158C10.5416 10.6623 9.0186 10.1474 7.98544 10.1474L7.93601 10.1516Z" fill="#0066B1"/>
<path id="Vector_14" fill-rule="evenodd" clip-rule="evenodd" d="M24.3516 0.348787V22.848C24.3494 23.6476 24.0333 24.4136 23.4724 24.9785C22.9116 25.5435 22.1517 25.8613 21.3591 25.8624H0.119355C0.0516703 25.8624 -0.0132463 25.8353 -0.0611067 25.787C-0.108967 25.7387 -0.135849 25.6732 -0.135849 25.605V25.58C-0.135849 25.5118 -0.108967 25.4463 -0.0611067 25.398C-0.0132463 25.3498 0.0516703 25.3226 0.119355 25.3226H21.3591C22.0141 25.3226 22.6423 25.0601 23.1054 24.593C23.5686 24.1258 23.8288 23.4922 23.8288 22.8315V0.348787C23.8288 0.280515 23.8557 0.215036 23.9035 0.16676C23.9514 0.118484 24.0163 0.0913696 24.084 0.0913696H24.1087C24.1761 0.0924398 24.2403 0.119899 24.288 0.167945C24.3356 0.21599 24.3629 0.280849 24.3639 0.348787" fill="#0066B1"/>
</g>
</g>
</g>
<path id="Vector_15" d="M4.0861 30.5805H4.18156C4.66737 30.5805 5.10836 30.6917 5.50453 30.9141C5.9036 31.1336 6.21304 31.4437 6.43282 31.8446C6.65548 32.2455 6.76681 32.6961 6.76681 33.1965C6.76681 33.694 6.65548 34.1417 6.43282 34.5396C6.21304 34.9347 5.90651 35.2419 5.51321 35.4614C5.12281 35.6809 4.68473 35.7921 4.19888 35.795H4.0861V36.6289H3.03205V35.795H2.92795C2.43923 35.795 1.99534 35.6853 1.59627 35.4658C1.1972 35.2434 0.887783 34.9347 0.668007 34.5396C0.451122 34.1446 0.342678 33.6998 0.342678 33.2053C0.342678 32.7049 0.452567 32.2543 0.672344 31.8534C0.89212 31.4525 1.2001 31.1409 1.59627 30.9185C1.99245 30.6932 2.43634 30.5805 2.92795 30.5805H3.03205V29.7114H4.0861V30.5805ZM2.92795 31.4716C2.44212 31.4716 2.06185 31.6252 1.78713 31.9324C1.5153 32.2397 1.37939 32.664 1.37939 33.2053C1.37939 33.732 1.5153 34.1475 1.78713 34.4519C2.05896 34.7533 2.44357 34.904 2.94096 34.904H3.03205V31.4716H2.92795ZM4.0861 31.4716V34.904H4.19024C4.67605 34.904 5.0534 34.7503 5.32237 34.4431C5.59417 34.1359 5.73009 33.7203 5.73009 33.1965C5.73009 32.661 5.59417 32.2397 5.32237 31.9324C5.0534 31.6252 4.67169 31.4716 4.17719 31.4716H4.0861Z" fill="#222222"/>
<path id="Vector_16" d="M11.8567 33.5126H9.26274V35.479H12.2948V36.3656H8.16529V29.9748H12.2644V30.8702H9.26274V32.6347H11.8567V33.5126Z" fill="#222222"/>
<path id="Vector_17" d="M19.4407 37.937H18.3997V36.3656H14.2398V37.937H13.1814L13.1467 35.479H13.6542C13.9058 35.2332 14.1068 34.8762 14.2571 34.408C14.4075 33.9369 14.5044 33.4043 14.5478 32.8103L14.7126 29.9748H18.6946V35.479H19.4971L19.4407 37.937ZM14.8948 35.479H17.6015V30.8702H15.758L15.6539 32.6698C15.5758 33.8725 15.3228 34.8089 14.8948 35.479Z" fill="#222222"/>
<path id="Vector_18" d="M24.4568 33.5126H21.8629V35.479H24.8949V36.3656H20.7654V29.9748H24.8646V30.8702H21.8629V32.6347H24.4568V33.5126Z" fill="#222222"/>
<path id="Vector_19" d="M27.3301 33.991V36.3656H26.2327V29.9748H28.6488C29.3544 29.9748 29.9139 30.1606 30.3275 30.5322C30.7439 30.9038 30.9521 31.3955 30.9521 32.007C30.9521 32.6333 30.7482 33.1204 30.3405 33.4687C29.9356 33.8169 29.3674 33.991 28.6358 33.991H27.3301ZM27.3301 33.1H28.6488C29.0391 33.1 29.337 33.0078 29.5423 32.8235C29.7477 32.6362 29.8503 32.367 29.8503 32.0158C29.8503 31.6705 29.7462 31.3955 29.538 31.1906C29.3298 30.9829 29.0435 30.8761 28.6791 30.8702H27.3301V33.1Z" fill="#222222"/>
<path id="Vector_20" d="M35.1224 34.8776H32.6759L32.164 36.3656H31.0232L33.409 29.9748H34.3936L36.7837 36.3656H35.6385L35.1224 34.8776ZM32.9839 33.9822H34.8144L33.8991 31.3311L32.9839 33.9822Z" fill="#222222"/>
<path id="Vector_21" d="M42.9926 29.9748V36.3656H41.8995V30.8702H39.965L39.8522 33.3414C39.8088 34.1139 39.7148 34.7138 39.5702 35.141C39.4285 35.5653 39.2218 35.8755 38.9499 36.0715C38.6781 36.2676 38.3138 36.3656 37.8569 36.3656H37.5792V35.479L37.7528 35.4658C38.0043 35.4424 38.1981 35.3531 38.334 35.1981C38.4728 35.0429 38.5769 34.8089 38.6463 34.4957C38.7186 34.1797 38.7692 33.7159 38.7981 33.1044L38.9196 29.9748H42.9926Z" fill="#222222"/>
<path id="Vector_22" d="M45.8398 32.4196H47.1324C47.5952 32.4196 47.9985 32.5001 48.343 32.661C48.687 32.822 48.9487 33.0502 49.128 33.3458C49.3073 33.6413 49.3969 33.9837 49.3969 34.3728C49.3969 34.9698 49.1958 35.4497 48.794 35.8125C48.3947 36.1754 47.8495 36.3597 47.1586 36.3656H44.7427V29.9748H45.8398V32.4196ZM45.8398 33.3106V35.479H47.1284C47.4982 35.479 47.7861 35.378 47.9913 35.1761C48.1996 34.9713 48.3038 34.7006 48.3038 34.3641C48.3038 34.0422 48.2025 33.7876 48.0002 33.6003C47.7979 33.4131 47.5172 33.3165 47.1586 33.3106H45.8398Z" fill="#222222"/>
<path id="Vector_23" d="M55.8052 36.3656H54.7121V33.5257H51.8884V36.3656H50.7908V29.9748H51.8884V32.6347H54.7121V29.9748H55.8052V36.3656Z" fill="#222222"/>
<path id="Vector_24" d="M58.6787 32.4196H59.9712C60.434 32.4196 60.8374 32.5001 61.1814 32.661C61.5255 32.822 61.7875 33.0502 61.9668 33.3458C62.1461 33.6413 62.2357 33.9837 62.2357 34.3728C62.2357 34.9698 62.0347 35.4497 61.6325 35.8125C61.2335 36.1754 60.6884 36.3597 59.9975 36.3656H57.5811V29.9748H58.6787V32.4196ZM63.9535 36.3656H62.86V29.9748H63.9535V36.3656ZM58.6787 33.3106V35.479H59.9668C60.3371 35.479 60.625 35.378 60.8301 35.1761C61.0385 34.9713 61.1427 34.7006 61.1427 34.3641C61.1427 34.0422 61.0413 33.7876 60.839 33.6003C60.6363 33.4131 60.3561 33.3165 59.9975 33.3106H58.6787Z" fill="#222222"/>
<path id="Vector_25" d="M69.6116 29.9748H70.7087V36.3656H69.6116V31.8139L66.8395 36.3656H65.7424V29.9748H66.8395V34.5309L69.6116 29.9748ZM69.6463 28.3464C69.6463 28.7151 69.5187 29.0135 69.2643 29.2418C69.0099 29.47 68.6703 29.5842 68.2451 29.5842C67.8199 29.5842 67.4803 29.47 67.2255 29.2418C66.9711 29.0135 66.8439 28.7151 66.8439 28.3464H67.6334C67.6334 28.5395 67.6871 28.6902 67.7941 28.7985C67.9039 28.9038 68.0541 28.9565 68.2451 28.9565C68.4357 28.9565 68.5847 28.9038 68.6917 28.7985C68.7987 28.6902 68.8524 28.5395 68.8524 28.3464H69.6463Z" fill="#222222"/>
<path id="Vector_26" d="M78.9931 29.9748H80.0906V36.3656H78.9931V31.8139L76.2214 36.3656H75.1239V29.9748H76.2214V34.5309L78.9931 29.9748Z" fill="#222222"/>
<path id="Vector_27" d="M86.8631 36.3656H85.77V33.5257H82.9463V36.3656H81.8487V29.9748H82.9463V32.6347H85.77V29.9748H86.8631V36.3656Z" fill="#222222"/>
<path id="Vector_28" d="M93.0421 30.8702H91.0728V36.3656H89.9837V30.8702H88.0317V29.9748H93.0421V30.8702Z" fill="#222222"/>
<path id="Vector_29" d="M98.0105 33.5126H95.4164V35.479H98.4486V36.3656H94.3189V29.9748H98.4179V30.8702H95.4164V32.6347H98.0105V33.5126Z" fill="#222222"/>
<path id="Vector_30" d="M100.883 33.991V36.3656H99.7864V29.9748H102.202C102.908 29.9748 103.467 30.1606 103.881 30.5322C104.297 30.9038 104.506 31.3955 104.506 32.007C104.506 32.6333 104.302 33.1204 103.894 33.4687C103.489 33.8169 102.921 33.991 102.189 33.991H100.883ZM100.883 33.1H102.202C102.593 33.1 102.89 33.0078 103.096 32.8235C103.301 32.6362 103.404 32.367 103.404 32.0158C103.404 31.6705 103.3 31.3955 103.091 31.1906C102.884 30.9829 102.597 30.8761 102.233 30.8702H100.883V33.1Z" fill="#222222"/>
<path id="Vector_31" d="M110.927 36.3656H109.834V33.5257H107.01V36.3656H105.913V29.9748H107.01V32.6347H109.834V29.9748H110.927V36.3656Z" fill="#222222"/>
<path id="Vector_32" d="M116.364 33.5126H113.77V35.479H116.802V36.3656H112.672V29.9748H116.772V30.8702H113.77V32.6347H116.364V33.5126Z" fill="#222222"/>
<path id="Vector_33" d="M122.79 30.8702H120.821V36.3656H119.732V30.8702H117.78V29.9748H122.79V30.8702Z" fill="#222222"/>
<path id="Vector_34" d="M124.83 34.0788H122.553V33.2185H124.83V34.0788Z" fill="#222222"/>
<path id="Vector_35" d="M127.669 29.9748L129.491 34.8733L131.308 29.9748H132.727V36.3656H131.634V34.2588L131.742 31.4408L129.877 36.3656H129.092L127.231 31.4452L127.339 34.2588V36.3656H126.246V29.9748H127.669Z" fill="#222222"/>
<path id="Vector_36" d="M138.086 34.8776H135.639L135.127 36.3656H133.986L136.372 29.9748H137.357L139.747 36.3656H138.602L138.086 34.8776ZM135.947 33.9822H137.778L136.862 31.3311L135.947 33.9822Z" fill="#222222"/>
<path id="Vector_37" d="M144.949 30.8702H142.034V36.3656H140.941V29.9748H144.949V30.8702Z" fill="#222222"/>
<path id="Vector_38" d="M148.951 34.8776H146.504L145.992 36.3656H144.851L147.237 29.9748H148.222L150.612 36.3656H149.467L148.951 34.8776ZM146.812 33.9822H148.643L147.727 31.3311L146.812 33.9822Z" fill="#222222"/>
<path id="Vector_39" d="M154.934 31.7173C154.934 31.4306 154.827 31.2023 154.613 31.0326C154.399 30.8629 154.108 30.778 153.741 30.778C153.426 30.778 153.163 30.8629 152.952 31.0326C152.74 31.1994 152.635 31.416 152.635 31.6822H151.542C151.542 31.334 151.637 31.0239 151.828 30.7517C152.019 30.4796 152.284 30.2689 152.622 30.1197C152.96 29.9675 153.334 29.8914 153.741 29.8914C154.464 29.8914 155.025 30.0509 155.424 30.3699C155.826 30.6888 156.027 31.135 156.027 31.7086C156.027 31.9983 155.94 32.2645 155.767 32.5074C155.593 32.7503 155.351 32.942 155.038 33.0824C155.391 33.2053 155.66 33.3926 155.845 33.6442C156.033 33.893 156.127 34.2032 156.127 34.5748C156.127 35.1483 155.91 35.6048 155.476 35.9442C155.042 36.2807 154.464 36.449 153.741 36.449C153.296 36.449 152.892 36.3685 152.531 36.2076C152.172 36.0466 151.902 35.8272 151.72 35.5492C151.54 35.2712 151.451 34.9522 151.451 34.5923H152.544C152.544 34.8674 152.657 35.1 152.882 35.2902C153.108 35.4775 153.394 35.5712 153.741 35.5712C154.129 35.5712 154.44 35.479 154.674 35.2946C154.911 35.1102 155.029 34.8703 155.029 34.5748C155.029 34.2148 154.925 33.9544 154.717 33.7935C154.512 33.6296 154.21 33.5477 153.81 33.5477H153.069V32.6698H153.772C154.547 32.6698 154.934 32.3523 154.934 31.7173Z" fill="#222222"/>
<path id="Vector_40" d="M161.46 29.9748H162.557V36.3656H161.46V31.8139L158.688 36.3656H157.59V29.9748H158.688V34.5309L161.46 29.9748Z" fill="#222222"/>
<path id="Vector_41" d="M169.33 36.3656H168.237V33.5257H165.413V36.3656H164.316V29.9748H165.413V32.6347H168.237V29.9748H169.33V36.3656Z" fill="#222222"/>
</g>
<defs>
<clipPath id="clip0_25_7">
<rect width="170" height="38" fill="white"/>
</clipPath>
</defs>
</svg>
