<svg width="176" height="39" viewBox="0 0 176 39" fill="none" xmlns="http://www.w3.org/2000/svg">
<g id="logo 2" clip-path="url(#clip0_25_654)">
<g id="Clip path group">
<mask id="mask0_25_654" style="mask-type:luminance" maskUnits="userSpaceOnUse" x="0" y="0" width="176" height="27">
<g id="clip0">
<path id="Vector" d="M176 0H0V26.4194H176V0Z" fill="white"/>
</g>
</mask>
<g mask="url(#mask0_25_654)">
<g id="Group">
<path id="Vector_2" fill-rule="evenodd" clip-rule="evenodd" d="M32.724 21.0632V7.8194C32.6846 7.50878 32.7121 7.19326 32.8047 6.89413C32.8973 6.59501 33.0529 6.31915 33.261 6.08511C33.7434 5.65997 34.375 5.44383 35.0167 5.4843H42.4273C43.25 5.4843 44.5581 5.4843 45.5213 6.41749C46.5911 7.44017 46.7019 9.19576 46.7019 10.5125C46.7019 11.8292 46.5656 13.7851 45.3424 14.7737C44.6526 15.2793 43.8152 15.5443 42.9603 15.5279H35.6602V21.0674L32.724 21.0632ZM41.247 13.2055C41.8905 13.2055 42.6493 13.2055 43.1606 12.626C43.6718 12.0465 43.6718 11.092 43.6718 10.4954C43.6718 9.80512 43.6037 8.86766 43.1179 8.36485C42.6321 7.86204 41.784 7.82795 41.2939 7.82795H36.5594C36.4364 7.80958 36.3108 7.81839 36.1915 7.85374C36.0723 7.88905 35.9622 7.95007 35.869 8.03247C35.7868 8.13416 35.7265 8.25179 35.6921 8.37793C35.6576 8.50412 35.6497 8.63601 35.6688 8.76542V13.2141L41.247 13.2055Z" fill="white"/>
<path id="Vector_3" fill-rule="evenodd" clip-rule="evenodd" d="M51.4706 21.0632L53.3627 17.6158L46.7061 5.48853H49.9577L54.8752 14.9228L59.6143 5.48853H62.8186L54.6536 21.0632H51.4706Z" fill="white"/>
<path id="Vector_4" fill-rule="evenodd" clip-rule="evenodd" d="M69.3728 21.0632C67.8817 21.0632 65.8574 20.8629 64.4127 19.2351C62.9679 17.6073 62.8316 15.2083 62.8316 13.4953C62.8316 11.271 63.0318 8.97844 64.3445 7.4444C65.9043 5.62062 68.329 5.48853 69.4581 5.48853H75.7097V7.82366H70.839C69.1045 7.82366 67.6342 7.93869 66.7437 9.27245C66.2793 9.96275 65.8913 11.1431 65.8913 13.4569C65.8913 15.7708 66.3173 16.7508 66.6242 17.2409C67.4256 18.4638 68.8486 18.7323 70.6939 18.7323H75.9697V21.0674L69.3728 21.0632Z" fill="white"/>
<path id="Vector_5" fill-rule="evenodd" clip-rule="evenodd" d="M77.93 5.48853H80.8789V21.0632H77.9429L77.93 5.48853ZM89.125 21.0632L82.733 15.0975C81.8166 14.2452 81.6632 13.4953 81.6632 13.0947C81.6795 12.7591 81.7635 12.4303 81.9098 12.1279C82.0561 11.8255 82.2622 11.5558 82.5156 11.3349L88.4135 5.50555H92.0401L85.3195 11.8974C84.8082 12.3831 84.4971 12.7496 84.4971 13.099C84.4971 13.589 85.0511 14.1217 85.4984 14.5222L92.8624 21.0887L89.125 21.0632Z" fill="white"/>
<path id="Vector_6" fill-rule="evenodd" clip-rule="evenodd" d="M97.759 6.77543C98.07 6.06382 98.496 5.30957 100.141 5.30957C101.786 5.30957 102.208 6.06382 102.523 6.77543L108.532 21.0632H105.417L100.482 8.63329C100.414 8.43305 100.35 8.20719 100.128 8.20719C99.9065 8.20719 99.8171 8.47566 99.7489 8.63329L94.831 21.0717H91.7161L97.759 6.77543Z" fill="white"/>
<path id="Vector_7" fill-rule="evenodd" clip-rule="evenodd" d="M121.082 21.0633L121.172 9.22571C121.172 8.97858 121.15 8.71862 120.95 8.71862C120.75 8.71862 120.592 9.07231 120.37 9.43027L113.978 19.7764C113.552 20.4667 113.087 21.2423 111.506 21.2423C109.26 21.2423 109.214 19.4653 109.214 18.5748V5.49295H112.15L112.081 17.1089C112.081 17.4626 112.081 17.8206 112.35 17.8206C112.529 17.8206 112.64 17.5521 112.776 17.3305L119.053 7.04825C119.906 5.67188 120.588 5.31396 121.657 5.31396C123.993 5.31396 124.039 7.33802 124.039 8.11781V21.0676L121.082 21.0633Z" fill="white"/>
<path id="Vector_8" fill-rule="evenodd" clip-rule="evenodd" d="M138.614 19.3715C138.081 20.7734 137.68 21.2379 136.389 21.2379C135.188 21.2379 134.719 20.8416 134.165 19.3715L130.18 8.97846C130.112 8.80376 129.937 8.46714 129.801 8.46714C129.558 8.46714 129.558 8.86767 129.558 8.93586L129.626 21.0632H126.69V7.35497C126.69 5.33087 128.757 5.30957 129.204 5.30957C130.338 5.30957 131.271 5.57376 131.94 7.31232L135.967 17.7011C136.099 18.0377 136.257 18.2806 136.394 18.2806C136.53 18.2806 136.683 18.0377 136.82 17.7011L140.847 7.31232C141.512 5.57376 142.449 5.30957 143.583 5.30957C145.032 5.30957 146.097 5.93173 146.097 7.35497V21.0632H143.161L143.25 8.93586C143.25 8.50975 143.075 8.46714 142.986 8.46714C142.833 8.46714 142.675 8.79948 142.607 8.97846L138.614 19.3715Z" fill="white"/>
<path id="Vector_9" fill-rule="evenodd" clip-rule="evenodd" d="M152.634 7.0652C153.188 5.75274 153.793 5.30957 155.191 5.30957C156.525 5.30957 157.194 5.73572 157.748 7.0652L163.62 21.0632H160.527L158.924 17.1259H151.424L149.847 21.0632H146.753L152.634 7.0652ZM152.208 15.0336H158.174L155.617 8.69297C155.528 8.46714 155.37 8.04527 155.191 8.04527C155.012 8.04527 154.837 8.47138 154.765 8.69297L152.208 15.0336Z" fill="white"/>
<path id="Vector_10" fill-rule="evenodd" clip-rule="evenodd" d="M167.029 21.0632V7.82366H160.953V5.48853H176.064V7.82366H169.966V21.0632H167.029Z" fill="white"/>
<path id="Vector_11" fill-rule="evenodd" clip-rule="evenodd" d="M10.9477 14.2796C10.854 14.2029 10.7475 14.1006 10.6196 13.9856C9.88238 13.3037 8.10959 11.7825 6.01719 11.7825C5.44923 11.8061 4.8859 11.8948 4.33817 12.0467C3.72035 12.2381 3.11894 12.479 2.53978 12.7668C3.02877 12.1844 3.56159 11.6402 4.13358 11.1391C5.18427 10.2744 6.48616 9.77227 7.84538 9.70731C7.33113 7.89155 7.45508 5.95438 8.19646 4.21896C8.93783 2.48349 10.2519 1.05467 11.9193 0.170787C11.8133 0.113326 11.6948 0.0826068 11.5742 0.0812988H2.98723C2.19815 0.0879766 1.44329 0.404386 0.885304 0.962335C0.327314 1.52028 0.0108619 2.2751 0.00418377 3.06413V23.9141C0.00530252 24.1127 0.084699 24.3028 0.225114 24.4432C0.365529 24.5836 0.555637 24.663 0.754211 24.6641H11.5912C11.7901 24.6641 11.9809 24.5851 12.1215 24.4444C12.2622 24.3038 12.3412 24.113 12.3412 23.9141V15.2937C11.8618 14.9866 11.4033 14.6478 10.9691 14.2796" fill="white"/>
<path id="Vector_12" fill-rule="evenodd" clip-rule="evenodd" d="M13.1936 11.7568C14.8129 12.9244 16.1297 13.5252 17.242 13.6232C17.7821 13.6606 18.3247 13.6435 18.8613 13.5721C19.1001 13.5415 19.3355 13.4887 19.5645 13.4144C19.7718 13.3508 19.9752 13.2754 20.1739 13.1886C20.3709 13.0917 20.5629 12.9851 20.7492 12.869C20.8844 12.7837 21.014 12.6898 21.137 12.5877C21.2052 12.5323 21.4736 12.2895 21.5631 12.1957C21.7035 12.0391 21.8357 11.8756 21.9594 11.7057C22.841 10.4709 23.3052 8.98699 23.2848 7.47002C23.2848 5.48836 22.4975 3.58781 21.0961 2.18654C19.6947 0.785269 17.7941 -0.00195312 15.8122 -0.00195312C13.8304 -0.00195312 11.9297 0.785269 10.5284 2.18654C9.127 3.58781 8.33972 5.48836 8.33972 7.47002C8.33943 8.23354 8.45728 8.99249 8.68913 9.71994C10.0144 9.85204 11.5742 10.5722 13.1936 11.7568Z" fill="#E31F13"/>
<path id="Vector_13" fill-rule="evenodd" clip-rule="evenodd" d="M8.21611 10.4188C6.70501 10.4744 5.23518 10.9271 3.95462 11.7312H3.92906C3.89496 11.7312 3.90774 11.7696 3.95036 11.7525C4.73306 11.4471 5.56482 11.2869 6.40498 11.2796C9.13662 11.2796 10.756 13.1587 11.4037 13.7042C12.7389 14.8696 14.4697 15.4795 16.2405 15.4086C17.3802 15.3734 18.489 15.0303 19.4494 14.4158C20.0093 14.0501 20.518 13.6116 20.9623 13.1119C20.9836 13.0565 21.0475 12.9883 20.9623 13.1119C20.2233 13.6939 19.339 14.0623 18.4054 14.1772C17.8821 14.2554 17.3511 14.2697 16.8243 14.2198C15.4564 14.1133 14.5061 13.7042 12.7759 12.3321C10.9137 10.9429 9.3369 10.4146 8.26728 10.4146L8.21611 10.4188Z" fill="white"/>
<path id="Vector_14" fill-rule="evenodd" clip-rule="evenodd" d="M25.211 0.358186V23.4495C25.2088 24.2701 24.8815 25.0563 24.3009 25.6361C23.7202 26.2159 22.9335 26.5421 22.1129 26.5432H0.123567C0.0534935 26.5432 -0.0137143 26.5154 -0.0632639 26.4658C-0.112814 26.4163 -0.140644 26.349 -0.140644 26.279V26.2534C-0.140644 26.1833 -0.112814 26.1162 -0.0632639 26.0666C-0.0137143 26.0171 0.0534935 25.9892 0.123567 25.9892H22.1129C22.791 25.9892 23.4414 25.7198 23.9209 25.2404C24.4004 24.7609 24.6698 24.1106 24.6698 23.4325V0.358186C24.6698 0.288117 24.6976 0.220914 24.7472 0.171368C24.7968 0.121823 24.8639 0.0939941 24.934 0.0939941H24.9596C25.0293 0.0950924 25.0959 0.123275 25.1452 0.172585C25.1945 0.221894 25.2227 0.288459 25.2238 0.358186" fill="white"/>
</g>
</g>
</g>
<path id="Vector_15" d="M4.23031 31.3854H4.32914C4.8321 31.3854 5.28865 31.4995 5.6988 31.7277C6.11197 31.953 6.43232 32.2713 6.65987 32.6827C6.89038 33.0942 7.00564 33.5567 7.00564 34.0702C7.00564 34.5808 6.89038 35.0403 6.65987 35.4487C6.43232 35.8541 6.11498 36.1695 5.70779 36.3947C5.30362 36.6199 4.85008 36.7341 4.34707 36.7371H4.23031V37.593H3.13907V36.7371H3.03129C2.52532 36.7371 2.06577 36.6245 1.65261 36.3992C1.23946 36.171 0.919117 35.8541 0.691583 35.4487C0.467043 35.0433 0.354773 34.5868 0.354773 34.0792C0.354773 33.5657 0.46854 33.1032 0.696073 32.6918C0.923607 32.2803 1.24246 31.9605 1.65261 31.7322C2.06277 31.501 2.52233 31.3854 3.03129 31.3854H3.13907V30.4934H4.23031V31.3854ZM3.03129 32.2999C2.52832 32.2999 2.13462 32.4575 1.85021 32.7729C1.56878 33.0882 1.42807 33.5237 1.42807 34.0792C1.42807 34.6198 1.56878 35.0463 1.85021 35.3586C2.13163 35.6679 2.52981 35.8226 3.04476 35.8226H3.13907V32.2999H3.03129ZM4.23031 32.2999V35.8226H4.33813C4.84109 35.8226 5.23176 35.6649 5.51022 35.3496C5.79161 35.0343 5.93233 34.6078 5.93233 34.0702C5.93233 33.5206 5.79161 33.0882 5.51022 32.7729C5.23176 32.4575 4.83657 32.2999 4.32463 32.2999H4.23031Z" fill="white"/>
<path id="Vector_16" d="M12.2751 34.3945H9.58966V36.4127H12.7287V37.3226H8.45348V30.7637H12.6973V31.6826H9.58966V33.4935H12.2751V34.3945Z" fill="white"/>
<path id="Vector_17" d="M20.1268 38.9353H19.0491V37.3226H14.7424V38.9353H13.6466L13.6107 36.4127H14.1361C14.3966 36.1604 14.6047 35.794 14.7603 35.3135C14.916 34.83 15.0163 34.2834 15.0612 33.6737L15.2319 30.7637H19.3544V36.4127H20.1852L20.1268 38.9353ZM15.4205 36.4127H18.2227V31.6826H16.3142L16.2064 33.5296C16.1255 34.7639 15.8636 35.7249 15.4205 36.4127Z" fill="white"/>
<path id="Vector_18" d="M25.32 34.3945H22.6345V36.4127H25.7736V37.3226H21.4983V30.7637H25.7422V31.6826H22.6345V33.4935H25.32V34.3945Z" fill="white"/>
<path id="Vector_19" d="M28.2947 34.8856V37.3226H27.1586V30.7637H29.6599C30.3904 30.7637 30.9697 30.9544 31.3979 31.3358C31.829 31.7172 32.0445 32.2217 32.0445 32.8494C32.0445 33.4921 31.8335 33.9921 31.4113 34.3495C30.9922 34.7069 30.4039 34.8856 29.6464 34.8856H28.2947ZM28.2947 33.9711H29.6599C30.0641 33.9711 30.3725 33.8765 30.585 33.6873C30.7976 33.4951 30.9038 33.2188 30.9038 32.8584C30.9038 32.504 30.7961 32.2217 30.5805 32.0115C30.365 31.7983 30.0686 31.6886 29.6913 31.6826H28.2947V33.9711Z" fill="white"/>
<path id="Vector_20" d="M36.362 35.7955H33.8292L33.2992 37.3226H32.1182L34.5881 30.7637H35.6075L38.082 37.3226H36.8964L36.362 35.7955ZM34.148 34.8765H36.0431L35.0956 32.1556L34.148 34.8765Z" fill="white"/>
<path id="Vector_21" d="M44.51 30.7637V37.3226H43.3784V31.6826H41.3755L41.2587 34.2188C41.2138 35.0117 41.1165 35.6273 40.9668 36.0658C40.8201 36.5012 40.6061 36.8196 40.3246 37.0208C40.0432 37.222 39.666 37.3226 39.193 37.3226H38.9056V36.4127L39.0852 36.3992C39.3457 36.3751 39.5462 36.2835 39.687 36.1244C39.8307 35.9652 39.9385 35.7249 40.0103 35.4036C40.0851 35.0793 40.1375 34.6032 40.1675 33.9756L40.2932 30.7637H44.51Z" fill="white"/>
<path id="Vector_22" d="M47.4577 33.2728H48.7959C49.275 33.2728 49.6926 33.3554 50.0492 33.5206C50.4054 33.6858 50.6763 33.92 50.8619 34.2233C51.0475 34.5267 51.1403 34.878 51.1403 35.2774C51.1403 35.8901 50.9321 36.3826 50.5162 36.755C50.1027 37.1274 49.5384 37.3166 48.8231 37.3226H46.3219V30.7637H47.4577V33.2728ZM47.4577 34.1873V36.4127H48.7917C49.1746 36.4127 49.4727 36.3091 49.6851 36.1018C49.9008 35.8916 50.0087 35.6138 50.0087 35.2685C50.0087 34.9381 49.9037 34.6768 49.6943 34.4846C49.4848 34.2924 49.1943 34.1933 48.8231 34.1873H47.4577Z" fill="white"/>
<path id="Vector_23" d="M57.7748 37.3226H56.6432V34.408H53.7197V37.3226H52.5835V30.7637H53.7197V33.4935H56.6432V30.7637H57.7748V37.3226Z" fill="white"/>
<path id="Vector_24" d="M60.7497 33.2728H62.0879C62.567 33.2728 62.9846 33.3554 63.3408 33.5206C63.697 33.6858 63.9683 33.92 64.1539 34.2233C64.3395 34.5267 64.4323 34.878 64.4323 35.2774C64.4323 35.8901 64.2241 36.3826 63.8077 36.755C63.3947 37.1274 62.8303 37.3166 62.115 37.3226H59.6134V30.7637H60.7497V33.2728ZM66.2107 37.3226H65.0786V30.7637H66.2107V37.3226ZM60.7497 34.1873V36.4127H62.0833C62.4666 36.4127 62.7647 36.3091 62.9771 36.1018C63.1928 35.8916 63.3006 35.6138 63.3006 35.2685C63.3006 34.9381 63.1957 34.6768 62.9863 34.4846C62.7764 34.2924 62.4863 34.1933 62.115 34.1873H60.7497Z" fill="white"/>
<path id="Vector_25" d="M72.0685 30.7636H73.2043V37.3225H72.0685V32.6511L69.1985 37.3225H68.0627V30.7636H69.1985V35.4396L72.0685 30.7636ZM72.1044 29.0923C72.1044 29.4707 71.9723 29.777 71.7089 30.0113C71.4456 30.2455 71.094 30.3626 70.6538 30.3626C70.2136 30.3626 69.862 30.2455 69.5982 30.0113C69.3348 29.777 69.2031 29.4707 69.2031 29.0923H70.0204C70.0204 29.2905 70.076 29.4452 70.1868 29.5563C70.3005 29.6644 70.456 29.7185 70.6538 29.7185C70.8511 29.7185 71.0053 29.6644 71.1161 29.5563C71.2269 29.4452 71.2825 29.2905 71.2825 29.0923H72.1044Z" fill="white"/>
<path id="Vector_26" d="M81.7811 30.7637H82.9173V37.3226H81.7811V32.6512L78.9115 37.3226H77.7753V30.7637H78.9115V35.4396L81.7811 30.7637Z" fill="white"/>
<path id="Vector_27" d="M89.9289 37.3226H88.7972V34.408H85.8738V37.3226H84.7375V30.7637H85.8738V33.4935H88.7972V30.7637H89.9289V37.3226Z" fill="white"/>
<path id="Vector_28" d="M96.3259 31.6826H94.2871V37.3226H93.1596V31.6826H91.1387V30.7637H96.3259V31.6826Z" fill="white"/>
<path id="Vector_29" d="M101.47 34.3945H98.7841V36.4127H101.923V37.3226H97.6478V30.7637H101.891V31.6826H98.7841V33.4935H101.47V34.3945Z" fill="white"/>
<path id="Vector_30" d="M104.444 34.8856V37.3226H103.308V30.7637H105.809C106.54 30.7637 107.119 30.9544 107.547 31.3358C107.978 31.7172 108.194 32.2217 108.194 32.8494C108.194 33.4921 107.983 33.9921 107.561 34.3495C107.142 34.7069 106.554 34.8856 105.796 34.8856H104.444ZM104.444 33.9711H105.809C106.214 33.9711 106.522 33.8765 106.735 33.6873C106.947 33.4951 107.054 33.2188 107.054 32.8584C107.054 32.504 106.946 32.2217 106.73 32.0115C106.515 31.7983 106.218 31.6886 105.841 31.6826H104.444V33.9711Z" fill="white"/>
<path id="Vector_31" d="M114.842 37.3226H113.711V34.408H110.787V37.3226H109.651V30.7637H110.787V33.4935H113.711V30.7637H114.842V37.3226Z" fill="white"/>
<path id="Vector_32" d="M120.471 34.3945H117.785V36.4127H120.925V37.3226H116.649V30.7637H120.893V31.6826H117.785V33.4935H120.471V34.3945Z" fill="white"/>
<path id="Vector_33" d="M127.124 31.6826H125.085V37.3226H123.958V31.6826H121.937V30.7637H127.124V31.6826Z" fill="white"/>
<path id="Vector_34" d="M129.236 34.9757H126.878V34.0928H129.236V34.9757Z" fill="white"/>
<path id="Vector_35" d="M132.175 30.7637L134.061 35.791L135.943 30.7637H137.411V37.3226H136.28V35.1604L136.392 32.2683L134.461 37.3226H133.648L131.721 32.2728L131.834 35.1604V37.3226H130.702V30.7637H132.175Z" fill="white"/>
<path id="Vector_36" d="M142.959 35.7955H140.426L139.896 37.3226H138.715L141.185 30.7637H142.205L144.679 37.3226H143.494L142.959 35.7955ZM140.745 34.8765H142.64L141.693 32.1556L140.745 34.8765Z" fill="white"/>
<path id="Vector_37" d="M150.065 31.6826H147.047V37.3226H145.916V30.7637H150.065V31.6826Z" fill="white"/>
<path id="Vector_38" d="M154.208 35.7955H151.675L151.145 37.3226H149.964L152.434 30.7637H153.453L155.928 37.3226H154.742L154.208 35.7955ZM151.994 34.8765H153.889L152.941 32.1556L151.994 34.8765Z" fill="white"/>
<path id="Vector_39" d="M160.402 32.552C160.402 32.2576 160.291 32.0234 160.07 31.8492C159.849 31.675 159.548 31.5879 159.167 31.5879C158.841 31.5879 158.568 31.675 158.35 31.8492C158.131 32.0204 158.022 32.2426 158.022 32.5159H156.89C156.89 32.1586 156.989 31.8402 157.187 31.5609C157.385 31.2816 157.658 31.0654 158.009 30.9122C158.359 30.7561 158.745 30.678 159.167 30.678C159.916 30.678 160.497 30.8417 160.91 31.169C161.326 31.4964 161.534 31.9543 161.534 32.5429C161.534 32.8403 161.444 33.1136 161.265 33.3628C161.085 33.6121 160.833 33.8088 160.51 33.9529C160.875 34.0791 161.154 34.2713 161.345 34.5295C161.54 34.7848 161.637 35.1032 161.637 35.4846C161.637 36.0732 161.412 36.5417 160.964 36.8901C160.515 37.2354 159.916 37.4081 159.167 37.4081C158.706 37.4081 158.288 37.3255 157.914 37.1604C157.543 36.9952 157.263 36.7699 157.074 36.4847C156.889 36.1993 156.796 35.872 156.796 35.5026H157.928C157.928 35.7849 158.045 36.0237 158.278 36.2189C158.512 36.4111 158.808 36.5072 159.167 36.5072C159.568 36.5072 159.89 36.4126 160.133 36.2234C160.378 36.0341 160.501 35.7879 160.501 35.4846C160.501 35.1152 160.393 34.8479 160.178 34.6827C159.965 34.5145 159.652 34.4305 159.239 34.4305H158.471V33.5295H159.199C160.001 33.5295 160.402 33.2037 160.402 32.552Z" fill="white"/>
<path id="Vector_40" d="M167.158 30.7637H168.294V37.3226H167.158V32.6512L164.289 37.3226H163.152V30.7637H164.289V35.4396L167.158 30.7637Z" fill="white"/>
<path id="Vector_41" d="M175.306 37.3226H174.175V34.408H171.251V37.3226H170.115V30.7637H171.251V33.4935H174.175V30.7637H175.306V37.3226Z" fill="white"/>
</g>
<defs>
<clipPath id="clip0_25_654">
<rect width="176" height="39" fill="white"/>
</clipPath>
</defs>
</svg>
