<svg width="30" height="32" viewBox="0 0 30 32" fill="none" xmlns="http://www.w3.org/2000/svg">
<g id="Logo horiz 3 7">
<g id="Shape 1 copy 3">
<g id="Group">
<path id="Vector" d="M15.8157 0H9.77763C8.3906 0 7.00865 1.13964 6.69441 2.52088L5.2888 8.64397C5.24657 8.82724 5.38003 9.01718 5.58614 9.01718L13.9032 9.01885C14.0468 9.01885 14.1702 8.92388 14.2006 8.78226L16.1282 0.386546C16.1671 0.211601 16.0167 0 15.8157 0ZM12.6209 13.9973H4.30386C4.16026 13.9973 4.03693 14.0923 4.00652 14.2322L0.00762906 31.6268C-0.0126442 31.7201 0.00762906 31.8084 0.0667593 31.885C0.125889 31.96 0.210361 32 0.308348 32H5.90207C7.51717 32 9.18295 30.6837 9.54618 29.0792L12.9217 14.3705C12.9419 14.2789 12.9217 14.1872 12.8625 14.1106C12.8017 14.0339 12.7189 13.9973 12.6209 13.9973ZM26.8595 13.994L18.5475 13.9823C18.4039 13.9823 18.2772 14.0789 18.2468 14.2206L16.2904 22.6263C16.2684 22.7196 16.287 22.8112 16.3495 22.8862C16.4087 22.9612 16.4931 23.0028 16.5911 23.0028L22.5498 22.9945C23.9368 22.9945 25.4066 21.8882 25.7276 20.5136L27.1585 14.3705C27.1788 14.2755 27.1619 14.1856 27.0994 14.1106C27.0386 14.0339 26.9541 13.994 26.8595 13.994ZM27.9982 0H21.7811C21.6375 0 21.5141 0.0949703 21.4837 0.236593L19.5003 8.64397C19.4801 8.7356 19.5003 8.82724 19.5595 8.90222C19.6186 8.97719 19.7031 9.01885 19.801 9.01885H28.1587C28.3023 9.01885 28.429 8.92221 28.4594 8.78226L29.9309 2.50922C30.2586 1.12798 29.3886 0 27.9982 0Z" fill="#E10000"/>
</g>
</g>
</g>
</svg>
