<svg width="42" height="42" viewBox="0 0 42 42" fill="none" xmlns="http://www.w3.org/2000/svg">
<g id="package 1">
<g id="Layer 32">
<path id="Vector" d="M35.1094 24.0516V11.8125C35.1098 11.6969 35.0797 11.5832 35.0221 11.4829C34.9645 11.3827 34.8814 11.2994 34.7813 11.2416L18.8672 2.05411C18.7674 1.99651 18.6543 1.96619 18.5391 1.96619C18.4239 1.96619 18.3107 1.99651 18.2109 2.05411L2.29688 11.2416C2.19673 11.2994 2.11364 11.3827 2.05602 11.4829C1.9984 11.5832 1.9683 11.6969 1.96876 11.8125V30.1875C1.9683 30.3032 1.9984 30.4169 2.05602 30.5171C2.11364 30.6174 2.19673 30.7007 2.29688 30.7585L18.2109 39.946C18.3107 40.0036 18.4239 40.0339 18.5391 40.0339C18.6543 40.0339 18.7674 40.0036 18.8672 39.946L24.8456 36.4941C25.5908 37.5382 26.5662 38.3967 27.6964 39.0034C28.8266 39.6101 30.0812 39.9486 31.3631 39.9927C32.645 40.0368 33.9199 39.7854 35.0891 39.2579C36.2583 38.7303 37.2905 37.9408 38.1057 36.9505C38.9209 35.9602 39.4973 34.7955 39.7903 33.5468C40.0833 32.298 40.085 30.9985 39.7953 29.7489C39.5057 28.4994 38.9324 27.3332 38.1198 26.3407C37.3072 25.3482 36.2772 24.556 35.1094 24.0254V24.0516ZM18.5391 3.37973L33.1406 11.8125L25.8169 16.0388L12.2588 7.0088L18.5391 3.37973ZM18.5391 20.2454L3.93751 11.8125L10.9922 7.73723L24.5438 16.7738L18.5391 20.2454ZM3.28126 12.9479L17.8828 21.3807V38.2397L3.28126 29.8069V12.9479ZM19.1953 38.2397V21.3807L25.1016 17.9485V23.0607C25.1016 23.2347 25.1707 23.4016 25.2938 23.5247C25.4168 23.6478 25.5838 23.7169 25.7578 23.7169C25.9319 23.7169 26.0988 23.6478 26.2219 23.5247C26.3449 23.4016 26.4141 23.2347 26.4141 23.0607V17.1938L33.7641 12.9479V23.5857C33.069 23.3957 32.3518 23.2986 31.6313 23.2969C30.2111 23.3005 28.8153 23.6661 27.5758 24.3592C26.3362 25.0522 25.2938 26.0498 24.5469 27.2577C23.8001 28.4657 23.3736 29.844 23.3075 31.2627C23.2415 32.6813 23.5383 34.0933 24.1697 35.3654L19.1953 38.2397ZM31.6641 38.7188C30.2688 38.7188 28.9048 38.305 27.7447 37.5299C26.5846 36.7547 25.6803 35.6529 25.1464 34.3638C24.6124 33.0747 24.4727 31.6563 24.7449 30.2878C25.0171 28.9193 25.689 27.6623 26.6756 26.6757C27.6623 25.6891 28.9193 25.0172 30.2878 24.745C31.6562 24.4728 33.0747 24.6125 34.3638 25.1464C35.6529 25.6804 36.7546 26.5846 37.5298 27.7447C38.305 28.9049 38.7188 30.2688 38.7188 31.6641C38.717 33.5346 37.9732 35.328 36.6506 36.6506C35.3279 37.9732 33.5346 38.7171 31.6641 38.7188Z" fill="#169940"/>
<path id="Vector_2" d="M34.7813 28.2581L30.7125 33.6263L28.5797 31.1194C28.4674 30.9845 28.3062 30.8997 28.1314 30.8837C27.9567 30.8677 27.7827 30.9218 27.6478 31.0341C27.5129 31.1463 27.4282 31.3076 27.4122 31.4824C27.3962 31.6571 27.4503 31.8311 27.5625 31.966L30.1875 35.1028C30.2491 35.1749 30.3256 35.2327 30.4117 35.2723C30.4978 35.312 30.5915 35.3325 30.6863 35.3325C30.7848 35.3295 30.8814 35.3044 30.9689 35.2589C31.0564 35.2135 31.1325 35.1489 31.1916 35.07L35.7525 29.0522C35.838 28.9953 35.909 28.9192 35.9597 28.8299C36.0104 28.7406 36.0394 28.6406 36.0444 28.5381C36.0495 28.4355 36.0304 28.3332 35.9887 28.2394C35.947 28.1455 35.8838 28.0628 35.8043 27.9978C35.7249 27.9328 35.6312 27.8874 35.531 27.8652C35.4307 27.8429 35.3266 27.8446 35.2271 27.8699C35.1276 27.8952 35.0354 27.9435 34.958 28.011C34.8806 28.0784 34.82 28.1631 34.7813 28.2581Z" fill="#169940"/>
</g>
</g>
</svg>
