<svg width="42" height="42" viewBox="0 0 42 42" fill="none" xmlns="http://www.w3.org/2000/svg">
<g id="pay 1" clip-path="url(#clip0_25_319)">
<g id="Group">
<g id="Group_2">
<g id="Group_3">
<g id="Group_4">
<path id="Vector" d="M0.615234 10.5666V3.89648C0.615234 2.08433 2.08433 0.615234 3.89648 0.615234H20.5488C22.361 0.615234 23.8301 2.08433 23.8301 3.89648V19.0452" stroke="#169940" stroke-width="1.3" stroke-miterlimit="10" stroke-linecap="round" stroke-linejoin="round"/>
<path id="Vector_2" d="M23.8301 37.7204V38.1035C23.8301 39.9156 22.361 41.3847 20.5488 41.3847H3.89648C2.08433 41.3847 0.615234 39.9156 0.615234 38.1035V12.8866" stroke="#169940" stroke-width="1.3" stroke-miterlimit="10" stroke-linecap="round" stroke-linejoin="round"/>
<path id="Vector_3" d="M14.217 3.52734H10.2283C9.63597 3.52734 9.08964 3.20808 8.79892 2.69202L7.62891 0.615234H16.8164L15.6464 2.69202C15.3557 3.20808 14.8093 3.52734 14.217 3.52734Z" stroke="#169940" stroke-width="1.3" stroke-miterlimit="10" stroke-linecap="round" stroke-linejoin="round"/>
</g>
</g>
<g id="Group_5">
<g id="Group_6">
<path id="Vector_4" d="M37.9296 29.6459C38.6277 28.9477 38.6277 27.8178 37.9296 27.1198" stroke="#169940" stroke-width="1.3" stroke-miterlimit="10" stroke-linecap="round" stroke-linejoin="round"/>
<path id="Vector_5" d="M40.1265 31.4183C41.8042 29.7405 41.8042 27.0251 40.1265 25.3473" stroke="#169940" stroke-width="1.3" stroke-miterlimit="10" stroke-linecap="round" stroke-linejoin="round"/>
</g>
<g id="Group_7">
<g id="Group_8">
<g id="Group_9">
<g id="Group_10">
<path id="Vector_6" d="M30.6785 37.7204H33.1612C33.9671 37.7204 34.6205 37.067 34.6205 36.2611V20.5045C34.6205 19.6985 33.9671 19.0452 33.1612 19.0452H5.71532C4.90936 19.0452 4.25598 19.6985 4.25598 20.5045V36.2611C4.25598 37.067 4.90936 37.7204 5.71532 37.7204H28.219" stroke="#169940" stroke-width="1.3" stroke-miterlimit="10" stroke-linecap="round" stroke-linejoin="round"/>
</g>
<g id="Group_11">
<path id="Vector_7" d="M12.9026 26.4492V30.3164C12.9026 30.7195 12.5759 31.0461 12.1729 31.0461H8.30572C7.9027 31.0461 7.57605 30.7195 7.57605 30.3164V26.4492C7.57605 26.0461 7.9027 25.7195 8.30572 25.7195H12.173C12.5759 25.7195 12.9026 26.0462 12.9026 26.4492Z" stroke="#169940" stroke-width="1.3" stroke-miterlimit="10" stroke-linecap="round" stroke-linejoin="round"/>
<g id="Group_12">
<path id="Vector_8" d="M7.57605 28.3828H8.74352" stroke="#169940" stroke-width="1.3" stroke-miterlimit="10" stroke-linecap="round" stroke-linejoin="round"/>
<path id="Vector_9" d="M11.7351 28.3828H12.9026" stroke="#169940" stroke-width="1.3" stroke-miterlimit="10" stroke-linecap="round" stroke-linejoin="round"/>
</g>
</g>
</g>
<g id="Group_13">
<path id="Vector_10" d="M31.5812 23.9359V23.935C31.5812 22.9109 30.751 22.0807 29.7269 22.0807H27.8461C26.8221 22.0807 25.9918 22.9108 25.9918 23.935V23.9359C25.9918 24.96 26.822 25.7902 27.8461 25.7902H29.7269C30.751 25.7902 31.5812 24.9601 31.5812 23.9359Z" stroke="#169940" stroke-width="1.3" stroke-miterlimit="10" stroke-linecap="round" stroke-linejoin="round"/>
<g id="Group_14">
<path id="Vector_11" d="M7.57605 34.2787H22.3884" stroke="#169940" stroke-width="1.3" stroke-miterlimit="10" stroke-linecap="round" stroke-linejoin="round"/>
<path id="Vector_12" d="M25.3384 34.2787H29.0977" stroke="#169940" stroke-width="1.3" stroke-miterlimit="10" stroke-linecap="round" stroke-linejoin="round"/>
</g>
</g>
</g>
</g>
</g>
</g>
<g id="Group_15">
<path id="Vector_13" d="M12.2226 16.2663C14.8813 16.2663 17.0365 14.1397 17.0365 11.5165C17.0365 8.89327 14.8813 6.76672 12.2226 6.76672C9.56396 6.76672 7.40869 8.89327 7.40869 11.5165C7.40869 14.1397 9.56396 16.2663 12.2226 16.2663Z" stroke="#169940" stroke-width="1.3" stroke-miterlimit="10" stroke-linecap="round" stroke-linejoin="round"/>
<path id="Vector_14" d="M10.121 11.6859L11.4856 13.0506L14.3243 10.2119" stroke="#169940" stroke-width="1.3" stroke-miterlimit="10" stroke-linecap="round" stroke-linejoin="round"/>
</g>
</g>
</g>
<defs>
<clipPath id="clip0_25_319">
<rect width="42" height="42" fill="white"/>
</clipPath>
</defs>
</svg>
