<svg width="42" height="42" viewBox="0 0 42 42" fill="none" xmlns="http://www.w3.org/2000/svg">
<g id="ruble 1">
<g id="Group">
<path id="Vector" d="M42 21C42 10.6015 33.5849 2.18475 23.1848 2.18475H18.8153C8.41641 2.18475 0 10.6003 0 21C0 23.139 0.357574 25.24 1.0628 27.2448C1.17559 27.5653 1.52685 27.7336 1.84734 27.621C2.16784 27.5082 2.33625 27.157 2.22354 26.8365C1.56458 24.9632 1.23047 22.9995 1.23047 21C1.23047 11.2814 9.09538 3.41522 18.8153 3.41522C23.5124 3.41522 27.9283 5.24435 31.2496 8.56564C34.5709 11.887 36.4001 16.3029 36.4001 21C36.4001 30.7187 28.5352 38.5847 18.8153 38.5847C12.1191 38.5847 6.1375 34.8146 3.16255 29.0214C3.00727 28.719 2.63616 28.6 2.3342 28.7552C2.03191 28.9105 1.91272 29.2812 2.06793 29.5835C5.2477 35.7752 11.6438 39.8145 18.8134 39.8152C18.814 39.8152 18.8147 39.8153 18.8153 39.8153H23.1848C33.6071 39.8153 42 31.3585 42 21ZM34.9866 34.0348H32.3828C33.365 33.0136 34.2188 31.9006 34.9361 30.7152H37.8441C37.0254 31.9483 36.0581 33.0642 34.9866 34.0348ZM31.0855 35.2653H33.4718C31.2936 36.843 28.7991 37.8895 26.1491 38.3368C27.9293 37.5836 29.5931 36.553 31.0855 35.2653ZM35.619 29.4848C36.1565 28.4229 36.59 27.3121 36.9154 26.1653H40.0022C39.6498 27.3179 39.1781 28.4291 38.5949 29.4848H35.619ZM40.3277 24.9348H37.2195C37.4487 23.852 37.5835 22.7423 37.6194 21.6152H40.7576C40.7186 22.7522 40.5732 23.8604 40.3277 24.9348ZM40.7577 20.3848H37.6195C37.5835 19.2578 37.4487 18.148 37.2195 17.0652H40.3296C40.5754 18.1456 40.7192 19.2559 40.7577 20.3848ZM39.9988 15.8348H36.9154C36.59 14.688 36.1566 13.5772 35.619 12.5152H38.5904C39.1739 13.5722 39.6459 14.6848 39.9988 15.8348ZM37.8482 11.2847H34.9362C34.2189 10.0994 33.3651 8.98646 32.3829 7.96517H34.9889C36.0701 8.94667 37.0327 10.0593 37.8482 11.2847ZM31.0856 6.73478C29.5975 5.45083 27.9389 4.42248 26.1645 3.66977C28.7955 4.12151 31.2933 5.16675 33.4667 6.73478H31.0856Z" fill="#169940"/>
<path id="Vector_2" d="M28.9556 11.2864C29.1906 11.5317 29.5801 11.5401 29.8255 11.305C30.0708 11.07 30.0792 10.6805 29.8441 10.4352C26.935 7.39909 23.0182 5.72705 18.8153 5.72705C10.3938 5.72705 3.54242 12.5785 3.54242 21C3.54242 29.4215 10.3938 36.2729 18.8153 36.2729C27.2369 36.2729 34.0882 29.4215 34.0882 21C34.0882 17.9305 33.181 14.9701 31.4645 12.4388C31.2739 12.1576 30.8913 12.084 30.6101 12.2749C30.3288 12.4656 30.2555 12.8482 30.4462 13.1294C32.0238 15.4561 32.8578 18.1778 32.8578 21C32.8578 28.743 26.5583 35.0425 18.8152 35.0425C11.0722 35.0425 4.77281 28.743 4.77281 21C4.77281 13.2569 11.0722 6.95752 18.8152 6.95752C22.6796 6.95752 26.2808 8.49495 28.9556 11.2864Z" fill="#169940"/>
<path id="Vector_3" d="M16.3931 21.2535C16.5082 21.3675 16.6638 21.4313 16.8257 21.4313H16.8292C17.8906 21.4254 19.3094 21.4185 20.0403 21.4185C22.2102 21.4185 24.0433 19.6259 24.0433 17.5043C24.0433 15.3825 22.2102 13.59 20.0403 13.59H16.8054C16.6419 13.59 16.4852 13.655 16.3697 13.7708C16.2542 13.8865 16.1896 14.0434 16.1901 14.2069C16.2022 18.3864 16.1924 17.4806 16.2105 20.8193C16.2114 20.9825 16.2771 21.1387 16.3931 21.2535ZM20.0403 14.8204C21.5432 14.8204 22.8128 16.0494 22.8128 17.5043C22.8128 18.9589 21.5432 20.188 20.0403 20.188C19.4414 20.188 18.3842 20.1927 17.4377 20.1976C17.424 17.5157 17.4317 18.1834 17.4223 14.8204H20.0403Z" fill="#169940"/>
<path id="Vector_4" d="M20.0403 23.8794C21.7393 23.8794 23.3499 23.2224 24.5751 22.0293C25.8191 20.8181 26.5042 19.2111 26.5042 17.5043C26.5042 15.7974 25.8191 14.1904 24.5751 12.979C23.3498 11.786 21.7393 11.129 20.0403 11.129H15.5712C14.5535 11.129 13.7255 11.9571 13.7255 12.9747V24.3606H12.9722C11.9545 24.3606 11.1265 25.1886 11.1265 26.2063C11.1265 27.224 11.9545 28.052 12.9722 28.052H13.7255V29.0252C13.7255 30.0429 14.5535 30.8709 15.5712 30.8709C16.5888 30.8709 17.4169 30.0429 17.4169 29.0252V28.052H18.8153C19.1552 28.052 19.4306 27.7766 19.4306 27.4368C19.4306 27.0969 19.1552 26.8215 18.8153 26.8215H16.8016C16.4618 26.8215 16.1864 27.0969 16.1864 27.4368V29.0252C16.1864 29.3645 15.9104 29.6404 15.5712 29.6404C15.2319 29.6404 14.9559 29.3645 14.9559 29.0252V27.4368C14.9559 27.0969 14.6806 26.8215 14.3407 26.8215H12.9722C12.6329 26.8215 12.3569 26.5456 12.3569 26.2063C12.3569 25.867 12.6329 25.5911 12.9722 25.5911H14.3407C14.6806 25.5911 14.9559 25.3157 14.9559 24.9758V12.9747C14.9559 12.6355 15.2319 12.3595 15.5712 12.3595H20.0403C21.4168 12.3595 22.7225 12.8926 23.7166 13.8606C24.7207 14.8383 25.2737 16.1323 25.2737 17.5043C25.2737 18.8762 24.7207 20.1701 23.7166 21.1478C22.7225 22.1158 21.4168 22.6489 20.0403 22.6489C19.3101 22.6489 17.8742 22.6561 16.7982 22.662C16.4598 22.6639 16.1864 22.9387 16.1864 23.2772V24.9758C16.1864 25.3157 16.4618 25.5911 16.8016 25.5911H22.3063C22.6455 25.5911 22.9215 25.867 22.9215 26.2063C22.9215 26.5456 22.6455 26.8215 22.3063 26.8215H21.2753C20.9354 26.8215 20.6601 27.0969 20.6601 27.4368C20.6601 27.7766 20.9354 28.052 21.2753 28.052H22.3063C23.3239 28.052 24.152 27.224 24.152 26.2063C24.152 25.1886 23.3239 24.3606 22.3063 24.3606H17.4169V23.8892C18.3747 23.8841 19.4444 23.8794 20.0403 23.8794Z" fill="#169940"/>
</g>
</g>
</svg>
