<svg width="167" height="26" viewBox="0 0 167 26" fill="none" xmlns="http://www.w3.org/2000/svg">
<g id="Sberbank_Logo_2020 1">
<path id="Vector" d="M22.9889 5.00686C23.5985 5.79825 24.1146 6.65803 24.5267 7.56894L12.8366 16.2216L7.95093 13.1465V9.44698L12.8366 12.5221L22.9889 5.00686Z" fill="#21A038"/>
<path id="Vector_2" d="M2.96486 12.8854C2.96486 12.7194 2.96889 12.5545 2.97696 12.3905L0.0161252 12.2448C0.0060475 12.4573 3.57803e-06 12.6718 3.57803e-06 12.8884C-0.00125617 14.5801 0.330146 16.2554 0.975208 17.8181C1.62027 19.381 2.56628 20.8005 3.75899 21.9953L5.85918 19.8876C4.94108 18.9694 4.21274 17.8782 3.71604 16.6765C3.21933 15.4748 2.96405 14.1864 2.96486 12.8854Z" fill="url(#paint0_linear_4_372)"/>
<path id="Vector_3" d="M12.834 2.97619C12.9993 2.97619 13.1635 2.98226 13.3268 2.99036L13.4749 0.0164384C13.2627 0.00631957 13.049 0.00126078 12.834 0.00126078C11.1484 -0.000803213 9.47901 0.331471 7.92167 0.979003C6.36431 1.62654 4.9497 2.57658 3.75903 3.77457L5.85923 5.88333C6.77366 4.96118 7.86062 4.22961 9.05762 3.7307C10.2546 3.23179 11.538 2.97537 12.834 2.97619Z" fill="url(#paint1_linear_4_372)"/>
<path id="Vector_4" d="M12.8341 22.7948C12.6688 22.7948 12.5045 22.7948 12.3403 22.7816L12.1921 25.7545C12.4051 25.7653 12.6191 25.7707 12.8341 25.7707C14.519 25.7725 16.1876 25.44 17.7441 24.7923C19.3006 24.1445 20.7143 23.1944 21.9041 21.9964L19.8079 19.8887C18.8933 20.8103 17.8064 21.5415 16.6097 22.0402C15.4129 22.5389 14.1298 22.7954 12.8341 22.7948Z" fill="url(#paint2_linear_4_372)"/>
<path id="Vector_5" d="M18.3971 4.70527L20.8923 2.85858C18.6116 1.00427 15.7647 -0.00514737 12.8301 1.97392e-05V2.97596C14.8173 2.97349 16.7584 3.57648 18.3971 4.70527Z" fill="url(#paint3_linear_4_372)"/>
<path id="Vector_6" d="M25.6671 12.8854C25.6687 12.1112 25.6012 11.3384 25.4655 10.5762L22.7032 12.6202C22.7032 12.7083 22.7032 12.7963 22.7032 12.8854C22.704 14.2699 22.4149 15.6392 21.8549 16.9043C21.2948 18.1695 20.4762 19.3024 19.4521 20.2296L21.4445 22.4406C22.7758 21.2338 23.8397 19.7596 24.5671 18.1136C25.2946 16.4675 25.6693 14.6862 25.6671 12.8854Z" fill="#21A038"/>
<path id="Vector_7" d="M12.834 22.7948C11.455 22.7952 10.0912 22.5049 8.83103 21.9426C7.57088 21.3803 6.44236 20.5584 5.51859 19.5304L3.31763 21.5299C4.51935 22.8668 5.98752 23.9352 7.62694 24.6658C9.26634 25.3963 11.0404 25.7728 12.834 25.7706V22.7948Z" fill="url(#paint4_linear_4_372)"/>
<path id="Vector_8" d="M6.21594 5.54107L4.22458 3.33011C2.89289 4.53665 1.82863 6.01077 1.10085 7.65687C0.373072 9.30296 -0.00198417 11.0843 7.89402e-06 12.8853H2.96487C2.96426 11.5008 3.25335 10.1316 3.8134 8.86639C4.37345 7.60126 5.19197 6.46834 6.21594 5.54107Z" fill="url(#paint5_linear_4_372)"/>
<g id="Clip path group">
<mask id="mask0_4_372" style="mask-type:luminance" maskUnits="userSpaceOnUse" x="32" y="4" width="135" height="18">
<g id="clip0">
<path id="Vector_9" d="M166.507 4.48279H32.5774V21.5173H166.507V4.48279Z" fill="white"/>
</g>
</mask>
<g mask="url(#mask0_4_372)">
<g id="Group">
<path id="Vector_10" d="M74.0603 7.36889L77.7323 4.68332H65.4429V20.8213H77.7323V18.1357H68.9496V14.0019H76.4416V11.3164H68.9496V7.36889H74.0603Z" fill="#21A038"/>
<path id="Vector_11" d="M57.1736 10.9701H52.907V7.36782H59.7163L63.3861 4.67409H49.4023V20.8121H56.7223C60.8262 20.8121 63.1814 18.9656 63.1814 15.7454C63.1814 12.6647 61.0481 10.9701 57.1736 10.9701ZM56.5644 18.1256H52.907V13.654H56.5644C58.7841 13.654 59.8248 14.4034 59.8248 15.8899C59.8248 17.3763 58.7174 18.1256 56.5644 18.1256Z" fill="#21A038"/>
<path id="Vector_12" d="M86.766 4.68101H80.0764V20.8189H83.5826V16.2473H86.766C91.034 16.2473 93.6742 14.0179 93.6742 10.4555C93.6742 6.89333 91.034 4.68101 86.766 4.68101ZM86.692 13.5597H83.5826V7.36863H86.692C88.937 7.36863 90.1759 8.46867 90.1759 10.4654C90.1759 12.4621 88.937 13.5597 86.692 13.5597Z" fill="#21A038"/>
<path id="Vector_13" d="M44.1407 17.0105C43.2349 17.4974 42.2201 17.7495 41.1902 17.7435C38.1075 17.7435 35.8712 15.5588 35.8712 12.5504C35.8712 9.542 38.1075 7.35256 41.1902 7.35256C42.3019 7.33381 43.3905 7.66845 44.2969 8.30763L46.7496 6.5145L46.5837 6.3975C45.153 5.14878 43.2413 4.48741 41.0532 4.48741C38.6798 4.48741 36.5277 5.2801 34.9911 6.72222C34.2142 7.46475 33.5998 8.35829 33.186 9.34708C32.7724 10.3359 32.5682 11.3986 32.5866 12.4692C32.5701 13.5506 32.7733 14.6243 33.184 15.6261C33.5946 16.6279 34.2043 17.5372 34.9768 18.2998C36.5205 19.7992 38.6678 20.6253 41.0243 20.6253C43.4866 20.6253 45.6388 19.7729 47.0959 18.221L44.9005 16.5975L44.1407 17.0105Z" fill="#21A038"/>
<path id="Vector_14" d="M107.577 10.9701H103.312V7.36782H112.478V4.67409H99.8054V20.8121H107.116C111.219 20.8121 113.575 18.9656 113.575 15.7454C113.585 12.6647 111.452 10.9701 107.577 10.9701ZM106.968 18.1256H103.312V13.654H106.968C109.188 13.654 110.228 14.4034 110.228 15.8899C110.228 17.3763 109.13 18.1256 106.968 18.1256Z" fill="#21A038"/>
<path id="Vector_15" d="M153.439 20.789H149.884V4.65101H153.439V11.429H155.374L160.598 4.65101H164.627L158.43 12.328L165.626 20.789H160.909L155.62 14.4421H153.439V20.789Z" fill="#21A038"/>
<path id="Vector_16" d="M126.49 17.7221H118.97L117.695 20.8559H113.912L120.965 4.71794H124.747L131.686 20.8559H127.764L126.49 17.7221ZM125.312 14.798L122.752 8.53036L120.178 14.798H125.312Z" fill="#21A038"/>
<path id="Vector_17" d="M136.471 4.71794V11.4569H143.827V4.71794H147.493V20.8559H143.827V14.497H136.471V20.8559H132.806V4.71794H136.471Z" fill="#21A038"/>
</g>
</g>
</g>
</g>
<defs>
<linearGradient id="paint0_linear_4_372" x1="4.35861" y1="21.624" x2="1.09601" y2="12.2308" gradientUnits="userSpaceOnUse">
<stop offset="0.14" stop-color="#F1E813"/>
<stop offset="0.3" stop-color="#E6E418"/>
<stop offset="0.58" stop-color="#C9DA26"/>
<stop offset="0.89" stop-color="#A2CC39"/>
</linearGradient>
<linearGradient id="paint1_linear_4_372" x1="4.60556" y1="4.30075" x2="12.9574" y2="1.13088" gradientUnits="userSpaceOnUse">
<stop offset="0.06" stop-color="#0FA7DF"/>
<stop offset="0.54" stop-color="#0098F8"/>
<stop offset="0.92" stop-color="#0290EA"/>
</linearGradient>
<linearGradient id="paint2_linear_4_372" x1="11.9967" y1="23.9746" x2="21.4351" y2="21.851" gradientUnits="userSpaceOnUse">
<stop offset="0.12" stop-color="#A2CC39"/>
<stop offset="0.28" stop-color="#86C239"/>
<stop offset="0.87" stop-color="#219F38"/>
</linearGradient>
<linearGradient id="paint3_linear_4_372" x1="12.2134" y1="0.996722" x2="20.2852" y2="3.47755" gradientUnits="userSpaceOnUse">
<stop offset="0.06" stop-color="#0290EA"/>
<stop offset="0.79" stop-color="#0C89CA"/>
</linearGradient>
<linearGradient id="paint4_linear_4_372" x1="4.06136" y1="21.1676" x2="12.8498" y2="24.4388" gradientUnits="userSpaceOnUse">
<stop offset="0.13" stop-color="#F1E813"/>
<stop offset="0.3" stop-color="#EAE616"/>
<stop offset="0.53" stop-color="#D8DF1F"/>
<stop offset="0.8" stop-color="#BAD52D"/>
<stop offset="0.98" stop-color="#A2CC39"/>
</linearGradient>
<linearGradient id="paint5_linear_4_372" x1="1.10452" y1="13.2455" x2="4.65377" y2="4.05013" gradientUnits="userSpaceOnUse">
<stop offset="0.07" stop-color="#A2CC39"/>
<stop offset="0.26" stop-color="#81C45E"/>
<stop offset="0.92" stop-color="#0FA7DF"/>
</linearGradient>
</defs>
</svg>
