<svg width="42" height="42" viewBox="0 0 42 42" fill="none" xmlns="http://www.w3.org/2000/svg">
<g id="search 1" clip-path="url(#clip0_25_247)">
<g id="Group">
<path id="Vector" d="M25.1024 26.4672C25.6222 26.4672 26.1084 26.2623 26.4714 25.8902L29.6961 22.584C30.4321 21.8293 30.4169 20.6166 29.6621 19.8805C28.9073 19.1446 27.6943 19.1598 26.9583 19.9145L25.0666 21.8538L24.7352 21.5316C23.9794 20.7969 22.7665 20.8138 22.0314 21.5695C21.2965 22.3253 21.3135 23.538 22.0694 24.2729L23.7695 25.926C24.1284 26.275 24.6018 26.4672 25.1024 26.4672ZM22.9155 22.429C23.1767 22.1605 23.6076 22.1549 23.8758 22.4157L24.6484 23.167C24.8922 23.4041 25.282 23.3988 25.5196 23.1554L27.8411 20.7754C28.1026 20.5072 28.5333 20.502 28.8013 20.7632C29.0693 21.0247 29.0747 21.4553 28.8134 21.7233L25.5887 25.0294C25.3395 25.2959 24.8855 25.3016 24.6291 25.0422L22.929 23.3891C22.6606 23.1281 22.6545 22.6974 22.9155 22.429Z" fill="#169940"/>
<path id="Vector_2" d="M20.3368 26.8869C20.1317 26.6151 19.7452 26.561 19.4732 26.766C19.2014 26.9711 19.1474 27.3576 19.3524 27.6294C19.5769 27.9269 19.8253 28.2122 20.0904 28.4774C21.6063 29.9931 23.6217 30.8277 25.7654 30.8277C27.9092 30.8277 29.9245 29.9931 31.4404 28.4774C32.9563 26.9618 33.791 24.9466 33.791 22.8032C33.791 20.6597 32.9562 18.6446 31.4404 17.129C28.3111 14.0003 23.2197 14.0003 20.0904 17.129C17.957 19.2621 17.2021 22.3738 18.1203 25.2498C18.2238 25.5741 18.571 25.753 18.8951 25.6496C19.2194 25.5461 19.3985 25.1992 19.2949 24.8749C18.5176 22.4404 19.1566 19.8063 20.9624 18.0008C23.6107 15.3528 27.9201 15.3528 30.5684 18.0008C31.8514 19.2836 32.558 20.9892 32.558 22.8033C32.558 24.6174 31.8514 26.3229 30.5684 27.6057C29.2856 28.8884 27.5798 29.595 25.7654 29.595C23.9511 29.595 22.2453 28.8885 20.9623 27.6057C20.7374 27.3806 20.5269 27.1389 20.3368 26.8869Z" fill="#169940"/>
<path id="Vector_3" d="M41.1518 34.0652L37.2623 30.1762C37.0214 29.9355 36.6311 29.9354 36.3903 30.1762L36.3665 30.2L34.8697 28.7034C35.8759 27.1522 36.4753 25.3599 36.5933 23.4893C36.6147 23.1495 36.3566 22.8568 36.0168 22.8353C35.6773 22.8146 35.3843 23.072 35.3627 23.4117C35.2154 25.7471 34.222 27.9455 32.5652 29.602C30.693 31.4741 28.2342 32.4112 25.7748 32.4136C25.7717 32.4135 25.7686 32.4131 25.7654 32.4131H25.7165C23.2703 32.4008 20.8279 31.464 18.9656 29.602C17.1493 27.786 16.149 25.3714 16.149 22.803C16.149 20.2347 17.1493 17.8201 18.9656 16.0041C22.715 12.2551 28.8158 12.2551 32.5652 16.0041C33.9618 17.4005 34.8833 19.1618 35.2304 21.0978C35.2905 21.4329 35.6111 21.6555 35.946 21.5958C36.2812 21.5357 36.5041 21.2154 36.4441 20.8802C36.0523 18.6952 35.0126 16.7076 33.4372 15.1323C32.6565 14.3518 31.7854 13.7158 30.8574 13.2234V8.25505C30.8569 8.09279 30.7913 7.93398 30.6768 7.81914L23.0372 0.180551C22.9223 0.0661992 22.7636 0.000410156 22.6012 0H1.84955C0.829737 0 -9.52148e-06 0.829582 -9.52148e-06 1.84931V7.03065C-9.52148e-06 7.37108 0.275944 7.64712 0.616537 7.64712C0.957049 7.64712 1.23308 7.37116 1.23308 7.03065V1.84931C1.23308 1.50938 1.50961 1.23285 1.84963 1.23285H21.9849V7.0222C21.9849 8.04193 22.8146 8.87152 23.8344 8.87152H29.6245V12.6651C28.4216 12.2093 27.1534 11.9752 25.8831 11.9615C25.8771 11.9606 25.8712 11.9594 25.8649 11.9594H12.1C11.7595 11.9594 11.4835 12.2355 11.4835 12.5759C11.4835 12.9163 11.7595 13.1923 12.1 13.1923H20.7318C19.8524 13.6522 19.0234 14.2409 18.2726 14.9581H12.1C11.7595 14.9581 11.4835 15.2341 11.4835 15.5745C11.4835 15.915 11.7595 16.191 12.1 16.191H17.163C16.1566 17.4946 15.4689 18.9959 15.1397 20.5985H12.1001C11.7596 20.5985 11.4835 20.8746 11.4835 21.215C11.4835 21.5554 11.7596 21.8315 12.1001 21.8315H14.9596C14.9312 22.1528 14.9162 22.4768 14.9162 22.8032C14.9162 23.071 14.926 23.3372 14.9451 23.6016H12.1002C11.7597 23.6016 11.4836 23.8777 11.4836 24.2181C11.4836 24.5585 11.7597 24.8346 12.1002 24.8346H15.1058C15.4202 26.5031 16.1213 28.0667 17.1649 29.4176H12.1002C11.7597 29.4176 11.4836 29.6936 11.4836 30.0341C11.4836 30.3746 11.7597 30.6506 12.1002 30.6506H18.2751C19.0248 31.3665 19.8525 31.9541 20.7304 32.4134H12.0998C11.7593 32.4134 11.4833 32.6895 11.4833 33.0299C11.4833 33.3703 11.7593 33.6463 12.0998 33.6463H25.7654C27.0748 33.6462 28.3843 33.411 29.6243 32.9412V40.151C29.6243 40.4909 29.3478 40.7675 29.0078 40.7675H1.84955C1.50961 40.7675 1.233 40.491 1.233 40.151V9.49676C1.233 9.15633 0.956967 8.88029 0.616455 8.88029C0.275944 8.88029 -9.15527e-05 9.15625 -9.15527e-05 9.49676V40.151C-9.52148e-06 41.1704 0.829737 42 1.84955 42H29.0079C30.0277 42 30.8574 41.1704 30.8574 40.1507V32.3826C31.1326 32.2366 31.4026 32.0777 31.6668 31.9065L33.1633 33.4027C32.9044 33.6288 32.8905 34.0596 33.1395 34.2983L37.0291 38.1874C38.1141 39.3182 40.0668 39.3182 41.1517 38.1874C42.2828 37.1025 42.2827 35.1501 41.1518 34.0652ZM23.8343 7.63867C23.4944 7.63867 23.2178 7.36214 23.2178 7.0222V2.10468L28.7525 7.63867H23.8343ZM32.6725 31.1684C32.9356 30.951 33.1911 30.7198 33.4372 30.4738C33.6818 30.2292 33.9133 29.9738 34.1318 29.7093L35.4945 31.0717L34.0352 32.5308L32.6725 31.1684ZM40.2799 37.3156C39.6538 37.9682 38.5271 37.968 37.901 37.3156L34.4473 33.8624L36.8263 31.4838L40.28 34.9369C40.9324 35.5631 40.9325 36.6895 40.2799 37.3156Z" fill="#169940"/>
<path id="Vector_4" d="M5.59485 16.8002H8.29204C9.05246 16.8002 9.67114 16.1817 9.67114 15.4214V12.7246C9.67114 11.9642 9.05255 11.3457 8.29204 11.3457H5.59485C4.8345 11.3457 4.21582 11.9642 4.21582 12.7246V15.4214C4.21582 16.1817 4.8345 16.8002 5.59485 16.8002ZM5.44891 12.7246C5.44891 12.6441 5.51446 12.5786 5.59485 12.5786H8.29204C8.37259 12.5786 8.43805 12.6441 8.43805 12.7246V15.4214C8.43805 15.5019 8.37251 15.5674 8.29204 15.5674H5.59485C5.51438 15.5674 5.44891 15.5019 5.44891 15.4214V12.7246Z" fill="#169940"/>
<path id="Vector_5" d="M4.21582 24.0649C4.21582 24.8252 4.83442 25.4437 5.59485 25.4437H8.29204C9.05246 25.4437 9.67114 24.8252 9.67114 24.0649V21.368C9.67114 20.6078 9.05255 19.9893 8.29204 19.9893H5.59485C4.8345 19.9893 4.21582 20.6078 4.21582 21.368V24.0649ZM5.44891 21.368C5.44891 21.2876 5.51446 21.2221 5.59485 21.2221H8.29204C8.37259 21.2221 8.43805 21.2876 8.43805 21.368V24.0649C8.43805 24.1454 8.37251 24.2108 8.29204 24.2108H5.59485C5.51438 24.2108 5.44891 24.1454 5.44891 24.0649V21.368Z" fill="#169940"/>
<path id="Vector_6" d="M4.21582 32.8838C4.21582 33.6441 4.83442 34.2626 5.59485 34.2626H8.29204C9.05246 34.2626 9.67114 33.6441 9.67114 32.8838V30.187C9.67114 29.4266 9.05255 28.8081 8.29204 28.8081H5.59485C4.8345 28.8081 4.21582 29.4266 4.21582 30.187V32.8838ZM5.44891 30.187C5.44891 30.1065 5.51446 30.041 5.59485 30.041H8.29204C8.37259 30.041 8.43805 30.1065 8.43805 30.187V32.8838C8.43805 32.9643 8.37251 33.0298 8.29204 33.0298H5.59485C5.51438 33.0298 5.44891 32.9643 5.44891 32.8838V30.187Z" fill="#169940"/>
</g>
</g>
<defs>
<clipPath id="clip0_25_247">
<rect width="42" height="42" fill="white"/>
</clipPath>
</defs>
</svg>
