<svg width="16" height="16" viewBox="0 0 16 16" fill="none" xmlns="http://www.w3.org/2000/svg">
<g id="shopping-cart 1" clip-path="url(#clip0_25_61)">
<g id="Group">
<g id="Group_2">
<path id="Vector" d="M12.6685 11.3317C11.5684 11.3317 10.6735 12.2267 10.6735 13.3267C10.6735 14.4267 11.5684 15.3217 12.6685 15.3217C13.7685 15.3217 14.6635 14.4267 14.6635 13.3267C14.6635 12.2267 13.7685 11.3317 12.6685 11.3317ZM12.6685 14.1247C12.2284 14.1247 11.8705 13.7668 11.8705 13.3267C11.8705 12.8866 12.2284 12.5287 12.6685 12.5287C13.1086 12.5287 13.4665 12.8866 13.4665 13.3267C13.4665 13.7668 13.1086 14.1247 12.6685 14.1247Z" fill="#169940"/>
</g>
</g>
<g id="Group_3">
<g id="Group_4">
<path id="Vector_2" d="M15.8728 3.62111C15.7595 3.47608 15.5857 3.39149 15.4016 3.39149H3.6944L3.15574 1.13772C3.0913 0.86841 2.85049 0.678284 2.57358 0.678284H0.598504C0.267939 0.678252 0 0.946191 0 1.27676C0 1.60732 0.267939 1.87526 0.598504 1.87526H2.10117L4.04631 10.0142C4.11074 10.2837 4.35156 10.4736 4.62846 10.4736H13.9452C14.2204 10.4736 14.4601 10.2861 14.5262 10.0191L15.9826 4.1338C16.0266 3.95508 15.9861 3.76615 15.8728 3.62111ZM13.477 9.27662H5.10087L3.98046 4.58849H14.6369L13.477 9.27662Z" fill="#169940"/>
</g>
</g>
<g id="Group_5">
<g id="Group_6">
<path id="Vector_3" d="M5.42641 11.3317C4.32634 11.3317 3.4314 12.2267 3.4314 13.3267C3.4314 14.4267 4.32637 15.3217 5.42641 15.3217C6.52645 15.3217 7.42142 14.4267 7.42142 13.3267C7.42142 12.2267 6.52645 11.3317 5.42641 11.3317ZM5.42641 14.1247C4.98631 14.1247 4.6284 13.7668 4.6284 13.3267C4.6284 12.8866 4.98631 12.5287 5.42641 12.5287C5.8665 12.5287 6.22441 12.8866 6.22441 13.3267C6.22441 13.7668 5.8665 14.1247 5.42641 14.1247Z" fill="#169940"/>
</g>
</g>
</g>
<defs>
<clipPath id="clip0_25_61">
<rect width="16" height="16" fill="white"/>
</clipPath>
</defs>
</svg>
