<svg width="42" height="42" viewBox="0 0 42 42" fill="none" xmlns="http://www.w3.org/2000/svg">
<g id="shopping-cart 2">
<path id="Vector" d="M11.7867 26.5297C12.8611 26.5285 35.4008 26.5306 37.1983 26.5297C37.3656 26.5297 37.5281 26.4744 37.66 26.3727C37.7919 26.2711 37.8856 26.1287 37.9262 25.9684L41.9776 9.95975C42.0054 9.84989 42.0074 9.73518 41.9833 9.62444C41.9592 9.51371 41.9098 9.40991 41.8387 9.32102C41.7688 9.23092 41.6784 9.1584 41.5747 9.10935C41.4711 9.0603 41.3572 9.03611 41.2423 9.03875L7.65179 9.36445L5.49226 3.48818C5.43971 3.3451 5.34383 3.22149 5.21765 3.13414C5.09148 3.0468 4.94113 2.99996 4.78706 3H0.735744C0.539296 3.00379 0.35219 3.08354 0.21462 3.22213C0.0770501 3.36071 -7.85882e-06 3.54707 6.01149e-10 3.74117C7.86002e-06 3.93526 0.077081 4.12162 0.214662 4.26019C0.352243 4.39876 0.539356 4.4785 0.735804 4.48228H4.26137C5.67169 8.31822 10.3315 20.9998 11.8195 25.0474C6.9151 25.158 6.87492 32.1976 11.7867 32.3542H14.0878C13.6954 32.8845 13.4596 33.5119 13.4066 34.1666C13.3537 34.8214 13.4856 35.4778 13.7877 36.0629C14.0899 36.648 14.5504 37.1389 15.1181 37.4808C15.6858 37.8228 16.3384 38.0025 17.0033 38C17.6641 37.9927 18.3103 37.807 18.8719 37.4629C19.4336 37.1189 19.8892 36.6296 20.1894 36.048C20.4897 35.4665 20.6232 34.8148 20.5754 34.1637C20.5276 33.5126 20.3003 32.8868 19.9183 32.3542L29.0376 32.3542C28.648 32.8851 28.4144 33.5121 28.3628 34.1659C28.3112 34.8197 28.4435 35.4749 28.7452 36.059C29.0468 36.6432 29.5061 37.1336 30.0722 37.4761C30.6383 37.8186 31.2893 37.9999 31.9531 37.9999C32.617 37.9999 33.2679 37.8186 33.834 37.4761C34.4001 37.1336 34.8593 36.6431 35.161 36.059C35.4626 35.4748 35.595 34.8196 35.5433 34.1658C35.4917 33.512 35.2581 32.885 34.8684 32.3542L37.1983 32.3542C37.3947 32.3503 37.5817 32.2705 37.7192 32.132C37.8567 31.9934 37.9337 31.8071 37.9337 31.6131C37.9337 31.419 37.8566 31.2327 37.7191 31.0942C37.5816 30.9556 37.3946 30.8758 37.1982 30.8719H11.7867C11.208 30.8655 10.6553 30.634 10.2484 30.2275C9.84157 29.821 9.61338 29.2725 9.61338 28.7008C9.61338 28.1292 9.84157 27.5806 10.2484 27.1742C10.6553 26.7677 11.208 26.5361 11.7867 26.5297ZM25.0806 25.0474V18.5255H30.8334L29.2064 25.0474H25.0806ZM25.0806 17.0433V10.6779L32.8098 10.603L31.2031 17.0433H25.0806ZM23.5801 17.0433H17.458L15.8923 10.767L23.5801 10.6925V17.0433ZM23.5801 18.5255V25.0474H19.4548L17.8278 18.5255H23.5801ZM36.6126 25.0474H30.7521L32.3791 18.5255H38.2631L36.6126 25.0474ZM38.6383 17.0433H32.7489L34.3593 10.588L40.2865 10.5305L38.6383 17.0433ZM14.3502 10.782L15.9123 17.0433H10.474L8.1947 10.8417L14.3502 10.782ZM11.0188 18.5255H16.282L17.909 25.0474C16.9397 25.0387 14.3475 25.0537 13.4158 25.0474L11.0188 18.5255ZM19.1105 34.4361C19.1044 34.9843 18.8798 35.5081 18.4852 35.8936C18.0906 36.2792 17.5581 36.4954 17.0031 36.4954C16.4481 36.4954 15.9155 36.2791 15.521 35.8936C15.1264 35.508 14.9018 34.9843 14.8958 34.4361C14.9018 33.8879 15.1265 33.3642 15.521 32.9786C15.9156 32.5931 16.4482 32.3768 17.0031 32.3768C17.5581 32.3768 18.0907 32.5931 18.4852 32.9786C18.8798 33.3642 19.1045 33.8879 19.1105 34.4361ZM34.0607 34.4361C34.0544 34.9842 33.8296 35.5077 33.435 35.8931C33.0404 36.2785 32.5079 36.4946 31.9531 36.4946C31.3982 36.4946 30.8658 36.2784 30.4712 35.8931C30.0767 35.5077 29.8519 34.9842 29.8456 34.4361C29.8516 33.8878 30.0763 33.3641 30.4709 32.9785C30.8655 32.5929 31.3981 32.3766 31.9532 32.3766C32.5082 32.3766 33.0408 32.5929 33.4354 32.9785C33.83 33.3641 34.0546 33.8879 34.0607 34.4361Z" fill="#169940"/>
</g>
</svg>
