<svg width="20" height="20" viewBox="0 0 20 20" fill="none" xmlns="http://www.w3.org/2000/svg">
<g id="swap 1" clip-path="url(#clip0_25_76)">
<g id="Group">
<path id="Vector" d="M13.1207 14.5954C13.3168 14.4399 13.4853 14.3062 13.6304 14.1881L5.55561 14.1881C5.13079 14.1881 4.78638 13.8437 4.78638 13.4189C4.78638 12.9941 5.13079 12.6496 5.55561 12.6496L13.6303 12.6496C13.4853 12.5317 13.3168 12.3979 13.1207 12.2424L11.9153 11.2866C11.5824 11.0227 11.5265 10.5388 11.7904 10.206C12.0544 9.87304 12.5382 9.81715 12.8711 10.0811L14.1108 11.064C14.5622 11.4219 14.9515 11.7306 15.2323 12.0103C15.5235 12.3004 15.7991 12.6548 15.8743 13.1265C15.8897 13.2233 15.8975 13.3209 15.8975 13.4189C15.8975 13.5168 15.8897 13.6146 15.8743 13.7113C15.7991 14.1831 15.5235 14.5374 15.2323 14.8276C14.9515 15.1072 14.5622 15.4159 14.1108 15.7737L12.8711 16.7567C12.5382 17.0206 12.0544 16.9647 11.7904 16.6319C11.5265 16.299 11.5824 15.8151 11.9153 15.5512L13.1207 14.5954Z" fill="#94A0AE"/>
<path id="Vector_2" d="M14.4446 7.35043C14.8695 7.35043 15.2139 7.00603 15.2139 6.5812C15.2139 6.15635 14.8695 5.81196 14.4446 5.81196L6.36987 5.81196C6.51499 5.69397 6.6834 5.56017 6.87951 5.40469L8.08494 4.4489C8.41787 4.18496 8.47376 3.70112 8.20976 3.36823C7.94587 3.03534 7.46197 2.97945 7.12915 3.2434L5.88935 4.22634C5.43807 4.58421 5.04874 4.89286 4.76792 5.17254C4.47663 5.46269 4.20104 5.81703 4.12597 6.28876C4.11048 6.38554 4.10279 6.48327 4.10279 6.5812C4.10279 6.67912 4.11048 6.77684 4.12597 6.87363C4.20104 7.34536 4.47663 7.69969 4.76792 7.98985C5.04874 8.26953 5.43807 8.57817 5.88935 8.93603L7.12915 9.91899C7.46197 10.183 7.94587 10.1271 8.20976 9.79415C8.47376 9.46127 8.41787 8.97743 8.08494 8.71348L6.87951 7.75769C6.6834 7.60222 6.51499 7.46842 6.36987 7.35043L14.4446 7.35043Z" fill="#94A0AE"/>
<path id="Vector_3" fill-rule="evenodd" clip-rule="evenodd" d="M19.8731 14.5779C20 13.4066 20 11.9301 20 10.0464L20 9.95359C20 8.06996 20 6.59345 19.8731 5.42203C19.7436 4.22661 19.4745 3.25801 18.8737 2.43102C18.5099 1.93035 18.0697 1.49006 17.569 1.12631C16.742 0.525461 15.7734 0.256416 14.578 0.1269C13.4066 -1.55332e-05 11.93 -8.42613e-06 10.0464 -3.03342e-07L9.95364 -3.07397e-07C8.06995 -8.59486e-06 6.59344 -1.58311e-05 5.42205 0.1269C4.22656 0.256416 3.25805 0.52546 2.43097 1.12631C1.93036 1.49006 1.49005 1.93035 1.12636 2.43101C0.525434 3.25801 0.256409 4.2266 0.126869 5.42203C-2.19556e-06 6.59342 -2.2601e-06 8.06992 -2.34243e-06 9.95349L-2.34649e-06 10.0465C-2.42883e-06 11.9301 -2.49337e-06 13.4066 0.126869 14.5779C0.256408 15.7734 0.525434 16.742 1.12636 17.569C1.49005 18.0696 1.93036 18.5099 2.43097 18.8736C3.25805 19.4746 4.22656 19.7436 5.42205 19.8731C6.59343 20 8.06995 20 9.95354 20L10.0464 20C11.93 20 13.4066 20 14.578 19.8731C15.7734 19.7436 16.742 19.4746 17.569 18.8736C18.0697 18.51 18.5099 18.0696 18.8737 17.569C19.4745 16.742 19.7436 15.7734 19.8731 14.5779ZM17.629 3.33529C18.0076 3.85633 18.2283 4.52321 18.3436 5.58773C18.4605 6.66666 18.4615 8.05993 18.4615 10C18.4615 11.9401 18.4605 13.3333 18.3436 14.4123C18.2283 15.4768 18.0076 16.1437 17.629 16.6647C17.3602 17.0348 17.0348 17.3602 16.6647 17.629C16.1437 18.0076 15.4768 18.2282 14.4123 18.3436C13.3333 18.4605 11.9401 18.4615 10 18.4615C8.0599 18.4615 6.66667 18.4605 5.58769 18.3436C4.52318 18.2282 3.85631 18.0076 3.33528 17.629C2.96523 17.3602 2.63979 17.0348 2.37097 16.6647C1.99241 16.1437 1.77179 15.4768 1.65641 14.4123C1.53949 13.3333 1.53846 11.9401 1.53846 10C1.53846 8.05993 1.53949 6.66666 1.65641 5.58773C1.77179 4.52321 1.99241 3.85633 2.37097 3.33529C2.6398 2.96524 2.96523 2.63982 3.33528 2.37095C3.85631 1.9924 4.52318 1.77174 5.58769 1.65641C6.66667 1.53952 8.0599 1.53846 10 1.53846C11.9401 1.53846 13.3333 1.53952 14.4123 1.65641C15.4768 1.77174 16.1437 1.9924 16.6647 2.37095C17.0348 2.63982 17.3602 2.96524 17.629 3.33529Z" fill="#94A0AE"/>
</g>
</g>
<defs>
<clipPath id="clip0_25_76">
<rect width="20" height="20" fill="white"/>
</clipPath>
</defs>
</svg>
