<svg width="42" height="42" viewBox="0 0 42 42" fill="none" xmlns="http://www.w3.org/2000/svg">
<g id="wallet 1" clip-path="url(#clip0_25_159)">
<g id="surface1">
<path id="Vector" d="M39.2438 18.9007H37.8441V7.70093C37.8441 7.31402 37.5305 7.00099 37.144 7.00099H32.9041L31.5121 2.59095C31.4537 2.40688 31.3225 2.25528 31.1494 2.17123C30.9757 2.08701 30.7752 2.07876 30.5948 2.14737L24.8944 4.31984L22.3339 0.323727C22.2332 0.166333 22.0737 0.0554369 21.8907 0.0166584C21.7082 -0.0244011 21.5164 0.0112189 21.3611 0.114921L10.8515 7.00099H4.94469C2.24003 7.00397 0.0482558 9.19609 0.0449219 11.9008V37.1001C0.0482558 39.8047 2.24003 41.9969 4.94469 42H37.144C37.5305 42 37.8441 41.6865 37.8441 41.2999V32.9001H39.2438C40.7904 32.9001 42.0439 31.6465 42.0439 30.1005V21.7006C42.0439 20.1539 40.7904 18.9007 39.2438 18.9007ZM39.2438 20.3006C40.0171 20.3006 40.6438 20.927 40.6438 21.7006C40.6438 22.4738 40.0171 23.1004 39.2438 23.1004H37.8441V20.3006H39.2438ZM36.4438 8.40105V15.4006H35.5572L33.3466 8.40105H36.4438ZM34.0896 15.4006H32.0491L30.1084 9.57949C30.0133 9.29365 29.7457 9.10046 29.4442 9.10064C28.7332 9.10292 28.0507 8.82042 27.5494 8.3163L27.1389 7.90588C26.9459 7.71269 26.6578 7.64934 26.4013 7.7441L5.69113 15.4006H4.94469C4.01138 15.4005 3.11684 15.0267 2.46147 14.3624L30.4007 3.72289L34.0896 15.4006ZM30.5736 15.4006H9.72725L26.4667 9.21259L26.5594 9.30594C27.1972 9.94727 28.0315 10.3568 28.9291 10.4682L30.5736 15.4006ZM21.5345 1.67466L23.5552 4.8308L7.22911 11.0482L21.5345 1.67466ZM4.94469 8.40105H8.71445L1.64888 13.0302C1.5185 12.6679 1.44937 12.2859 1.44498 11.9008C1.44744 9.96886 3.01296 8.40298 4.94469 8.40105ZM36.4438 40.5998H4.94469C3.01296 40.5975 1.44744 39.0318 1.44498 37.1001V15.3306C1.45165 15.3368 1.45884 15.3426 1.46516 15.3496C1.51991 15.4042 1.57781 15.4543 1.63484 15.5063C1.69134 15.558 1.75223 15.6173 1.81452 15.6693C1.87698 15.7212 1.93717 15.763 1.99858 15.8093C2.06017 15.8556 2.12615 15.9086 2.19318 15.9553C2.26038 16.0011 2.32548 16.0367 2.39146 16.0776C2.45743 16.1183 2.52762 16.1643 2.60132 16.2036C2.67501 16.2425 2.74485 16.2734 2.81697 16.3092C2.88908 16.3447 2.95717 16.3792 3.03121 16.4127C3.10544 16.4463 3.19036 16.4722 3.26985 16.5008C3.34969 16.5296 3.40987 16.557 3.48357 16.5791C3.57148 16.6073 3.6622 16.6272 3.75256 16.6493C3.82275 16.6659 3.88662 16.6874 3.95505 16.7012C4.05805 16.7228 4.16509 16.7353 4.26949 16.7502C4.3281 16.7581 4.38512 16.7703 4.44461 16.7767C4.6106 16.7932 4.77765 16.8011 4.94469 16.8009H5.8552L5.8652 16.8276L5.94012 16.8009H36.4438V23.1004H28.7441C26.0384 23.1004 23.8444 25.2941 23.8444 28.0003C23.8444 30.7064 26.0384 32.9001 28.7441 32.9001H36.4438V40.5998ZM40.6438 30.1005C40.6438 30.8736 40.0171 31.5002 39.2438 31.5002H28.7441C26.8113 31.5002 25.2444 29.9333 25.2444 28.0003C25.2444 26.0672 26.8113 24.5006 28.7441 24.5006H39.2438C39.4129 24.4988 39.5807 24.4816 39.7467 24.4494C39.7863 24.4425 39.8258 24.4346 39.8649 24.4251C40.0232 24.3909 40.1783 24.3425 40.3282 24.2814L40.352 24.27C40.4522 24.2276 40.5494 24.1784 40.6438 24.1246V30.1005Z" fill="#169940"/>
<path id="Vector_2" d="M15.145 18.9007H17.9451V20.3006H15.145V18.9007Z" fill="#169940"/>
<path id="Vector_3" d="M9.54547 18.9007H12.3452V20.3006H9.54547V18.9007Z" fill="#169940"/>
<path id="Vector_4" d="M31.9446 18.9007H34.3438V20.3006H31.9446V18.9007Z" fill="#169940"/>
<path id="Vector_5" d="M26.345 18.9007H29.1447V20.3006H26.345V18.9007Z" fill="#169940"/>
<path id="Vector_6" d="M4.11874 18.8026L3.79114 20.1606C4.1691 20.252 4.55618 20.2992 4.94466 20.3006H6.74514V18.9007H4.94466C4.66672 18.9 4.38948 18.8672 4.11874 18.8026Z" fill="#169940"/>
<path id="Vector_7" d="M20.7449 18.9007H23.5448V20.3006H20.7449V18.9007Z" fill="#169940"/>
<path id="Vector_8" d="M4.11874 37.002L3.79114 38.3598C4.1691 38.4514 4.55618 38.4988 4.94466 38.5002H6.74514V37.1001H4.94466C4.66672 37.0992 4.38948 37.0669 4.11874 37.002Z" fill="#169940"/>
<path id="Vector_9" d="M31.9446 37.1001H34.3438V38.5002H31.9446V37.1001Z" fill="#169940"/>
<path id="Vector_10" d="M15.145 37.1001H17.9451V38.5002H15.145V37.1001Z" fill="#169940"/>
<path id="Vector_11" d="M26.345 37.1001H29.1447V38.5002H26.345V37.1001Z" fill="#169940"/>
<path id="Vector_12" d="M9.54547 37.1001H12.3452V38.5002H9.54547V37.1001Z" fill="#169940"/>
<path id="Vector_13" d="M20.7449 37.1001H23.5448V38.5002H20.7449V37.1001Z" fill="#169940"/>
<path id="Vector_14" d="M28.7441 25.9005C27.5844 25.9005 26.6441 26.8404 26.6441 28.0003C26.6441 29.1598 27.5844 30.1005 28.7441 30.1005C29.9038 30.1005 30.8439 29.1598 30.8439 28.0003C30.8439 26.8404 29.9038 25.9005 28.7441 25.9005ZM28.7441 28.7004C28.3577 28.7004 28.0442 28.3868 28.0442 28.0003C28.0442 27.6135 28.3577 27.3003 28.7441 27.3003C29.1307 27.3003 29.4442 27.6135 29.4442 28.0003C29.4442 28.3868 29.1307 28.7004 28.7441 28.7004Z" fill="#169940"/>
</g>
</g>
<defs>
<clipPath id="clip0_25_159">
<rect width="42" height="42" fill="white"/>
</clipPath>
</defs>
</svg>
