<?xml version="1.0" encoding="utf-8"?>
<!-- Generator: Adobe Illustrator 19.2.1, SVG Export Plug-In . SVG Version: 6.00 Build 0)  -->
<svg version="1.1" id="Layer_1" xmlns="http://www.w3.org/2000/svg" xmlns:xlink="http://www.w3.org/1999/xlink" x="0px" y="0px"
	 viewBox="0 0 263.9 192.8" style="enable-background:new 0 0 263.9 192.8;" xml:space="preserve">
<style type="text/css">
	.st0{fill:#000;}
	.st1{fill:none;}
	.st2{fill:#000;}
</style>
<g>
	<path class="st0" d="M248.1,47.8c2.5,0.3,4.9,0.8,7.2,1.7h-18.4c0.5-0.2,1-0.4,1.5-0.6C241.5,47.9,244.8,47.4,248.1,47.8z"/>
	<g>
		<path class="st0" d="M248.1,46.9c-3.3-0.3-6.5,0.1-9.7,1.1c-0.5,0.2-1,0.4-1.5,0.6h-7.8c1.1-0.8,2.1-1.6,3.3-2.3
			c3.1-2,6.4-3.5,10.2-3.9c5.9-0.7,11.3,0.4,16.4,3.6c1.2,0.8,2.4,1.7,3.4,2.7h-7C253,47.6,250.6,47.1,248.1,46.9z"/>
		<path class="st0" d="M21.8,47.7c-2.2-0.5-4.5-0.7-6.7-0.5c-2.1,0.1-4.2,0.4-6.2,1.1c-0.2,0.1-0.5,0.2-0.7,0.3H0.8
			c1.2-1.1,2.6-2.1,4.1-2.9c3-1.6,6.1-2.7,9.5-3.1c3.1-0.3,6.3-0.2,9.3,0.8c3.3,1,6.2,2.6,9,4.7c0.3,0.2,0.5,0.4,0.8,0.6h-8.7
			C23.7,48.2,22.8,47.9,21.8,47.7z"/>
		<path class="st0" d="M70,45.5c0-2.3-0.9-4.3-2.4-6.1c-1.9-2.2-4.4-3.5-7.2-4.1c-4.3-0.8-8.2-0.1-11.8,2.5
			c-1.7,1.2-2.8,2.9-3.6,4.8c-0.1,0.3,0,0.6,0,0.9c0.2-0.1,0.5-0.2,0.7-0.4c1-0.9,2.2-1.5,3.6-1.7c2.1-0.3,4.1-0.2,6,0.8
			c2.2,1,3.9,2.9,3.7,5.4c0,0.2-0.2,0.4-0.2,0.6c-0.2-0.1-0.4-0.2-0.5-0.4c-0.5-0.9-1.2-1.6-2.1-2c-1.2-0.6-1.7-0.4-1.9,0.9
			c-0.2,0.8-0.6,1.4-1.2,1.8H37.9c-1.5-1.3-3-2.5-4.7-3.6c-3.7-2.4-7.7-3.8-12-4.2c-2.4-0.2-4.9,0-7.3,0.2c-0.7,0.1-1.4,0.2-2,0.1
			C11.4,41,11,41,10.6,41.4c-0.1,0.1-0.2,0.1-0.4,0.2c0.3-0.8,0.9-1.1,1.5-1.5c6.7-4.5,13.4-4.4,20.1,0.5c-0.1-0.4-0.1-0.7-0.2-0.9
			c-0.1-0.3-0.2-0.6-0.2-0.9c-0.1-1,0.6-1.5,1.5-1.2c0.7,0.2,1.5,0.3,2.3,0.4c0.1,0,0.3,0.1,0.4,0.1c-0.1,0.4-0.5,0.6,0,1
			c2.7,1.9,4.9,4.2,6.6,7.1c0.1,0.2,0.3,0.4,0.5,0.6c0.1,0,0.1,0,0.2,0c0-0.2,0.1-0.4,0.1-0.6c-0.2-1.6,0.1-3.3,0.6-4.8
			c0.3-1,0.8-2.1,1.3-3c1.3-2.2,3.3-3.8,5.2-5.5c1.5-1.4,2.9-2.9,3.9-4.8c0.4-0.9,0.8-1.9,1.2-2.9c0.1-0.3,0.3-0.8,0.8-0.6
			c0.8,0.5,1.7,1,2.4,1.6c1.3,1.1,1.5,2.7,1.6,4.3c0,0.7,0.2,0.8,0.8,0.7c0.9-0.2,1.8-0.3,2.7-0.4c1.7-0.2,3.4-0.1,4.9,0.8
			c1.3,0.8,2.4,1.9,3.3,3.1c0,0.1-0.1,0.2-0.1,0.2c-0.2-0.1-0.5-0.1-0.7-0.2c-1.3-0.5-2.6-0.6-4,0c-0.4,0.2-0.7,0.5-1.1,0.7
			c0.3,0.3,0.6,0.6,0.9,0.8c3.1,2.2,5,5,5.1,8.9c0,0.8,0.4,1.1,1.1,1.3c0.9,0.3,1.3,1,1.4,1.9c0,0.1,0,0.2,0,0.3H70
			C70,47.5,70,46.5,70,45.5z"/>
		<path class="st0" d="M208.6,47.4c-0.2-0.4-0.4-0.9-0.5-1.4c-0.1-0.4-0.3-0.6-0.8-0.5c-1.4,0.3-2.3,1.1-3,2.2
			c-0.1,0.2-0.4,0.3-0.6,0.5c-0.1-0.2-0.3-0.5-0.3-0.7c0-1.6,0.7-2.9,1.8-4c1.4-1.3,3-1.9,4.8-2.2c2.5-0.3,4.8,0.2,6.8,1.9
			c0.1,0.1,0.3,0.2,0.6,0.4c0-0.4,0.1-0.6,0-0.8c-0.4-1.3-0.9-2.5-1.9-3.5c-2.5-2.7-5.7-4.1-9.3-4.3c-4.8-0.3-8.9,1.3-11.8,5.1
			c-1.3,1.6-2,3.5-1.9,5.7c0,0.9,0,1.8,0,2.7h-4c0.1-1,0.6-2,1.6-2.2c0.5-0.2,0.7-0.5,0.8-1.1c0.1-2.2,0.7-4.3,2.1-6.1
			c1-1.4,2.3-2.4,3.7-3.4c0.5-0.4,0.5-0.5,0-0.9c-1.2-0.7-2.5-0.9-3.9-0.5c-0.3,0.1-0.5,0.2-0.8,0.2c-0.1,0-0.3-0.1-0.4-0.2
			c0,0,0-0.2,0.1-0.3c1.5-1.9,3.3-3.4,5.9-3.3c1.5,0,2.9,0.3,4.4,0.4c0.5,0.1,0.7-0.1,0.7-0.6c0-0.2,0-0.4,0-0.6
			c0.1-2.6,1.6-4.2,3.8-5.4c0.4-0.2,0.5,0,0.7,0.3c0.2,0.7,0.5,1.3,0.8,1.9c0.9,1.8,1.9,3.5,3.3,4.8c1.3,1.2,2.6,2.5,3.9,3.7
			c1.5,1.3,2.5,2.9,3.2,4.8c0.7,1.9,0.8,3.8,1,5.8c0,0.3,0,0.6,0,0.9c0.1,0,0.1,0.1,0.2,0.1c0.2-0.3,0.4-0.6,0.5-0.9
			c1.5-2.6,3.4-4.7,5.7-6.5c1-0.8,2.1-1.5,3.3-2.1c1-0.5,1.7,0,1.6,1.2c0,0.4-0.2,0.8-0.3,1.2c0,0.2,0,0.3,0.1,0.5
			c0.2,0,0.3-0.1,0.5-0.1c0.1,0,0.2-0.1,0.2-0.2c2.5-2,5.3-3.2,8.5-3.4c4-0.3,7.6,0.8,10.9,3.1c0.7,0.5,1.3,1.1,2,1.6
			c0,0.1-0.1,0.2-0.1,0.3c-0.3,0-0.7-0.1-1-0.1c-1.2-0.2-2.4-0.5-3.6-0.7c-4-0.6-8-0.3-11.9,0.9c-3.7,1.1-6.9,3-9.8,5.4
			c-0.6,0.5-1.2,1-1.8,1.6h-14.6C209.3,48.3,208.9,47.9,208.6,47.4z"/>
		<path class="st0" d="M93.9,39.7c0.5-0.4,1-0.7,1.6-0.9c0.8-0.4,1.2-0.2,1.8,0.4c0.2,0.2,0.6,0.3,0.9,0.2c2.8-0.9,5.8-1.3,8.7-1
			c3.7,0.3,7,1.6,9.5,4.5c1.4,1.7,2.4,3.6,2.8,5.7h-5.5c-0.5-2.8-1.7-5.2-4.2-6.9c-1.6-1.2-3.5-1.6-5.5-1.6c-1.9,0-3.7,0.4-5.4,1
			c-0.1,0-0.2,0.1-0.4,0.3c0.3,0.1,0.5,0.2,0.7,0.2c1.5,0.4,3.1,0.7,4.6,1.2c1,0.4,1.9,1.1,2.2,2.2c0.2,0.8,0,1.1-0.9,1
			c-2.6-0.2-5.2,0-7.7,0.9c-0.8,0.3-1.5,0.7-2.2,1.1c-0.3,0.1-0.4,0.3-0.1,0.6c0,0,0,0,0,0h-7c0.1-0.3,0.2-0.6,0.3-0.9
			C89.4,44.5,91.2,41.7,93.9,39.7z"/>
		<path class="st0" d="M167.9,47.8c-2.1-1.3-4.5-1.8-7-1.9c-1,0-1.9,0-2.9,0.1c-0.7,0-1.1-0.4-0.9-1.1c0.2-0.5,0.5-0.9,0.9-1.2
			c1.1-1.1,2.5-1.5,4-1.8c0.8-0.2,1.6-0.3,2.4-0.4c0.1,0,0.3-0.1,0.4-0.1c0-0.1,0-0.1,0-0.2c-0.8-0.2-1.6-0.6-2.4-0.7
			c-1.7-0.3-3.4-0.5-5.1-0.2c-2.9,0.5-5,2.2-6.5,4.7c-0.7,1.2-1.2,2.4-1.4,3.7h-5.5c0.7-3.5,2.9-6.6,6-8.4c3.5-1.9,7.1-2.3,11-1.7
			c1.4,0.2,2.8,0.6,4.2,0.9c0.2,0,0.6,0,0.7-0.2c0.6-0.6,1.1-0.7,2-0.3c2,0.9,3.4,2.5,4.7,4.2c1.2,1.7,2.1,3.6,2.7,5.5h-6.9
			C168.4,48.2,168.4,48.1,167.9,47.8z"/>
		<path class="st0" d="M125.6,43.5c-1-4.7-3.8-7.9-7.7-10.3c-5.2-3.1-11-4-16.9-3.2c-4.8,0.6-9,2.5-12.3,6.2c-2.1,2.3-3.3,5-3.9,8.1
			c-0.3,1.4-0.3,2.9-0.3,4.3h-3.6c-0.2-1.7-0.2-3.5-0.1-5.3c0.3-3.7,1.4-7.1,3.6-10.1c2.7-3.7,6.5-5.9,10.7-7.3
			c3.1-1,6.3-1.5,9.4-1.4c2.7,0,5.2,0.2,7.6,0.8c3.9,0.9,7.5,2.3,10.7,4.7c4.4,3.2,7,7.4,7.6,12.7c0.3,2,0.2,4,0,6h-4.6
			C126.1,46.9,126,45.2,125.6,43.5z"/>
		<path class="st0" d="M177.9,44c-0.5-2.2-1.2-4.3-2.4-6.2c-1.7-2.6-4.1-4.5-6.8-5.8c-4.6-2.3-9.4-2.6-14.4-2
			c-3.8,0.5-7.4,1.8-10.5,4.1c-2.7,2.1-4.8,4.6-6,7.9c-0.7,2.1-0.9,4.3-0.7,6.5h-4.6c-0.1-0.6-0.1-1.1-0.2-1.7c-0.1-2.4,0-4.7,0.7-7
			c1.5-4.6,4.4-8.2,8.5-10.8c3.4-2.2,7.1-3.5,11-4.2c6.9-1.1,13.6-0.5,19.9,3c2.8,1.5,5.2,3.6,6.8,6.3c1.4,2.3,2.2,5,2.5,7.7
			c0.2,2.2,0.2,4.4,0,6.6h-3.5C178.4,47,178.3,45.5,177.9,44z"/>
		<path class="st1" d="M142.9,10.7c-0.6,0-1.5,0.8-1.5,1.4c0,0.5,0.6,1,1.3,1c0.7,0,1.3-0.6,1.3-1.2C144,11.2,143.4,10.7,142.9,10.7
			z"/>
		<path class="st1" d="M120.2,10.7c-0.6,0-1.3,0.5-1.3,1c0,0.7,0.7,1.3,1.5,1.3c0.8,0,1.2-0.4,1.2-1
			C121.6,11.3,120.9,10.7,120.2,10.7z"/>
		<path class="st1" d="M132.2,5.2c-0.4-0.3-0.9-0.3-1.3,0c-1.5,1.1-2.6,2.5-3.2,4.2c-0.4,1.2,0.5,2.5,1.8,2.7
			c0.6,0.1,1.3,0.1,1.8,0.1c0.6,0,1.1,0,1.6-0.1c1.7-0.2,2.7-1.7,2.1-3.4C134.5,7.2,133.5,6.1,132.2,5.2z"/>
		<path class="st1" d="M132.2,5.2c-0.4-0.3-0.9-0.3-1.3,0c-1.5,1.1-2.6,2.5-3.2,4.2c-0.4,1.2,0.5,2.5,1.8,2.7
			c0.6,0.1,1.3,0.1,1.8,0.1c0.6,0,1.1,0,1.6-0.1c1.7-0.2,2.7-1.7,2.1-3.4C134.5,7.2,133.5,6.1,132.2,5.2z"/>
		<path class="st1" d="M120.2,10.7c-0.6,0-1.3,0.5-1.3,1c0,0.7,0.7,1.3,1.5,1.3c0.8,0,1.2-0.4,1.2-1
			C121.6,11.3,120.9,10.7,120.2,10.7z"/>
		<path class="st1" d="M142.9,10.7c-0.6,0-1.5,0.8-1.5,1.4c0,0.5,0.6,1,1.3,1c0.7,0,1.3-0.6,1.3-1.2C144,11.2,143.4,10.7,142.9,10.7
			z"/>
		<path class="st1" d="M132.2,5.2c-0.4-0.3-0.9-0.3-1.3,0c-1.5,1.1-2.6,2.5-3.2,4.2c-0.4,1.2,0.5,2.5,1.8,2.7
			c0.6,0.1,1.3,0.1,1.8,0.1c0.6,0,1.1,0,1.6-0.1c1.7-0.2,2.7-1.7,2.1-3.4C134.5,7.2,133.5,6.1,132.2,5.2z"/>
		<path class="st1" d="M120.2,10.7c-0.6,0-1.3,0.5-1.3,1c0,0.7,0.7,1.3,1.5,1.3c0.8,0,1.2-0.4,1.2-1
			C121.6,11.3,120.9,10.7,120.2,10.7z"/>
		<path class="st1" d="M142.9,10.7c-0.6,0-1.5,0.8-1.5,1.4c0,0.5,0.6,1,1.3,1c0.7,0,1.3-0.6,1.3-1.2C144,11.2,143.4,10.7,142.9,10.7
			z"/>
		<g>
			<path class="st1" d="M132.2,5.2c-0.4-0.3-0.9-0.3-1.3,0c-1.5,1.1-2.6,2.5-3.2,4.2c-0.4,1.2,0.5,2.5,1.8,2.7
				c0.6,0.1,1.3,0.1,1.8,0.1c0.6,0,1.1,0,1.6-0.1c1.7-0.2,2.7-1.7,2.1-3.4C134.5,7.2,133.5,6.1,132.2,5.2z"/>
			<path class="st1" d="M142.9,10.7c-0.6,0-1.5,0.8-1.5,1.4c0,0.5,0.6,1,1.3,1c0.7,0,1.3-0.6,1.3-1.2
				C144,11.2,143.4,10.7,142.9,10.7z"/>
			<path class="st1" d="M120.2,10.7c-0.6,0-1.3,0.5-1.3,1c0,0.7,0.7,1.3,1.5,1.3c0.8,0,1.2-0.4,1.2-1
				C121.6,11.3,120.9,10.7,120.2,10.7z"/>
			<path class="st2" d="M155.6,4.3C153.8,4,152,4,150.5,5.2c-0.1,0.1-0.3,0.2-0.5,0.2c-1.9,0-3.1,1.2-4.1,2.7
				c-0.5,0.7-0.6,0.7-1,0.1c-1-1.5-2.5-1.8-3.9-0.6c-0.2,0.1-0.3,0.3-0.5,0.4c-0.4,0.4-0.6,0.3-0.8-0.2c-0.2-0.6-0.5-1.3-0.8-1.9
				c-0.6-1-1.4-1.6-2.6-1.6c-0.5,0-0.6-0.2-0.8-0.6c-0.3-1.3-1.3-2-2.3-2.6c-0.5-0.3-0.9-0.6-1.4-0.9c-0.2-0.1-0.6-0.1-0.8,0
				c-0.8,0.5-1.6,1-2.3,1.6c-0.7,0.6-1.3,1.2-1.4,2.2c0,0.2-0.4,0.4-0.6,0.4c-1.7-0.1-2.5,1-3.1,2.3c-0.2,0.4-0.3,0.7-0.4,1.1
				c-0.2,0.7-0.3,0.7-0.9,0.2c-0.4-0.3-0.7-0.6-1.2-0.8c-1.4-0.6-2.4-0.2-3.2,1.2c-0.1,0.2-0.3,0.3-0.4,0.5
				c-0.2-0.2-0.3-0.3-0.5-0.5c-1-1.6-2.3-2.8-4.3-2.9c-0.3,0-0.6-0.3-0.9-0.5c-1.5-1-3.1-1-4.7-0.6c-0.1,0-0.1,0.1-0.3,0.2
				c0.4,0.2,0.7,0.4,0.9,0.5c1.3,0.8,2.6,1.5,3.7,2.5c1.6,1.3,2.3,3.1,2.9,5c0.2,0.5,0.3,1.1,0.5,1.6c0.3,0.9,0.5,1,1.4,1
				c2,0,4-0.1,6-0.1c4.3,0,8.5,0,12.8,0c3.9,0,7.8,0,11.8,0c1.5,0,1.4,0,1.8-1.5c0.8-3.3,2.5-6.1,5.5-7.8c0.6-0.3,1.2-0.6,1.7-0.9
				c0.1-0.1,0.2-0.3,0.4-0.4C155.9,4.5,155.7,4.3,155.6,4.3z M120.4,13c-0.7,0-1.5-0.6-1.5-1.3c0-0.5,0.7-1,1.3-1
				c0.7,0,1.4,0.6,1.4,1.3C121.6,12.6,121.2,13,120.4,13z M132.9,12.1c-0.5,0.1-1,0-1.6,0.1c-0.5,0-1.2,0-1.8-0.1
				c-1.3-0.2-2.2-1.5-1.8-2.7c0.6-1.8,1.7-3.2,3.2-4.2c0.4-0.3,0.9-0.3,1.3,0c1.3,0.9,2.3,2.1,2.8,3.6
				C135.6,10.4,134.7,11.9,132.9,12.1z M142.6,13c-0.7,0-1.3-0.5-1.3-1c0-0.6,0.9-1.4,1.5-1.4c0.6,0,1.1,0.6,1.1,1.1
				C144,12.4,143.3,13,142.6,13z"/>
		</g>
		<path class="st0" d="M158.8,23.3c-3.8-0.4-7.5-0.1-11.2,0.9c-3.3,0.9-6.3,2.4-9.1,4.4c-2.6,1.9-4.7,4.2-6.2,7.1
			c-0.3,0.6-0.6,1.2-1,2c-0.2-0.4-0.3-0.6-0.4-0.9c-0.5-0.9-0.9-1.9-1.5-2.8c-2.4-3.6-5.8-6.3-9.7-8.1c-4.9-2.3-10.1-3.1-15.5-2.7
			c-0.2,0-0.5-0.1-0.7-0.1c0-0.1,0-0.2-0.1-0.3c0.8-0.4,1.5-0.9,2.3-1.2c2.7-1.1,5.5-1.7,8.4-1.6c2.3,0.1,4.6,0.5,6.6,1.8
			c0.4,0.2,0.6,0.1,0.8-0.2c0.5-0.7,1.1-0.9,1.8-0.6c0.7,0.3,1.4,0.7,2,1.2c1,0.9,1.8,2,2.3,3.3c0.1,0.2,0.3,0.4,0.4,0.6
			c0.1,0,0.2-0.1,0.2-0.1c0-0.3,0-0.5,0-0.8c-0.1-1.5,0.2-2.9,1.3-4c1.5-1.6,2.2-1.6,3.8,0.1c0.1,0.1,0.2,0.4,0.3,0.5
			c0.6,1.2,0.8,2.5,0.6,3.9c0,0.3,0,0.6-0.1,0.8c0.1,0,0.1,0,0.2,0.1c0.2-0.3,0.4-0.5,0.5-0.8c0.9-1.8,2-3.4,3.7-4.4
			c1.1-0.7,2.3-0.7,2.8,0.4c0.2,0.3,0.4,0.2,0.7,0.1c0.8-0.4,1.5-0.9,2.3-1.1c4.7-1.4,9.2-0.9,13.5,1.3c0.5,0.2,1,0.6,1.4,0.8
			c0,0.1,0,0.2-0.1,0.3C159.3,23.3,159.1,23.3,158.8,23.3z"/>
	</g>
	<g>
		<path class="st0" d="M14.9,145.9c3.3,0.3,6.5-0.1,9.7-1.1c0.5-0.2,1-0.4,1.5-0.6H34c-1.1,0.8-2.1,1.6-3.3,2.3
			c-3.1,2-6.4,3.5-10.2,3.9c-5.9,0.7-11.3-0.4-16.4-3.6c-1.2-0.8-2.4-1.7-3.4-2.7h7C10.1,145.1,12.5,145.7,14.9,145.9z"/>
		<path class="st0" d="M241.2,145.1c2.2,0.5,4.5,0.7,6.7,0.5c2.1-0.1,4.2-0.4,6.2-1.1c0.2-0.1,0.5-0.2,0.7-0.3h7.4
			c-1.2,1.1-2.6,2.1-4.1,2.9c-3,1.6-6.1,2.7-9.5,3.1c-3.1,0.3-6.3,0.2-9.3-0.8c-3.3-1-6.2-2.6-9-4.7c-0.3-0.2-0.5-0.4-0.8-0.6h8.7
			C239.3,144.6,240.3,144.8,241.2,145.1z"/>
		<path class="st0" d="M193,147.2c0,2.3,0.9,4.3,2.4,6.1c1.9,2.2,4.4,3.5,7.2,4.1c4.3,0.8,8.2,0.1,11.8-2.5c1.7-1.2,2.8-2.9,3.5-4.8
			c0.1-0.3,0-0.6,0-0.9c-0.2,0.1-0.5,0.2-0.7,0.4c-1,0.9-2.2,1.5-3.6,1.7c-2.1,0.3-4.1,0.2-6-0.8c-2.2-1-3.9-2.9-3.7-5.4
			c0-0.2,0.2-0.4,0.2-0.6c0.2,0.1,0.4,0.2,0.5,0.4c0.5,0.9,1.2,1.6,2.1,2c1.2,0.6,1.7,0.4,1.9-0.9c0.2-0.8,0.6-1.4,1.2-1.8h15.2
			c1.5,1.3,3,2.5,4.7,3.6c3.7,2.4,7.7,3.8,12,4.2c2.4,0.2,4.9,0,7.3-0.2c0.7-0.1,1.4-0.2,2-0.1c0.5,0.1,0.9,0.1,1.3-0.2
			c0.1-0.1,0.2-0.1,0.4-0.2c-0.3,0.8-0.9,1.1-1.5,1.5c-6.7,4.5-13.4,4.4-20.1-0.5c0.1,0.4,0.1,0.7,0.2,0.9c0.1,0.3,0.2,0.6,0.2,0.9
			c0.1,1-0.6,1.5-1.5,1.2c-0.7-0.2-1.5-0.3-2.3-0.4c-0.1,0-0.3-0.1-0.4-0.1c0.1-0.4,0.5-0.7,0-1c-2.7-1.9-4.9-4.2-6.6-7.1
			c-0.1-0.2-0.3-0.4-0.5-0.6c-0.1,0-0.1,0-0.2,0c0,0.2-0.1,0.4-0.1,0.6c0.2,1.7-0.1,3.3-0.6,4.8c-0.3,1-0.8,2.1-1.3,3
			c-1.3,2.2-3.3,3.8-5.2,5.5c-1.5,1.4-2.9,2.9-3.9,4.8c-0.4,0.9-0.8,1.9-1.2,2.9c-0.1,0.3-0.3,0.8-0.8,0.6c-0.8-0.5-1.7-1-2.4-1.6
			c-1.3-1.1-1.5-2.7-1.6-4.3c0-0.7-0.2-0.8-0.8-0.7c-0.9,0.2-1.8,0.3-2.7,0.4c-1.7,0.2-3.4,0.1-4.9-0.8c-1.3-0.8-2.4-1.9-3.3-3.1
			c0-0.1,0.1-0.2,0.1-0.2c0.2,0.1,0.5,0.1,0.7,0.2c1.3,0.5,2.6,0.6,4,0c0.4-0.2,0.7-0.5,1.1-0.7c-0.3-0.3-0.6-0.6-0.9-0.8
			c-3.1-2.2-5-5-5.1-8.9c0-0.8-0.4-1.1-1.1-1.3c-0.9-0.3-1.3-1-1.4-1.9c0-0.1,0-0.2,0-0.3h4.1C193,145.2,193,146.2,193,147.2z"/>
		<path class="st0" d="M54.4,145.3c0.2,0.4,0.4,0.9,0.5,1.4c0.1,0.4,0.3,0.6,0.8,0.5c1.4-0.3,2.3-1.1,3-2.2c0.1-0.2,0.4-0.3,0.6-0.5
			c0.1,0.2,0.3,0.5,0.3,0.7c0,1.6-0.7,2.9-1.8,4c-1.4,1.3-3,1.9-4.8,2.2c-2.5,0.3-4.8-0.2-6.8-1.9c-0.1-0.1-0.3-0.2-0.6-0.4
			c0,0.4-0.1,0.6,0,0.8c0.4,1.3,0.9,2.5,1.9,3.5c2.5,2.7,5.7,4.1,9.3,4.3c4.8,0.3,8.9-1.3,11.8-5.1c1.3-1.6,2-3.5,1.9-5.7
			c0-0.9,0-1.8,0-2.7h4c-0.1,1-0.6,2-1.6,2.2c-0.5,0.2-0.7,0.5-0.8,1.1c-0.1,2.2-0.7,4.3-2.1,6.1c-1,1.4-2.3,2.4-3.7,3.4
			c-0.5,0.4-0.5,0.5,0,0.9c1.2,0.7,2.5,0.9,3.9,0.5c0.3-0.1,0.5-0.2,0.8-0.2c0.1,0,0.3,0.1,0.4,0.2c0,0,0,0.2-0.1,0.3
			c-1.5,1.9-3.3,3.4-5.9,3.3c-1.5,0-3-0.2-4.4-0.4c-0.5-0.1-0.7,0.1-0.7,0.6c0,0.2,0,0.4,0,0.6c-0.1,2.6-1.6,4.2-3.8,5.4
			c-0.4,0.2-0.5,0-0.7-0.3c-0.2-0.7-0.5-1.3-0.8-1.9c-0.9-1.8-1.9-3.5-3.3-4.8c-1.3-1.2-2.6-2.5-3.9-3.7c-1.5-1.3-2.5-2.9-3.2-4.8
			c-0.7-1.9-0.8-3.8-1-5.8c0-0.3,0-0.6,0-0.9c-0.1,0-0.1-0.1-0.2-0.1c-0.2,0.3-0.4,0.6-0.5,0.9c-1.5,2.6-3.4,4.7-5.7,6.5
			c-1,0.8-2.1,1.5-3.3,2.1c-1.1,0.5-1.7,0-1.6-1.2c0-0.4,0.2-0.8,0.3-1.2c0-0.2,0-0.3-0.1-0.5c-0.2,0-0.3,0.1-0.5,0.1
			c-0.1,0-0.2,0.1-0.2,0.2c-2.5,2-5.3,3.2-8.5,3.4c-4,0.3-7.6-0.8-10.9-3.1c-0.7-0.5-1.3-1.1-2-1.6c0-0.1,0.1-0.2,0.1-0.3
			c0.3,0,0.7,0.1,1,0.1c1.2,0.2,2.4,0.5,3.6,0.7c4,0.6,8,0.3,11.9-0.9c3.7-1.1,6.9-3,9.8-5.4c0.6-0.5,1.2-1,1.8-1.6h14.6
			C53.8,144.5,54.1,144.8,54.4,145.3z"/>
		<path class="st0" d="M169.1,153.1c-0.5,0.4-1,0.7-1.6,0.9c-0.8,0.4-1.2,0.2-1.8-0.4c-0.2-0.2-0.6-0.3-0.9-0.2
			c-2.8,0.9-5.8,1.3-8.7,1c-3.7-0.3-7-1.6-9.5-4.5c-1.4-1.7-2.4-3.6-2.8-5.7h5.5c0.5,2.8,1.7,5.2,4.2,6.9c1.6,1.2,3.5,1.6,5.5,1.6
			c1.9,0,3.7-0.4,5.4-1c0.1,0,0.2-0.1,0.4-0.3c-0.3-0.1-0.5-0.2-0.7-0.2c-1.6-0.4-3.1-0.7-4.6-1.2c-1-0.4-1.9-1.1-2.2-2.2
			c-0.2-0.8,0-1.1,0.9-1c2.6,0.2,5.2,0,7.7-0.9c0.8-0.3,1.5-0.7,2.2-1.1c0.3-0.1,0.4-0.3,0.1-0.6c0,0,0,0,0,0h7
			c-0.1,0.3-0.2,0.6-0.3,0.9C173.6,148.3,171.8,151,169.1,153.1z"/>
		<path class="st0" d="M95.1,145c2.1,1.3,4.5,1.8,7,1.9c1,0,1.9,0,2.9-0.1c0.7,0,1.1,0.4,0.9,1.1c-0.2,0.5-0.5,0.9-0.9,1.2
			c-1.1,1.1-2.5,1.5-4,1.8c-0.8,0.2-1.6,0.3-2.4,0.4c-0.1,0-0.3,0.1-0.4,0.1c0,0.1,0,0.1,0,0.2c0.8,0.2,1.6,0.6,2.4,0.7
			c1.7,0.3,3.4,0.5,5.1,0.2c2.9-0.5,5-2.2,6.5-4.7c0.7-1.2,1.2-2.4,1.4-3.7h5.5c-0.7,3.4-2.9,6.6-6,8.4c-3.5,1.9-7.1,2.3-11,1.7
			c-1.4-0.2-2.8-0.6-4.2-0.9c-0.2,0-0.6,0-0.7,0.2c-0.6,0.6-1.1,0.7-2,0.3c-2-0.9-3.4-2.4-4.7-4.2c-1.2-1.7-2.1-3.6-2.7-5.5H95
			C94.6,144.5,94.6,144.7,95.1,145z"/>
		<path class="st0" d="M137.4,149.2c1,4.6,3.8,7.9,7.7,10.3c5.2,3.1,11,4,16.9,3.2c4.8-0.6,9-2.5,12.3-6.2c2.1-2.3,3.3-5,3.9-8.1
			c0.3-1.4,0.3-2.9,0.3-4.3h3.6c0.2,1.7,0.2,3.5,0.1,5.3c-0.3,3.7-1.4,7.1-3.6,10.1c-2.7,3.7-6.5,5.9-10.7,7.3
			c-3.1,1-6.3,1.5-9.4,1.4c-2.7,0.1-5.2-0.2-7.6-0.8c-3.9-0.9-7.5-2.3-10.7-4.7c-4.4-3.2-7-7.4-7.6-12.7c-0.3-2-0.2-4,0-6h4.6
			C137,145.9,137,147.5,137.4,149.2z"/>
		<path class="st0" d="M85.1,148.8c0.5,2.2,1.2,4.3,2.4,6.2c1.7,2.6,4.1,4.5,6.8,5.8c4.6,2.3,9.4,2.6,14.4,2
			c3.8-0.5,7.4-1.8,10.5-4.1c2.7-2.1,4.8-4.6,6-7.9c0.7-2.1,0.9-4.3,0.7-6.5h4.6c0.1,0.6,0.1,1.1,0.2,1.7c0.1,2.4,0,4.7-0.7,7
			c-1.5,4.6-4.4,8.2-8.5,10.8c-3.4,2.2-7.1,3.5-11,4.2c-6.9,1.1-13.6,0.5-19.9-3c-2.8-1.5-5.2-3.6-6.8-6.3c-1.4-2.3-2.2-5-2.5-7.7
			c-0.2-2.2-0.2-4.4,0-6.6h3.5C84.7,145.7,84.8,147.3,85.1,148.8z"/>
		<path class="st1" d="M120.2,182.1c0.6,0,1.5-0.8,1.5-1.4c0-0.5-0.6-1-1.3-1c-0.7,0-1.3,0.6-1.3,1.2
			C119,181.5,119.6,182.1,120.2,182.1z"/>
		<path class="st1" d="M142.8,182.1c0.6,0,1.3-0.5,1.3-1c0-0.7-0.7-1.3-1.5-1.3c-0.8,0-1.2,0.4-1.2,1
			C141.5,181.4,142.1,182.1,142.8,182.1z"/>
		<path class="st1" d="M130.8,187.6c0.4,0.3,0.9,0.3,1.3,0c1.5-1.1,2.6-2.5,3.2-4.2c0.4-1.2-0.5-2.5-1.8-2.7
			c-0.6-0.1-1.3-0.1-1.8-0.1c-0.6,0-1.1,0-1.6,0.1c-1.7,0.2-2.7,1.7-2.1,3.4C128.5,185.5,129.5,186.7,130.8,187.6z"/>
		<path class="st1" d="M130.8,187.6c0.4,0.3,0.9,0.3,1.3,0c1.5-1.1,2.6-2.5,3.2-4.2c0.4-1.2-0.5-2.5-1.8-2.7
			c-0.6-0.1-1.3-0.1-1.8-0.1c-0.6,0-1.1,0-1.6,0.1c-1.7,0.2-2.7,1.7-2.1,3.4C128.5,185.5,129.5,186.7,130.8,187.6z"/>
		<path class="st1" d="M142.8,182.1c0.6,0,1.3-0.5,1.3-1c0-0.7-0.7-1.3-1.5-1.3c-0.8,0-1.2,0.4-1.2,1
			C141.5,181.4,142.1,182.1,142.8,182.1z"/>
		<path class="st1" d="M120.2,182.1c0.6,0,1.5-0.8,1.5-1.4c0-0.5-0.6-1-1.3-1c-0.7,0-1.3,0.6-1.3,1.2
			C119,181.5,119.6,182.1,120.2,182.1z"/>
		<path class="st1" d="M130.8,187.6c0.4,0.3,0.9,0.3,1.3,0c1.5-1.1,2.6-2.5,3.2-4.2c0.4-1.2-0.5-2.5-1.8-2.7
			c-0.6-0.1-1.3-0.1-1.8-0.1c-0.6,0-1.1,0-1.6,0.1c-1.7,0.2-2.7,1.7-2.1,3.4C128.5,185.5,129.5,186.7,130.8,187.6z"/>
		<path class="st1" d="M142.8,182.1c0.6,0,1.3-0.5,1.3-1c0-0.7-0.7-1.3-1.5-1.3c-0.8,0-1.2,0.4-1.2,1
			C141.5,181.4,142.1,182.1,142.8,182.1z"/>
		<path class="st1" d="M120.2,182.1c0.6,0,1.5-0.8,1.5-1.4c0-0.5-0.6-1-1.3-1c-0.7,0-1.3,0.6-1.3,1.2
			C119,181.5,119.6,182.1,120.2,182.1z"/>
		<g>
			<path class="st1" d="M130.8,187.6c0.4,0.3,0.9,0.3,1.3,0c1.5-1.1,2.6-2.5,3.2-4.2c0.4-1.2-0.5-2.5-1.8-2.7
				c-0.6-0.1-1.3-0.1-1.8-0.1c-0.6,0-1.1,0-1.6,0.1c-1.7,0.2-2.7,1.7-2.1,3.4C128.5,185.5,129.5,186.7,130.8,187.6z"/>
			<path class="st1" d="M120.2,182.1c0.6,0,1.5-0.8,1.5-1.4c0-0.5-0.6-1-1.3-1c-0.7,0-1.3,0.6-1.3,1.2
				C119,181.5,119.6,182.1,120.2,182.1z"/>
			<path class="st1" d="M142.8,182.1c0.6,0,1.3-0.5,1.3-1c0-0.7-0.7-1.3-1.5-1.3c-0.8,0-1.2,0.4-1.2,1
				C141.5,181.4,142.1,182.1,142.8,182.1z"/>
			<path class="st2" d="M107.5,188.5c1.8,0.3,3.5,0.3,5.1-0.9c0.1-0.1,0.3-0.2,0.5-0.2c1.9,0,3.1-1.2,4.1-2.7c0.5-0.7,0.6-0.7,1-0.1
				c1,1.5,2.5,1.8,3.9,0.6c0.2-0.1,0.3-0.3,0.5-0.4c0.4-0.4,0.6-0.3,0.8,0.2c0.2,0.6,0.5,1.3,0.8,1.9c0.6,1,1.4,1.6,2.6,1.6
				c0.5,0,0.7,0.2,0.8,0.6c0.3,1.3,1.3,2,2.3,2.6c0.5,0.3,0.9,0.6,1.4,0.9c0.2,0.1,0.6,0.1,0.8,0c0.8-0.5,1.6-1,2.3-1.6
				c0.7-0.6,1.3-1.2,1.4-2.2c0-0.2,0.4-0.4,0.6-0.4c1.7,0.1,2.5-1,3.1-2.3c0.2-0.4,0.3-0.7,0.4-1.1c0.2-0.6,0.3-0.7,0.9-0.2
				c0.4,0.3,0.7,0.6,1.2,0.8c1.4,0.6,2.4,0.2,3.2-1.2c0.1-0.2,0.3-0.3,0.4-0.5c0.2,0.2,0.3,0.3,0.5,0.5c1,1.6,2.3,2.8,4.3,2.9
				c0.3,0,0.6,0.3,0.9,0.5c1.5,1,3.1,1,4.7,0.6c0.1,0,0.1-0.1,0.3-0.2c-0.4-0.2-0.7-0.4-0.9-0.5c-1.3-0.8-2.6-1.5-3.7-2.5
				c-1.6-1.3-2.3-3.1-2.9-5c-0.2-0.5-0.3-1.1-0.5-1.6c-0.3-0.9-0.5-1-1.4-1c-2,0-4,0.1-6,0.1c-4.3,0-8.5,0-12.8,0
				c-3.9,0-7.8,0-11.8,0c-1.5,0-1.4,0-1.8,1.5c-0.8,3.3-2.5,6-5.5,7.8c-0.6,0.3-1.2,0.6-1.7,0.9c-0.1,0.1-0.2,0.3-0.4,0.4
				C107.2,188.3,107.3,188.4,107.5,188.5z M142.6,179.8c0.7,0,1.5,0.6,1.5,1.3c0,0.5-0.7,1-1.3,1c-0.7,0-1.4-0.6-1.4-1.3
				C141.5,180.1,141.9,179.8,142.6,179.8z M130.1,180.6c0.5-0.1,1,0,1.6-0.1c0.5,0,1.2,0.1,1.8,0.1c1.3,0.2,2.2,1.5,1.8,2.7
				c-0.6,1.8-1.7,3.1-3.2,4.2c-0.4,0.3-0.8,0.3-1.3,0c-1.3-0.9-2.3-2.1-2.8-3.6C127.4,182.4,128.4,180.9,130.1,180.6z M120.4,179.7
				c0.7,0,1.3,0.5,1.3,1c0,0.6-0.9,1.4-1.5,1.4c-0.6,0-1.1-0.6-1.1-1.1C119.1,180.3,119.7,179.7,120.4,179.7z"/>
		</g>
		<path class="st0" d="M104.2,169.5c3.8,0.4,7.5,0.1,11.1-0.9c3.3-0.9,6.3-2.4,9.1-4.4c2.6-1.9,4.7-4.2,6.2-7.1c0.3-0.6,0.6-1.2,1-2
			c0.2,0.4,0.3,0.6,0.4,0.9c0.5,0.9,0.9,1.9,1.5,2.8c2.4,3.7,5.8,6.3,9.7,8.1c4.9,2.3,10.1,3.1,15.5,2.7c0.2,0,0.5,0.1,0.7,0.1
			c0,0.1,0,0.2,0.1,0.3c-0.8,0.4-1.5,0.9-2.3,1.2c-2.7,1.1-5.5,1.7-8.4,1.6c-2.3-0.1-4.6-0.5-6.6-1.8c-0.4-0.2-0.6-0.1-0.8,0.2
			c-0.5,0.7-1.1,0.9-1.8,0.6c-0.7-0.3-1.4-0.7-2-1.2c-1-0.9-1.8-2-2.3-3.3c-0.1-0.2-0.3-0.4-0.4-0.6c-0.1,0-0.2,0.1-0.2,0.1
			c0,0.3,0,0.5,0,0.8c0.1,1.5-0.2,2.9-1.3,4c-1.5,1.6-2.2,1.6-3.8-0.1c-0.1-0.1-0.2-0.4-0.3-0.5c-0.6-1.2-0.8-2.5-0.6-3.9
			c0-0.3,0-0.6,0.1-0.8c-0.1,0-0.1,0-0.2-0.1c-0.2,0.3-0.4,0.5-0.5,0.8c-0.9,1.8-2,3.4-3.7,4.4c-1.1,0.7-2.3,0.7-2.8-0.4
			c-0.2-0.3-0.4-0.2-0.7-0.1c-0.8,0.4-1.5,0.9-2.3,1.1c-4.7,1.4-9.2,0.9-13.5-1.3c-0.5-0.2-1-0.6-1.4-0.9c0-0.1,0-0.2,0.1-0.3
			C103.7,169.5,104,169.5,104.2,169.5z"/>
	</g>
	<g>
		<path class="st0" d="M29.1,75.3v40.8c-2.3,0-5,0.2-8.1,0.5v-0.7c1.8-0.5,3.1-1.6,3.8-3.3c0.8-1.6,1.2-4.3,1.2-8V85.5
			c0-3.5-0.5-6-1.4-7.3c-1-1.4-2.2-2.2-3.6-2.6v-0.7C23.7,75.1,26.4,75.3,29.1,75.3z M33.6,116.1h-1.6V75.3h9.6
			c2.8,0,6.5-0.2,11.1-0.5c0,0.7,0,1.5,0,2.6c0,0.6,0,1.8,0.1,3.5c0.1,1.9,0.1,2.9,0.1,2.9v1h-0.8c-0.7-4.6-2.9-7-6.6-7H38
			c-0.9,0-1.6,0.1-2.3,0.3c-0.3,2-0.5,4.8-0.5,8.2v8H42c2.9,0,5.1-0.4,6.4-1.1c1.3-0.7,2.2-1.9,2.6-3.8h0.9
			c-0.2,2.8-0.3,4.7-0.3,5.8c0,0.6,0,1.7,0.1,3.3c0.1,1.5,0.2,2.5,0.2,3.2v1.3H51c-0.1-4.1-2.3-6.1-6.6-6.1h-9.2v9
			c0,5.8,1.8,9.1,5.4,9.9v0.7C36.9,116.2,34.6,116.1,33.6,116.1z"/>
		<path class="st0" d="M64.5,75.3h1.3v40.8h-2.6c-0.9,0-2.8,0.2-5.7,0.5v-0.7c1.4-0.4,2.5-1,3.2-2c0.7-1,1.3-2.1,1.5-3.4
			c0.3-1.3,0.4-4.2,0.4-8.5V85.8c0-3.7-0.5-6.3-1.5-7.7c-1-1.4-2.2-2.2-3.6-2.6v-0.7C59,75,61.4,75.1,64.5,75.3z M84,116.1H68.5
			V75.3h11.3c2.1,0,6.1-0.2,12-0.5c-0.1,0.8-0.1,1.4-0.1,1.7c0,0.5,0.1,1.7,0.2,3.6c0.1,1.3,0.1,1.9,0.1,2v1h-0.7
			c-0.9-2.2-2-3.6-3.2-4.3C87,78.3,84.8,78,81.5,78h-6.2c-1,0-1.9,0.1-2.7,0.2c-0.5,0.9-0.7,3-0.8,6.3l-0.1,2.6v6.3h8.4
			c3.2,0,5.2-0.3,6.3-0.8c1-0.5,1.9-1.8,2.5-3.9h0.9c-0.2,2.3-0.3,4.3-0.3,6c0,1.1,0.1,2.5,0.2,4.3c0.1,0.5,0.1,1.5,0.2,3.1H89
			c-0.2-2.3-0.9-3.8-2.1-4.7c-1.2-0.9-3-1.3-5.5-1.3h-9.7v8.4c0,3.2,0.2,6.1,0.5,8.5c1.1,0.2,2.2,0.2,3.5,0.2h5.9
			c3.2,0,5.6-0.4,7.3-1.1c1.7-0.7,3.4-2.4,5-5h0.8c-0.3,1.2-0.7,2.6-1.3,4.1c-0.7,2-1.2,3.8-1.5,5.2C89,116.2,86.4,116.1,84,116.1z"
			/>
		<path class="st0" d="M108,75.3v40.8h-1.7c-0.6,0-1.7,0.1-3.1,0.2c-1.2,0.2-2.6,0.2-4.2,0.2v-0.7c1.7-0.2,3-1,4.1-2.4
			c1.1-1.4,1.6-4.2,1.6-8.4V85.2c0-5.6-1.9-8.8-5.7-9.6v-0.7C100.7,75,103.7,75.2,108,75.3z M111.9,116.1h-1.1V75.3
			c1.6,0,3.2-0.1,5-0.2c2-0.2,3.7-0.3,4.9-0.3c3.5,0,6.2,1.1,7.9,3.2c1.7,2.1,2.6,4.8,2.6,7.9c0,5.3-2.3,8.8-6.8,10.2
			c2.2,0.3,4.1,1,5.7,2c1.6,1.1,4.1,3.3,7.4,6.7c5,5.1,9.2,7.7,12.3,7.7c0.6,0,1.3-0.2,2-0.7l0.2,0.7c-1,1.3-2.5,2-4.3,2
			c-2,0-4-0.7-6.2-2.2c-2-1.4-5-4.1-9-8.2c-4.8-4.9-9.5-7.4-14-7.4c2.8,0.9,6.6,3.8,11.4,8.9c3.4,3.5,6.1,6.1,8.1,7.7
			c2.1,1.6,4,2.4,5.9,2.4v0.3c-0.9,0.3-1.7,0.5-2.6,0.5c-2.5,0-4.7-0.6-6.5-1.9c-1-0.7-2.2-1.8-3.7-3.2c-1.5-1.4-3.3-3.3-5.4-5.5
			c-3.1-3.3-5.4-5.5-6.9-6.7c-1.6-1.2-3.2-2.1-4.7-2.6v9.2c0,6.2,1.9,9.5,5.6,10.1v0.7C116.5,116.2,113.9,116.1,111.9,116.1z
			 M114,86v8.4c1.5,0.4,3.2,0.6,5,0.6c5.8,0,8.7-3,8.7-9c0-5.6-2.9-8.5-8.6-8.5c-1.9,0-3.3,0.4-4.3,1.1C114.3,79.6,114,82,114,86z
			 M131.6,94.3c1.7-2.7,2.5-5.6,2.5-8.8c0-2.9-1-5.8-2.9-8.8c4.4,1.9,6.7,4.8,6.7,8.9C137.9,89.8,135.8,92.6,131.6,94.3z"/>
		<path class="st0" d="M185.9,75.3l-30.1,40.8h-3.8l28.1-37.9h-13.6c-4.2,0-7.2,0.5-9,1.4c-1.8,1-3.1,2.9-4.1,5.8h-0.9
			c0-1.2,0.2-3.2,0.7-6.1c0.2-1.4,0.3-2.4,0.3-2.9c0-0.1,0-0.6-0.1-1.4c2.6,0.3,6.2,0.5,10.6,0.5H185.9z M159.4,116.1l30.1-40.8h3.8
			l-28,37.9h12.4c4.9,0,8.4-0.8,10.4-2.4c2-1.5,3.5-3.5,4.6-6h0.9c-0.1,1.1-0.5,3.1-1.4,6c-0.9,2.7-1.3,4.6-1.4,5.6
			c-3.5-0.3-6.7-0.5-9.5-0.5H159.4z"/>
		<path class="st0" d="M204.4,79c-2.8,4.4-4.3,10-4.3,16.8c0,6.2,1.4,11.5,4.1,16.1c-5.2-3.4-7.8-8.9-7.8-16.5
			C196.4,87.6,199.1,82.2,204.4,79z M237.1,95.5c0,4.7-0.7,8.8-2.2,12c-1.4,3.2-3.4,5.6-6,7.2c-2.5,1.6-5.5,2.4-8.9,2.4
			c-5.4,0-9.5-1.9-12.5-5.8c-2.9-3.8-4.4-9.1-4.4-15.9c0-7,1.5-12.3,4.5-16.1c3-3.7,7.1-5.5,12.3-5.5c5.3,0,9.5,1.8,12.6,5.5
			C235.5,83.1,237.1,88.4,237.1,95.5z M233.4,95.6c0-12.3-4.5-18.5-13.5-18.5c-8.8,0-13.2,6.3-13.2,19c0,11.9,4.5,17.9,13.4,17.9
			C229,113.9,233.4,107.8,233.4,95.6z M235.7,112.1c2.8-3.8,4.2-9.6,4.2-17.2c0-6.8-1.4-12.1-4.2-15.9c5.3,3.2,8,8.6,8,16.3
			C243.7,102.9,241,108.5,235.7,112.1z"/>
	</g>
	<g>
		<path class="st0" d="M262,144.4H1.9c-1.1,0-1.9-0.9-1.9-1.9V49.8c0-1,0.9-1.9,1.9-1.9H262c1.1,0,1.9,0.9,1.9,1.9v92.7
			C263.9,143.5,263.1,144.4,262,144.4z M3.8,140.6h256.3V51.7H3.8V140.6z"/>
	</g>
</g>
</svg>
